<svg width="357" height="160" viewBox="0 0 357 160" fill="none" xmlns="http://www.w3.org/2000/svg">
<g clip-path="url(#clip0_5_2497)">
<path d="M240.291 39.9433C239.866 39.9433 239.509 39.6114 239.48 39.1858C239.047 33.0357 237.104 30.1609 232.982 29.5657C232.567 29.5044 232.253 29.1437 232.253 28.7252C232.253 28.3068 232.567 27.9425 232.982 27.8848C237.107 27.2896 239.051 24.4112 239.48 18.2647C239.509 17.8391 239.866 17.5072 240.291 17.5072C240.717 17.5072 241.074 17.8391 241.103 18.2647C241.536 24.4148 243.479 27.2932 247.601 27.8884C248.016 27.9497 248.33 28.3104 248.33 28.7288C248.33 29.1473 248.016 29.5116 247.601 29.5693C243.476 30.1645 241.532 33.0429 241.103 39.1894C241.07 39.615 240.717 39.9469 240.291 39.9469V39.9433ZM235.438 28.7216C237.886 29.7064 239.462 31.7191 240.291 34.9439C241.121 31.7191 242.697 29.7064 245.145 28.7216C242.697 27.7369 241.121 25.7241 240.291 22.4994C239.462 25.7241 237.886 27.7369 235.438 28.7216Z" fill="#013F71"/>
<path d="M116.375 142.5C115.95 142.5 115.593 142.168 115.564 141.746C115.131 135.596 113.187 132.718 109.065 132.122C108.647 132.061 108.337 131.7 108.337 131.282C108.337 130.864 108.651 130.499 109.065 130.442C113.191 129.846 115.135 126.968 115.564 120.821C115.596 120.396 115.95 120.064 116.375 120.064C116.801 120.064 117.158 120.396 117.187 120.821C117.619 126.972 119.563 129.846 123.685 130.442C124.1 130.503 124.413 130.864 124.413 131.282C124.413 131.7 124.1 132.061 123.685 132.122C119.559 132.718 117.616 135.596 117.183 141.746C117.154 142.172 116.797 142.504 116.372 142.504L116.375 142.5ZM111.521 131.282C113.97 132.267 115.546 134.279 116.375 137.504C117.208 134.279 118.78 132.267 121.229 131.282C118.78 130.297 117.205 128.285 116.375 125.06C115.546 128.285 113.97 130.297 111.521 131.282Z" fill="#013F71"/>
<path d="M230.461 123.88H126.166C123.306 123.88 120.98 121.398 120.98 118.351V48.4596H235.65V118.347C235.65 121.395 233.324 123.877 230.465 123.877L230.461 123.88ZM122.423 49.9024V118.347C122.423 120.601 124.103 122.434 126.166 122.434H230.461C232.527 122.434 234.204 120.601 234.204 118.347V49.9024H122.423Z" fill="#013F71"/>
<path d="M235.647 49.9025H120.98V41.7396C120.98 39.3517 123.306 37.4111 126.166 37.4111H230.461C233.321 37.4111 235.647 39.3517 235.647 41.7396V49.9025ZM122.423 48.4596H234.208V41.7396C234.208 40.1489 232.527 38.854 230.465 38.854H126.166C124.1 38.854 122.423 40.1489 122.423 41.7396V48.4596Z" fill="#013F71"/>
<path opacity="0.3" d="M156.981 83.4556L153.13 87.308L161.11 95.2905L160.742 95.6584H172.116L159.916 83.4556C159.105 82.644 157.792 82.644 156.981 83.4556Z" fill="#E86207"/>
<path d="M153.126 87.308L145.971 80.1515C145.16 79.3399 143.847 79.3399 143.036 80.1515L129.83 93.3607V95.6548H161.485L153.126 87.3044V87.308Z" fill="white"/>
<path d="M175.401 60.0673H133.425C131.442 60.0673 129.834 61.676 129.834 63.6599V93.3679L143.039 80.1587C143.851 79.3471 145.163 79.3471 145.975 80.1587L153.13 87.3152L156.981 83.4628C157.792 82.6512 159.105 82.6512 159.916 83.4628L172.116 95.6656H175.401C177.385 95.6656 178.993 94.0568 178.993 92.0729V63.6635C178.993 61.6796 177.385 60.0709 175.401 60.0709V60.0673ZM166.7 76.9448C163.761 76.9448 161.381 74.5641 161.381 71.6244C161.381 68.6846 163.761 66.3039 166.7 66.3039C169.639 66.3039 172.019 68.6846 172.019 71.6244C172.019 74.5641 169.639 76.9448 166.7 76.9448Z" fill="#E86207"/>
<g opacity="0.3">
<path d="M228.034 63.1874H187.955C187.027 63.1874 186.274 63.9399 186.274 64.8683V65.6979C186.274 66.6262 187.027 67.3788 187.955 67.3788H228.034C228.962 67.3788 229.715 66.6262 229.715 65.6979V64.8683C229.715 63.9399 228.962 63.1874 228.034 63.1874Z" fill="#013F71"/>
<path d="M228.034 75.7653H187.955C187.027 75.7653 186.274 76.5178 186.274 77.4462V78.2758C186.274 79.2041 187.027 79.9567 187.955 79.9567H228.034C228.962 79.9567 229.715 79.2041 229.715 78.2758V77.4462C229.715 76.5178 228.962 75.7653 228.034 75.7653Z" fill="#013F71"/>
<path d="M228.034 88.3431H187.955C187.027 88.3431 186.274 89.0957 186.274 90.024V90.8537C186.274 91.782 187.027 92.5346 187.955 92.5346H228.034C228.962 92.5346 229.715 91.782 229.715 90.8537V90.024C229.715 89.0957 228.962 88.3431 228.034 88.3431Z" fill="#013F71"/>
</g>
<path d="M128.914 45.8229C130.151 45.8229 131.153 44.82 131.153 43.5829C131.153 42.3458 130.151 41.3429 128.914 41.3429C127.677 41.3429 126.674 42.3458 126.674 43.5829C126.674 44.82 127.677 45.8229 128.914 45.8229Z" fill="#5340E2"/>
<path d="M136.303 45.8229C137.54 45.8229 138.542 44.82 138.542 43.5829C138.542 42.3458 137.54 41.3429 136.303 41.3429C135.066 41.3429 134.064 42.3458 134.064 43.5829C134.064 44.82 135.066 45.8229 136.303 45.8229Z" fill="#5340E2"/>
<path d="M143.692 45.8229C144.929 45.8229 145.932 44.82 145.932 43.5829C145.932 42.3458 144.929 41.3429 143.692 41.3429C142.455 41.3429 141.453 42.3458 141.453 43.5829C141.453 44.82 142.455 45.8229 143.692 45.8229Z" fill="#5340E2"/>
<path d="M205.441 103.204H155.347C152.085 103.204 149.44 105.849 149.44 109.111C149.44 112.373 152.085 115.018 155.347 115.018H205.441C208.703 115.018 211.348 112.373 211.348 109.111C211.348 105.849 208.703 103.204 205.441 103.204Z" fill="#5340E2"/>
<path d="M205.441 115.739H155.344C151.691 115.739 148.716 112.767 148.716 109.109C148.716 105.452 151.687 102.479 155.344 102.479H205.441C209.094 102.479 212.069 105.452 212.069 109.109C212.069 112.767 209.098 115.739 205.441 115.739ZM155.344 103.926C152.484 103.926 150.158 106.252 150.158 109.113C150.158 111.973 152.484 114.3 155.344 114.3H205.441C208.301 114.3 210.627 111.973 210.627 109.113C210.627 106.252 208.301 103.926 205.441 103.926H155.344Z" fill="#013F71"/>
</g>
<defs>
<clipPath id="clip0_5_2497">
<rect width="140" height="125" fill="white" transform="translate(108.333 17.5)"/>
</clipPath>
</defs>
</svg>
