<svg width="357" height="160" viewBox="0 0 357 160" fill="none" xmlns="http://www.w3.org/2000/svg">
<g clip-path="url(#clip0_9_1784)">
<path d="M178.333 112.081C182.938 112.081 186.671 110.354 186.671 108.225C186.671 106.095 182.938 104.368 178.333 104.368C173.728 104.368 169.996 106.095 169.996 108.225C169.996 110.354 173.728 112.081 178.333 112.081Z" fill="#E86207"/>
<path d="M178.333 112.783C173.186 112.783 169.301 110.825 169.301 108.225C169.301 105.625 173.186 103.667 178.333 103.667C183.481 103.667 187.365 105.625 187.365 108.225C187.365 110.825 183.481 112.783 178.333 112.783ZM178.333 105.07C173.828 105.07 170.69 106.733 170.69 108.225C170.69 109.716 173.828 111.379 178.333 111.379C182.839 111.379 185.977 109.716 185.977 108.225C185.977 106.733 182.839 105.07 178.333 105.07Z" fill="#013F71"/>
<path d="M178.333 144C163.182 144 148.929 140.87 138.196 135.19C127.321 129.435 121.333 121.73 121.333 113.495C121.333 105.26 127.321 97.5544 138.196 91.8C148.929 86.1193 163.182 82.9895 178.333 82.9895C193.485 82.9895 207.738 86.1193 218.47 91.8C229.346 97.5544 235.333 105.26 235.333 113.495C235.333 121.73 229.346 129.435 218.47 135.19C207.738 140.87 193.485 144 178.333 144ZM178.333 84.393C147.669 84.393 122.722 97.4491 122.722 113.495C122.722 129.54 147.669 142.597 178.333 142.597C208.998 142.597 233.945 129.54 233.945 113.495C233.945 97.4491 208.998 84.393 178.333 84.393Z" fill="#013F71"/>
<path d="M178.333 134.863C166.014 134.863 154.424 132.467 145.694 128.116C136.808 123.688 131.913 117.737 131.913 111.369C131.913 105 136.808 99.0492 145.694 94.6212C154.424 90.2703 166.018 87.8738 178.333 87.8738C190.649 87.8738 202.243 90.2703 210.973 94.6212C219.859 99.0527 224.753 105 224.753 111.369C224.753 117.737 219.859 123.688 210.973 128.116C202.243 132.467 190.653 134.863 178.333 134.863ZM178.333 89.2738C153.504 89.2738 133.302 99.1861 133.302 111.369C133.302 123.551 153.504 133.463 178.333 133.463C203.163 133.463 223.365 123.551 223.365 111.369C223.365 99.1861 203.163 89.2738 178.333 89.2738Z" fill="#013F71"/>
<path d="M178.333 128.358C168.208 128.358 158.676 126.561 151.498 123.302C144.142 119.961 140.091 115.453 140.091 110.607C140.091 105.761 144.142 101.253 151.498 97.9123C158.676 94.6527 168.208 92.8562 178.333 92.8562C188.459 92.8562 197.991 94.6527 205.169 97.9123C212.524 101.253 216.575 105.761 216.575 110.607C216.575 115.453 212.524 119.961 205.169 123.302C197.991 126.561 188.459 128.358 178.333 128.358ZM178.333 94.2632C168.399 94.2632 159.072 96.0141 152.067 99.1966C145.239 102.295 141.48 106.351 141.48 110.611C141.48 114.87 145.239 118.926 152.067 122.025C159.072 125.204 168.399 126.954 178.333 126.954C188.268 126.954 197.595 125.204 204.6 122.025C211.427 118.926 215.187 114.87 215.187 110.611C215.187 106.351 211.427 102.295 204.6 99.1966C197.595 96.0176 188.268 94.2632 178.333 94.2632Z" fill="#013F71"/>
<path d="M178.333 107.46C177.952 107.46 177.639 107.144 177.639 106.758V105.705C177.639 105.319 177.952 105.003 178.333 105.003C178.715 105.003 179.028 105.319 179.028 105.705V106.758C179.028 107.144 178.715 107.46 178.333 107.46ZM178.333 103.249C177.952 103.249 177.639 102.933 177.639 102.547V101.495C177.639 101.109 177.952 100.793 178.333 100.793C178.715 100.793 179.028 101.109 179.028 101.495V102.547C179.028 102.933 178.715 103.249 178.333 103.249ZM178.333 99.0386C177.952 99.0386 177.639 98.7228 177.639 98.3368V97.2842C177.639 96.8982 177.952 96.5824 178.333 96.5824C178.715 96.5824 179.028 96.8982 179.028 97.2842V98.3368C179.028 98.7228 178.715 99.0386 178.333 99.0386ZM178.333 94.828C177.952 94.828 177.639 94.5122 177.639 94.1263V93.0736C177.639 92.6877 177.952 92.3719 178.333 92.3719C178.715 92.3719 179.028 92.6877 179.028 93.0736V94.1263C179.028 94.5122 178.715 94.828 178.333 94.828ZM178.333 90.6175C177.952 90.6175 177.639 90.3017 177.639 89.9157V88.8631C177.639 88.4771 177.952 88.1614 178.333 88.1614C178.715 88.1614 179.028 88.4771 179.028 88.8631V89.9157C179.028 90.3017 178.715 90.6175 178.333 90.6175ZM178.333 86.407C177.952 86.407 177.639 86.0912 177.639 85.7052V84.6526C177.639 84.2666 177.952 83.9508 178.333 83.9508C178.715 83.9508 179.028 84.2666 179.028 84.6526V85.7052C179.028 86.0912 178.715 86.407 178.333 86.407ZM178.333 82.1964C177.952 82.1964 177.639 81.8807 177.639 81.4947V80.4421C177.639 80.0561 177.952 79.7403 178.333 79.7403C178.715 79.7403 179.028 80.0561 179.028 80.4421V81.4947C179.028 81.8807 178.715 82.1964 178.333 82.1964ZM178.333 77.9859C177.952 77.9859 177.639 77.6701 177.639 77.2842V76.2315C177.639 75.8456 177.952 75.5298 178.333 75.5298C178.715 75.5298 179.028 75.8456 179.028 76.2315V77.2842C179.028 77.6701 178.715 77.9859 178.333 77.9859ZM178.333 73.7754C177.952 73.7754 177.639 73.4596 177.639 73.0736V72.021C177.639 71.635 177.952 71.3192 178.333 71.3192C178.715 71.3192 179.028 71.635 179.028 72.021V73.0736C179.028 73.4596 178.715 73.7754 178.333 73.7754ZM178.333 69.5649C177.952 69.5649 177.639 69.2491 177.639 68.8631V67.8105C177.639 67.4245 177.952 67.1087 178.333 67.1087C178.715 67.1087 179.028 67.4245 179.028 67.8105V68.8631C179.028 69.2491 178.715 69.5649 178.333 69.5649ZM178.333 65.3543C177.952 65.3543 177.639 65.0385 177.639 64.6526V63.5999C177.639 63.214 177.952 62.8982 178.333 62.8982C178.715 62.8982 179.028 63.214 179.028 63.5999V64.6526C179.028 65.0385 178.715 65.3543 178.333 65.3543Z" fill="#013F71"/>
<path d="M202.298 40.9262C202.298 54.3052 191.569 65.1508 178.333 65.1508C165.098 65.1508 154.368 54.3052 154.368 40.9262C154.368 27.5473 165.098 16.7017 178.333 16.7017C191.569 16.7017 202.298 27.5473 202.298 40.9262Z" fill="white"/>
<path d="M178.333 65.8491C164.737 65.8491 153.674 54.6667 153.674 40.9228C153.674 27.1789 164.737 16 178.333 16C191.93 16 202.992 27.1825 202.992 40.9263C202.992 54.6702 191.93 65.8526 178.333 65.8526V65.8491ZM178.333 17.4035C165.504 17.4035 155.063 27.9544 155.063 40.9263C155.063 53.8982 165.5 64.4491 178.333 64.4491C191.166 64.4491 201.604 53.8982 201.604 40.9263C201.604 27.9544 191.163 17.4035 178.333 17.4035Z" fill="#013F71"/>
<path d="M185.657 30.6246C183.55 28.6597 181.11 27.6772 178.333 27.6772C175.556 27.6772 173.12 28.6597 171.009 30.6246C168.902 32.5895 167.847 35.2281 167.847 38.5404C167.847 40.7474 168.715 43.1509 170.45 45.7439C172.186 48.3369 174.814 51.1474 178.33 54.172C181.846 51.1474 184.474 48.3369 186.209 45.7439C187.945 43.1509 188.813 40.7474 188.813 38.5404C188.813 35.2281 187.758 32.5895 185.651 30.6246H185.657ZM180.183 40.1474C179.67 40.6667 179.052 40.9264 178.333 40.9264C177.615 40.9264 176.997 40.6667 176.483 40.1474C175.969 39.6281 175.713 39.0036 175.713 38.2772C175.713 37.5509 175.969 36.9264 176.483 36.4071C176.997 35.8878 177.615 35.6281 178.333 35.6281C179.052 35.6281 179.67 35.8878 180.183 36.4071C180.697 36.9264 180.954 37.5509 180.954 38.2772C180.954 39.0036 180.697 39.6281 180.183 40.1474Z" fill="#5340E2"/>
<path d="M178.333 55.0948L177.882 54.7088C174.335 51.6562 171.641 48.772 169.878 46.1404C168.069 43.4387 167.153 40.8843 167.153 38.5439C167.153 35.0422 168.291 32.2071 170.537 30.1123C172.766 28.0316 175.39 26.979 178.33 26.979C181.27 26.979 183.894 28.0351 186.123 30.1123C188.368 32.2071 189.507 35.0422 189.507 38.5439C189.507 40.8843 188.591 43.4387 186.782 46.1404C185.019 48.7755 182.325 51.6597 178.778 54.7088L178.326 55.0948H178.333ZM178.333 28.379C175.716 28.379 173.474 29.2808 171.481 31.1404C169.503 32.9825 168.545 35.4036 168.545 38.5404C168.545 40.5965 169.381 42.8878 171.03 45.3509C172.648 47.7685 175.105 50.4246 178.333 53.2492C181.565 50.4246 184.019 47.7685 185.637 45.3509C187.285 42.8878 188.122 40.5965 188.122 38.5404C188.122 35.4036 187.161 32.986 185.185 31.1404C183.193 29.2808 180.951 28.379 178.333 28.379ZM178.333 41.6281C177.424 41.6281 176.636 41.2983 175.99 40.6457C175.345 39.993 175.018 39.1965 175.018 38.2772C175.018 37.358 175.345 36.5615 175.99 35.9088C176.636 35.2562 177.424 34.9264 178.333 34.9264C179.243 34.9264 180.031 35.2562 180.676 35.9088C181.322 36.5615 181.648 37.358 181.648 38.2772C181.648 39.1965 181.322 39.993 180.676 40.6457C180.031 41.2983 179.243 41.6281 178.333 41.6281ZM178.333 36.3264C177.799 36.3264 177.354 36.5123 176.973 36.8983C176.591 37.2843 176.407 37.7334 176.407 38.2737C176.407 38.8141 176.591 39.2632 176.973 39.6492C177.354 40.0351 177.799 40.2211 178.333 40.2211C178.868 40.2211 179.312 40.0351 179.694 39.6492C180.076 39.2632 180.26 38.8141 180.26 38.2737C180.26 37.7334 180.076 37.2843 179.694 36.8983C179.312 36.5123 178.868 36.3264 178.333 36.3264Z" fill="#013F71"/>
</g>
<defs>
<clipPath id="clip0_9_1784">
<rect width="114" height="128" fill="white" transform="translate(121.333 16)"/>
</clipPath>
</defs>
</svg>
