<svg width="357" height="160" viewBox="0 0 357 160" fill="none" xmlns="http://www.w3.org/2000/svg">
<g clip-path="url(#clip0_9_1576)">
<path d="M190.805 143H173.493C173.048 143 172.684 142.635 172.684 142.188C172.684 142.058 172.684 141.932 172.68 141.802C172.68 141.672 172.672 141.543 172.663 141.417C172.655 141.287 172.647 141.161 172.639 141.031C172.631 140.901 172.619 140.775 172.607 140.649C172.595 140.524 172.578 140.398 172.566 140.272C172.55 140.146 172.534 140.02 172.514 139.89C172.493 139.764 172.473 139.639 172.453 139.513C172.433 139.387 172.408 139.261 172.384 139.139C172.36 139.013 172.332 138.892 172.303 138.766C172.275 138.644 172.246 138.518 172.214 138.396C172.182 138.275 172.149 138.149 172.117 138.027C172.085 137.905 172.048 137.783 172.012 137.658C171.975 137.54 171.939 137.418 171.898 137.296C171.858 137.179 171.817 137.057 171.777 136.939C171.732 136.817 171.692 136.7 171.643 136.582C171.599 136.464 171.55 136.346 171.502 136.229C171.453 136.111 171.404 135.993 171.352 135.88C171.299 135.762 171.247 135.648 171.194 135.534C171.141 135.421 171.085 135.307 171.028 135.193C170.971 135.08 170.915 134.966 170.854 134.857C170.793 134.747 170.732 134.633 170.672 134.524C170.611 134.414 170.546 134.304 170.481 134.195C170.417 134.085 170.352 133.976 170.283 133.87C170.214 133.765 170.149 133.659 170.077 133.553C170.004 133.444 169.935 133.342 169.862 133.237C169.789 133.131 169.716 133.03 169.639 132.928C169.566 132.827 169.485 132.725 169.409 132.624C169.332 132.522 169.251 132.425 169.17 132.323C169.089 132.226 169.008 132.128 168.923 132.031C168.838 131.934 168.753 131.836 168.668 131.743C168.583 131.649 168.494 131.552 168.409 131.463C168.319 131.369 168.23 131.276 168.137 131.187L159.506 122.495C159.486 122.471 159.461 122.438 159.437 122.406L159.008 121.687C158.996 121.663 158.98 121.626 158.963 121.59L158.688 120.717L158.64 120.405C158.64 120.376 158.631 120.34 158.627 120.299L158.607 119.901L158.688 119.077C158.692 119.049 158.7 119.012 158.708 118.976L158.959 118.204L159.36 117.486L159.854 116.897C159.903 116.848 159.955 116.8 160.008 116.751C160.065 116.702 160.117 116.654 160.174 116.609C160.231 116.564 160.287 116.52 160.348 116.475C160.405 116.434 160.461 116.394 160.522 116.353C160.583 116.313 160.644 116.276 160.704 116.239C160.765 116.203 160.826 116.17 160.891 116.138C160.951 116.106 161.016 116.073 161.081 116.045C161.142 116.016 161.206 115.988 161.271 115.963C161.332 115.939 161.397 115.915 161.461 115.89C161.526 115.866 161.595 115.846 161.66 115.825C161.725 115.805 161.789 115.789 161.858 115.773C161.923 115.756 161.992 115.74 162.061 115.728C162.125 115.716 162.194 115.704 162.263 115.695C162.328 115.687 162.397 115.679 162.465 115.671C162.534 115.663 162.599 115.659 162.668 115.655C162.737 115.655 162.809 115.655 162.874 115.651C162.943 115.651 163.008 115.651 163.077 115.655C163.146 115.655 163.214 115.663 163.283 115.671C163.348 115.679 163.417 115.687 163.486 115.695C163.554 115.704 163.619 115.716 163.688 115.732C163.753 115.744 163.822 115.76 163.886 115.777C163.955 115.793 164.02 115.813 164.085 115.829C164.154 115.85 164.218 115.87 164.283 115.894C164.348 115.919 164.413 115.943 164.477 115.967C164.542 115.992 164.607 116.02 164.668 116.053C164.728 116.081 164.789 116.114 164.85 116.146C164.915 116.183 164.975 116.215 165.036 116.252C165.097 116.288 165.154 116.325 165.214 116.365C165.275 116.406 165.332 116.447 165.388 116.487C165.445 116.532 165.502 116.572 165.554 116.617C165.611 116.666 165.668 116.714 165.72 116.763C165.769 116.808 165.826 116.861 165.878 116.913L170.975 122.114L171.056 95.4181L171.36 94.5128L171.813 93.7861L172.429 93.161C172.453 93.1407 172.485 93.1163 172.514 93.092L173.218 92.6617L173.914 92.414L174.769 92.2922H174.886L175.218 92.3044C175.287 92.3085 175.352 92.3166 175.412 92.3247C175.477 92.3328 175.542 92.345 175.603 92.3572C175.663 92.3694 175.728 92.3815 175.789 92.3978C175.85 92.414 175.91 92.4303 175.971 92.4465C176.032 92.4627 176.093 92.483 176.153 92.5074C176.214 92.5277 176.271 92.552 176.327 92.5764C176.384 92.6008 176.441 92.6251 176.497 92.6535C176.554 92.682 176.611 92.7104 176.663 92.7388C176.716 92.7672 176.769 92.7956 176.821 92.8281C176.874 92.8606 176.927 92.893 176.979 92.9296C177.028 92.9621 177.076 92.9945 177.125 93.0311C177.178 93.0717 177.23 93.1082 177.275 93.1488C177.319 93.1853 177.364 93.2219 177.408 93.2625C177.453 93.3031 177.497 93.3437 177.542 93.3843C177.59 93.433 177.631 93.4736 177.675 93.5182C177.716 93.5588 177.756 93.6075 177.797 93.6562C177.833 93.6968 177.874 93.7455 177.91 93.7983C177.943 93.8389 177.979 93.8876 178.016 93.9404C178.052 93.9932 178.084 94.0419 178.117 94.0947C178.149 94.1434 178.182 94.1962 178.21 94.2489C178.242 94.3058 178.271 94.3585 178.299 94.4113C178.327 94.4641 178.356 94.5209 178.38 94.5778C178.404 94.6305 178.433 94.6874 178.457 94.7483C178.477 94.801 178.501 94.8579 178.526 94.9188C178.546 94.9715 178.566 95.0324 178.586 95.0933C178.603 95.1461 178.623 95.207 178.639 95.2679C178.655 95.3247 178.671 95.3856 178.684 95.4465C178.696 95.5074 178.708 95.5642 178.72 95.6251C178.732 95.686 178.74 95.751 178.748 95.8119C178.756 95.8727 178.765 95.9377 178.769 96.0027C178.773 96.0635 178.781 96.1285 178.781 96.1935C178.781 96.2503 178.785 96.3152 178.785 96.3802V104.398L179.437 104.061L180.206 103.854L180.752 103.813C180.813 103.813 180.874 103.813 180.935 103.817C180.995 103.817 181.056 103.825 181.113 103.829C181.173 103.838 181.234 103.842 181.295 103.854C181.356 103.862 181.416 103.874 181.473 103.886C181.534 103.898 181.59 103.911 181.647 103.927C181.708 103.943 181.764 103.959 181.821 103.976C181.874 103.992 181.93 104.012 181.983 104.028C182.044 104.049 182.096 104.073 182.149 104.093C182.202 104.114 182.254 104.138 182.307 104.166C182.36 104.191 182.408 104.219 182.461 104.244C182.513 104.272 182.562 104.3 182.611 104.329C182.663 104.361 182.708 104.39 182.756 104.422C182.809 104.459 182.853 104.491 182.902 104.524C182.947 104.556 182.987 104.593 183.032 104.625C183.08 104.666 183.125 104.702 183.165 104.743C183.206 104.783 183.246 104.82 183.287 104.861C183.327 104.901 183.368 104.942 183.404 104.986C183.445 105.031 183.485 105.076 183.521 105.12C183.558 105.165 183.594 105.21 183.627 105.254C183.659 105.299 183.696 105.348 183.724 105.396C183.756 105.445 183.789 105.494 183.817 105.547C183.845 105.591 183.874 105.644 183.902 105.693C183.93 105.746 183.955 105.794 183.983 105.847C184.007 105.9 184.032 105.953 184.056 106.009C184.076 106.058 184.1 106.115 184.121 106.172C184.141 106.225 184.157 106.281 184.177 106.338C184.194 106.391 184.21 106.448 184.226 106.505C184.23 106.525 184.234 106.545 184.238 106.562L184.995 106.152L185.764 105.94L186.315 105.9C186.376 105.9 186.436 105.9 186.497 105.904C186.562 105.904 186.619 105.912 186.679 105.916C186.74 105.924 186.797 105.928 186.857 105.94C186.918 105.949 186.979 105.961 187.036 105.973C187.092 105.985 187.153 105.997 187.21 106.013C187.266 106.03 187.323 106.046 187.38 106.062C187.432 106.078 187.489 106.099 187.546 106.119C187.598 106.139 187.655 106.16 187.708 106.184C187.76 106.208 187.817 106.233 187.87 106.257C187.922 106.281 187.971 106.306 188.019 106.334C188.072 106.363 188.121 106.391 188.173 106.423C188.222 106.452 188.27 106.484 188.315 106.517C188.368 106.553 188.412 106.586 188.461 106.618C188.509 106.651 188.55 106.687 188.594 106.724C188.639 106.76 188.679 106.797 188.724 106.838C188.768 106.878 188.809 106.919 188.853 106.959C188.89 106.996 188.93 107.036 188.967 107.081C189.007 107.126 189.044 107.166 189.08 107.211C189.121 107.26 189.157 107.304 189.189 107.349C189.222 107.39 189.254 107.438 189.287 107.487C189.319 107.536 189.351 107.585 189.38 107.633C189.408 107.682 189.44 107.735 189.465 107.783C189.493 107.836 189.521 107.889 189.546 107.942C189.57 107.99 189.594 108.043 189.618 108.1C189.639 108.149 189.663 108.206 189.683 108.262C189.699 108.311 189.72 108.368 189.736 108.425C189.756 108.49 189.772 108.547 189.789 108.608C189.801 108.66 189.817 108.717 189.829 108.778C189.841 108.835 189.849 108.892 189.861 108.949L190.481 108.612L191.242 108.384L191.878 108.327C191.938 108.327 191.999 108.327 192.06 108.331C192.12 108.331 192.181 108.34 192.242 108.344C192.303 108.352 192.359 108.356 192.42 108.368C192.481 108.376 192.541 108.388 192.598 108.4C192.655 108.413 192.716 108.425 192.772 108.441C192.829 108.457 192.886 108.474 192.942 108.49C192.995 108.506 193.052 108.526 193.108 108.547C193.165 108.567 193.218 108.587 193.27 108.612C193.323 108.636 193.38 108.66 193.432 108.685C193.481 108.709 193.533 108.733 193.582 108.762C193.635 108.79 193.683 108.819 193.736 108.851C193.784 108.88 193.833 108.912 193.877 108.944C193.93 108.981 193.975 109.013 194.023 109.046C194.072 109.078 194.116 109.115 194.157 109.152C194.201 109.188 194.246 109.225 194.286 109.265C194.331 109.306 194.371 109.346 194.416 109.387C194.452 109.423 194.493 109.464 194.529 109.509C194.566 109.549 194.606 109.594 194.643 109.639C194.683 109.687 194.72 109.732 194.752 109.777C194.784 109.821 194.817 109.866 194.853 109.919C194.886 109.963 194.918 110.016 194.946 110.069C194.971 110.114 194.999 110.162 195.027 110.211C195.06 110.268 195.084 110.317 195.108 110.369C195.137 110.426 195.157 110.475 195.181 110.528C195.205 110.589 195.226 110.641 195.246 110.698C195.266 110.747 195.282 110.808 195.303 110.865C195.319 110.921 195.335 110.978 195.351 111.035C195.367 111.092 195.379 111.153 195.392 111.214C195.404 111.267 195.412 111.327 195.424 111.388C195.432 111.449 195.44 111.51 195.448 111.571C195.452 111.632 195.46 111.693 195.46 111.754C195.46 111.815 195.464 111.875 195.464 111.936V124.834C195.464 124.919 195.464 125.008 195.464 125.093L195.392 126.364L195.363 126.62C195.355 126.701 195.343 126.786 195.331 126.871L195.258 127.375C195.246 127.456 195.23 127.541 195.213 127.626C195.201 127.708 195.185 127.793 195.169 127.874L194.946 128.861C194.926 128.946 194.902 129.027 194.877 129.108L194.736 129.591C194.711 129.668 194.687 129.75 194.659 129.831L194.493 130.31C194.465 130.391 194.432 130.468 194.404 130.549C194.371 130.626 194.343 130.708 194.311 130.785C194.278 130.862 194.246 130.939 194.214 131.02L194.112 131.252C194.08 131.329 194.043 131.406 194.007 131.483L193.898 131.714C193.861 131.792 193.821 131.869 193.784 131.946C193.748 132.019 193.711 132.096 193.671 132.169L192.728 134.053L192.639 134.268C192.61 134.337 192.582 134.406 192.558 134.479C192.529 134.552 192.505 134.621 192.477 134.694C192.448 134.767 192.424 134.84 192.4 134.909C192.375 134.982 192.351 135.055 192.327 135.124L191.963 136.44L191.724 137.792L191.639 138.701C191.635 138.778 191.631 138.851 191.627 138.928L191.61 142.212C191.61 142.659 191.246 143.024 190.801 143.024L190.805 143ZM174.283 141.376H189.995L190.011 138.827C190.011 138.746 190.019 138.66 190.027 138.571L190.157 137.304L190.444 135.811L190.793 134.589C190.821 134.507 190.845 134.426 190.874 134.345C190.902 134.268 190.93 134.187 190.959 134.105C190.987 134.028 191.015 133.947 191.048 133.87C191.076 133.793 191.108 133.712 191.141 133.635L191.44 132.932C191.477 132.855 191.513 132.778 191.55 132.701L191.659 132.474C191.699 132.396 191.736 132.319 191.776 132.242C191.817 132.169 191.853 132.092 191.894 132.019C191.934 131.942 191.975 131.869 192.015 131.796L192.335 131.191C192.371 131.122 192.404 131.053 192.436 130.984L192.967 129.725L193.116 129.295C193.141 129.226 193.161 129.153 193.185 129.08L193.315 128.641C193.335 128.564 193.355 128.491 193.375 128.422L193.578 127.533C193.594 127.46 193.606 127.387 193.618 127.314C193.631 127.237 193.647 127.164 193.655 127.087L193.72 126.632C193.728 126.559 193.74 126.482 193.748 126.409L193.837 125.036C193.837 124.955 193.837 124.882 193.837 124.805V111.908C193.837 111.871 193.837 111.839 193.837 111.806C193.837 111.774 193.833 111.737 193.829 111.705C193.829 111.672 193.821 111.64 193.817 111.608C193.813 111.575 193.805 111.543 193.801 111.514C193.792 111.478 193.784 111.445 193.78 111.417C193.772 111.384 193.764 111.352 193.752 111.319C193.744 111.291 193.732 111.262 193.724 111.234C193.711 111.198 193.699 111.169 193.687 111.137C193.675 111.112 193.663 111.08 193.647 111.051C193.635 111.027 193.618 110.995 193.602 110.966C193.59 110.942 193.574 110.913 193.554 110.885C193.537 110.857 193.521 110.832 193.505 110.808C193.485 110.775 193.469 110.751 193.448 110.727C193.424 110.698 193.408 110.67 193.388 110.645C193.371 110.625 193.351 110.601 193.327 110.576C193.307 110.552 193.286 110.532 193.262 110.507C193.238 110.483 193.214 110.463 193.193 110.442C193.169 110.418 193.145 110.398 193.12 110.377C193.096 110.357 193.072 110.337 193.048 110.321C193.023 110.304 192.995 110.284 192.967 110.264C192.946 110.248 192.918 110.231 192.89 110.215C192.861 110.199 192.837 110.183 192.809 110.166C192.784 110.154 192.756 110.138 192.728 110.126C192.695 110.11 192.667 110.097 192.639 110.085C192.61 110.073 192.578 110.061 192.55 110.049C192.521 110.036 192.489 110.028 192.461 110.016C192.428 110.008 192.4 109.996 192.367 109.988C192.335 109.98 192.303 109.972 192.274 109.967C192.242 109.959 192.21 109.955 192.177 109.951C192.149 109.947 192.112 109.943 192.08 109.939C192.048 109.939 192.015 109.931 191.979 109.931C191.946 109.931 191.91 109.931 191.878 109.931L191.201 110.049C191.201 110.049 191.153 110.065 191.149 110.069L190.857 110.215L190.817 110.239L190.627 110.377C190.627 110.377 190.586 110.41 190.582 110.414L190.546 110.447C190.546 110.447 190.513 110.479 190.509 110.483L190.444 110.548C190.444 110.548 190.416 110.58 190.412 110.58L190.238 110.804C190.238 110.804 190.214 110.844 190.21 110.848C190.21 110.848 190.185 110.885 190.185 110.889C190.185 110.893 190.161 110.93 190.157 110.934L190.133 110.978L190.096 111.055C190.096 111.055 190.076 111.1 190.072 111.104L190.019 111.23C190.019 111.23 190.003 111.275 190.003 111.279C190.003 111.279 189.979 111.36 189.975 111.364C189.975 111.368 189.963 111.413 189.959 111.417L189.91 111.701C189.91 111.701 189.906 111.754 189.906 111.758V111.904C189.902 112.35 189.538 112.716 189.092 112.716C188.647 112.716 188.282 112.35 188.282 111.904V109.472C188.282 109.436 188.282 109.403 188.282 109.371C188.282 109.338 188.278 109.302 188.274 109.269C188.274 109.237 188.266 109.204 188.262 109.172C188.258 109.135 188.25 109.103 188.246 109.07C188.238 109.042 188.234 109.009 188.226 108.977C188.218 108.94 188.21 108.912 188.197 108.88C188.189 108.855 188.181 108.823 188.169 108.794C188.157 108.758 188.145 108.733 188.133 108.705C188.121 108.672 188.108 108.644 188.092 108.62C188.076 108.583 188.06 108.555 188.048 108.53C188.031 108.506 188.019 108.478 188.003 108.449C187.987 108.421 187.967 108.392 187.951 108.364C187.934 108.34 187.918 108.315 187.898 108.291C187.874 108.262 187.857 108.234 187.837 108.21C187.821 108.189 187.797 108.161 187.776 108.137C187.76 108.116 187.74 108.096 187.716 108.072C187.687 108.043 187.667 108.023 187.643 108.003C187.623 107.982 187.598 107.962 187.574 107.942C187.546 107.921 187.521 107.901 187.497 107.881C187.473 107.861 187.444 107.844 187.416 107.824C187.396 107.808 187.368 107.792 187.339 107.775C187.311 107.759 187.287 107.743 187.258 107.727C187.234 107.71 187.202 107.698 187.173 107.682C187.145 107.67 187.117 107.654 187.088 107.641C187.06 107.629 187.032 107.617 186.999 107.605C186.967 107.593 186.938 107.585 186.91 107.572C186.878 107.56 186.845 107.552 186.813 107.544C186.781 107.536 186.748 107.528 186.72 107.524C186.687 107.516 186.655 107.511 186.623 107.507C186.59 107.503 186.558 107.499 186.525 107.495C186.493 107.495 186.457 107.491 186.424 107.487C186.392 107.487 186.359 107.487 186.327 107.487L185.934 107.528C185.934 107.528 185.886 107.54 185.882 107.54L185.113 107.909L184.716 108.327C184.716 108.327 184.691 108.364 184.687 108.368L184.509 108.697L184.489 108.746L184.453 108.843C184.453 108.843 184.44 108.871 184.436 108.888C184.436 108.904 184.428 108.916 184.424 108.932L184.351 109.472C184.351 109.919 183.987 110.284 183.542 110.284C183.096 110.284 182.732 109.919 182.732 109.472V107.373C182.732 107.337 182.732 107.304 182.732 107.272C182.732 107.239 182.728 107.203 182.724 107.17C182.724 107.134 182.716 107.101 182.712 107.073C182.708 107.041 182.7 107.004 182.696 106.972L182.671 106.874C182.663 106.85 182.655 106.817 182.647 106.785C182.639 106.756 182.627 106.724 182.619 106.695C182.607 106.663 182.594 106.635 182.586 106.606C182.57 106.57 182.558 106.541 182.546 106.513C182.534 106.484 182.517 106.456 182.505 106.432C182.489 106.403 182.477 106.379 182.461 106.35C182.441 106.318 182.424 106.294 182.408 106.269C182.392 106.241 182.372 106.216 182.351 106.192C182.331 106.168 182.315 106.143 182.295 106.119C182.275 106.095 182.254 106.07 182.234 106.046C182.218 106.026 182.194 106.001 182.169 105.981C182.149 105.961 182.125 105.936 182.1 105.916C182.076 105.896 182.052 105.871 182.028 105.851C182.007 105.835 181.983 105.815 181.959 105.794C181.93 105.774 181.906 105.754 181.878 105.737C181.854 105.721 181.825 105.705 181.797 105.685C181.773 105.668 181.744 105.652 181.716 105.636C181.692 105.624 181.663 105.608 181.635 105.595C181.607 105.583 181.578 105.571 181.55 105.559C181.517 105.547 181.485 105.534 181.457 105.522C181.432 105.514 181.4 105.502 181.368 105.494C181.335 105.482 181.303 105.474 181.271 105.465C181.242 105.457 181.21 105.449 181.177 105.445C181.145 105.437 181.113 105.433 181.08 105.429C181.052 105.425 181.02 105.421 180.983 105.417C180.951 105.417 180.914 105.413 180.878 105.409C180.845 105.409 180.813 105.409 180.777 105.409L180.433 105.437C180.433 105.437 180.38 105.445 180.38 105.449L180.331 105.457L180.283 105.469L179.76 105.689C179.76 105.689 179.724 105.713 179.72 105.713L179.679 105.741C179.679 105.741 179.643 105.766 179.643 105.77L179.125 106.322C179.125 106.322 179.101 106.363 179.097 106.367L178.906 106.793L178.817 106.773V106.821L178.894 106.842L178.85 107.028L178.841 107.085L178.817 107.268V107.386C178.817 107.832 178.453 108.198 178.007 108.198C177.562 108.198 177.198 107.832 177.198 107.386V96.3558C177.198 96.3193 177.198 96.2787 177.198 96.2422C177.198 96.2016 177.198 96.165 177.19 96.1285C177.19 96.0838 177.182 96.0473 177.178 96.0108C177.173 95.9742 177.165 95.9377 177.161 95.9012C177.153 95.8646 177.145 95.824 177.137 95.7875C177.129 95.751 177.121 95.7185 177.109 95.682C177.097 95.6414 177.088 95.6048 177.076 95.5723C177.064 95.5317 177.052 95.4993 177.04 95.4627C177.024 95.4221 177.012 95.3897 176.999 95.3572C176.983 95.3166 176.967 95.2841 176.955 95.2557C176.939 95.2192 176.922 95.1867 176.902 95.1542C176.886 95.1217 176.866 95.0852 176.846 95.0527C176.829 95.0243 176.809 94.9918 176.789 94.9594C176.769 94.9269 176.748 94.8985 176.728 94.866C176.708 94.8376 176.688 94.8092 176.663 94.7807C176.639 94.7483 176.615 94.7198 176.595 94.6955C176.566 94.663 176.546 94.6387 176.522 94.6143C176.493 94.5859 176.469 94.5575 176.445 94.5331C176.425 94.5128 176.396 94.4884 176.368 94.46C176.344 94.4357 176.315 94.4113 176.287 94.391C176.259 94.3667 176.23 94.3464 176.202 94.3261C176.178 94.3098 176.145 94.2855 176.117 94.2652C176.088 94.2449 176.06 94.2286 176.028 94.2083C175.995 94.1921 175.967 94.1718 175.935 94.1556C175.902 94.1393 175.87 94.1231 175.837 94.1069C175.805 94.0906 175.773 94.0784 175.74 94.0663C175.708 94.0541 175.676 94.0419 175.639 94.0297C175.607 94.0175 175.574 94.0054 175.538 93.9972C175.506 93.9851 175.469 93.9769 175.433 93.9688C175.4 93.9607 175.364 93.9526 175.327 93.9445C175.291 93.9363 175.255 93.9323 175.218 93.9282C175.182 93.9242 175.145 93.9201 175.109 93.9161L174.91 93.9079L174.157 94.0338L173.477 94.4113L172.923 95.0527L172.663 95.7307L172.619 96.1935V124.087C172.619 124.415 172.421 124.712 172.117 124.838C171.813 124.963 171.465 124.89 171.234 124.655L164.753 118.038C164.72 118.005 164.692 117.977 164.66 117.944C164.623 117.912 164.591 117.884 164.558 117.855C164.526 117.827 164.49 117.798 164.453 117.77C164.421 117.746 164.384 117.721 164.348 117.697C164.311 117.672 164.275 117.648 164.239 117.628C164.202 117.603 164.162 117.583 164.125 117.563C164.093 117.547 164.052 117.526 164.012 117.506C163.971 117.486 163.935 117.47 163.894 117.453C163.854 117.437 163.814 117.421 163.773 117.409C163.733 117.392 163.692 117.38 163.652 117.368C163.615 117.356 163.571 117.344 163.53 117.336C163.49 117.327 163.449 117.315 163.409 117.307C163.368 117.299 163.324 117.291 163.283 117.287C163.243 117.279 163.202 117.275 163.158 117.271C163.113 117.267 163.069 117.262 163.028 117.262C162.988 117.262 162.935 117.262 162.895 117.262C162.854 117.262 162.818 117.262 162.777 117.262C162.737 117.262 162.692 117.267 162.652 117.271C162.611 117.271 162.571 117.279 162.526 117.287C162.482 117.295 162.441 117.299 162.401 117.307C162.36 117.315 162.32 117.323 162.279 117.336C162.239 117.344 162.198 117.356 162.158 117.368C162.113 117.38 162.077 117.392 162.036 117.409C161.996 117.421 161.955 117.437 161.915 117.453C161.874 117.47 161.838 117.486 161.797 117.502C161.757 117.522 161.716 117.539 161.68 117.559C161.639 117.579 161.603 117.599 161.563 117.624C161.522 117.648 161.486 117.668 161.449 117.693C161.417 117.717 161.38 117.741 161.344 117.766C161.308 117.794 161.271 117.819 161.239 117.847C161.202 117.875 161.17 117.908 161.133 117.936C161.101 117.965 161.069 117.997 161.036 118.03L160.542 118.716L160.295 119.507L160.267 119.889L160.397 120.689L160.781 121.432L161.052 121.748L169.319 130.03C169.421 130.131 169.518 130.233 169.619 130.334C169.716 130.436 169.813 130.541 169.906 130.647C170 130.752 170.097 130.858 170.186 130.963C170.279 131.069 170.368 131.179 170.457 131.288C170.546 131.398 170.635 131.507 170.72 131.617C170.805 131.727 170.89 131.84 170.975 131.95C171.06 132.064 171.141 132.177 171.222 132.291C171.303 132.409 171.384 132.522 171.461 132.64C171.538 132.754 171.615 132.871 171.688 132.993C171.761 133.111 171.838 133.233 171.906 133.35C171.979 133.472 172.048 133.59 172.117 133.712C172.186 133.834 172.251 133.955 172.319 134.077C172.384 134.203 172.449 134.325 172.514 134.451C172.578 134.576 172.639 134.702 172.696 134.828C172.757 134.958 172.813 135.084 172.87 135.21C172.927 135.34 172.983 135.465 173.036 135.595C173.089 135.721 173.141 135.855 173.19 135.985C173.238 136.115 173.287 136.245 173.336 136.379C173.384 136.509 173.429 136.643 173.473 136.773C173.518 136.907 173.558 137.041 173.599 137.175C173.639 137.308 173.68 137.442 173.716 137.58C173.753 137.714 173.789 137.852 173.821 137.986C173.854 138.12 173.886 138.258 173.919 138.392C173.951 138.53 173.979 138.668 174.008 138.806C174.036 138.944 174.06 139.082 174.084 139.221C174.109 139.359 174.129 139.497 174.153 139.639C174.174 139.777 174.194 139.919 174.21 140.057C174.226 140.195 174.242 140.337 174.259 140.479C174.271 140.621 174.283 140.763 174.295 140.905C174.307 141.047 174.315 141.189 174.319 141.327C174.319 141.34 174.319 141.356 174.319 141.368L174.283 141.376Z" fill="#013F71"/>
<path d="M177.979 119.512C177.534 119.512 177.169 119.146 177.169 118.7V106.761C177.169 106.314 177.534 105.949 177.979 105.949C178.424 105.949 178.789 106.314 178.789 106.761V118.7C178.789 119.146 178.424 119.512 177.979 119.512Z" fill="#013F71"/>
<path d="M183.53 120.75C183.084 120.75 182.72 120.384 182.72 119.938V107.999C182.72 107.552 183.084 107.187 183.53 107.187C183.975 107.187 184.339 107.552 184.339 107.999V119.938C184.339 120.384 183.975 120.75 183.53 120.75Z" fill="#013F71"/>
<path d="M189.092 121.988C188.647 121.988 188.282 121.622 188.282 121.176V109.237C188.282 108.79 188.647 108.425 189.092 108.425C189.537 108.425 189.902 108.79 189.902 109.237V121.176C189.902 121.622 189.537 121.988 189.092 121.988Z" fill="#013F71"/>
<path d="M231.31 45.7009H124.377C113.202 45.7009 104.143 54.7849 104.143 65.9905V66.7172C104.143 77.9228 113.202 87.0067 124.377 87.0067H231.31C242.485 87.0067 251.544 77.9228 251.544 66.7172V65.9905C251.544 54.7849 242.485 45.7009 231.31 45.7009Z" fill="#5340E2"/>
<path d="M231.31 87.8186H124.377C112.774 87.8186 103.333 78.3518 103.333 66.7172V65.9946C103.333 54.3599 112.774 44.8931 124.377 44.8931H231.306C242.909 44.8931 252.35 54.3599 252.35 65.9946V66.7172C252.35 78.3518 242.909 87.8186 231.306 87.8186H231.31ZM124.377 46.5128C113.665 46.5128 104.953 55.253 104.953 65.9905V66.7131C104.953 77.4546 113.669 86.1908 124.377 86.1908H231.306C242.018 86.1908 250.73 77.4506 250.73 66.7131V65.9905C250.73 55.249 242.014 46.5128 231.306 46.5128H124.377Z" fill="#013F71"/>
<path d="M244.16 42.6766C243.682 42.6766 243.281 42.3031 243.245 41.8241C242.751 34.7686 240.528 31.4682 235.804 30.7862C235.334 30.7172 234.982 30.3112 234.982 29.8363C234.982 29.3613 235.334 28.9553 235.799 28.8863C240.524 28.2043 242.747 24.9039 243.241 17.8525C243.273 17.3735 243.678 17 244.156 17C244.633 17 245.034 17.3735 245.07 17.8525C245.564 24.908 247.787 28.2043 252.512 28.8863C252.981 28.9553 253.333 29.3654 253.333 29.8363C253.333 30.3072 252.981 30.7172 252.512 30.7862C247.791 31.4682 245.564 34.7686 245.07 41.82C245.038 42.2991 244.633 42.6725 244.156 42.6725L244.16 42.6766ZM238.573 29.8403C241.399 30.9648 243.212 33.2909 244.16 37.0257C245.107 33.2909 246.921 30.9648 249.746 29.8403C246.921 28.7158 245.107 26.3897 244.16 22.6549C243.212 26.3897 241.399 28.7158 238.573 29.8403Z" fill="#013F71"/>
<path d="M113.851 120.612C113.374 120.612 112.973 120.238 112.936 119.759C112.442 112.704 110.22 109.407 105.495 108.721C105.026 108.652 104.673 108.246 104.673 107.771C104.673 107.296 105.026 106.89 105.495 106.821C110.216 106.139 112.442 102.839 112.936 95.7876C112.969 95.3085 113.374 94.9351 113.851 94.9351C114.329 94.9351 114.73 95.3085 114.762 95.7876C115.256 102.843 117.483 106.143 122.203 106.825C122.673 106.894 123.025 107.3 123.025 107.775C123.025 108.25 122.673 108.656 122.203 108.725C117.483 109.407 115.256 112.708 114.762 119.759C114.73 120.238 114.325 120.612 113.851 120.612ZM108.264 107.771C111.09 108.896 112.904 111.222 113.851 114.957C114.799 111.222 116.612 108.896 119.438 107.771C116.612 106.647 114.799 104.321 113.851 100.586C112.904 104.321 111.09 106.647 108.264 107.771Z" fill="#013F71"/>
<path d="M147.964 72.4574L152.166 60.3438H154.514L158.716 72.4574H156.109L155.372 70.1557H151.328L150.591 72.4574H147.964ZM151.976 68.0853H154.709L153.344 63.8187L151.98 68.0853H151.976Z" fill="white"/>
<path d="M166.542 64.0988C166.315 62.9581 165.647 62.2558 164.457 62.2558C163.04 62.2558 162.287 63.2219 162.287 65.5399V67.2612C162.287 69.5102 163.04 70.5453 164.457 70.5453C165.684 70.5453 166.279 69.9324 166.542 68.7023H168.87C168.469 71.4222 166.943 72.6198 164.457 72.6198C161.745 72.6198 159.834 70.9675 159.834 67.2652V65.544C159.834 61.8052 161.741 60.1895 164.457 60.1895C166.858 60.1895 168.485 61.452 168.886 64.1069H166.538L166.542 64.0988Z" fill="white"/>
<path d="M179.113 60.3396V62.4303H175.785V72.4573H173.332V62.4303H170.004V60.3396H179.109H179.113Z" fill="white"/>
<path d="M183.768 72.4574H181.315V60.3438H183.768V72.4574Z" fill="white"/>
<path d="M191.282 72.6157C188.57 72.6157 186.659 70.9635 186.659 67.2612V65.54C186.659 61.8011 188.566 60.1854 191.282 60.1854C193.999 60.1854 195.922 61.8011 195.922 65.54V67.2612C195.922 70.9676 194.015 72.6157 191.282 72.6157ZM189.108 67.2612C189.108 69.5792 189.861 70.5454 191.278 70.5454C192.695 70.5454 193.469 69.5792 193.469 67.2612V65.54C193.469 63.222 192.699 62.2558 191.278 62.2558C189.857 62.2558 189.108 63.222 189.108 65.54V67.2612Z" fill="white"/>
<path d="M207.723 60.3396V72.4533H205.675L200.966 64.9553V72.4533H198.639V60.3396H200.671L205.399 67.9431V60.3396H207.727H207.723Z" fill="white"/>
</g>
<defs>
<clipPath id="clip0_9_1576">
<rect width="150" height="126" fill="white" transform="translate(103.333 17)"/>
</clipPath>
</defs>
</svg>
