<svg width="357" height="160" viewBox="0 0 357 160" fill="none" xmlns="http://www.w3.org/2000/svg">
<g clip-path="url(#clip0_9_1681)">
<path d="M230.461 126.07H126.166C123.306 126.07 120.98 123.588 120.98 120.54V50.6492H235.65V120.536C235.65 123.584 233.324 126.066 230.465 126.066L230.461 126.07ZM122.423 52.092V120.536C122.423 122.791 124.103 124.623 126.166 124.623H230.461C232.527 124.623 234.204 122.791 234.204 120.536V52.092H122.423Z" fill="#013F71"/>
<path d="M235.647 52.0919H120.98V43.9291C120.98 41.5412 123.306 39.6006 126.166 39.6006H230.461C233.321 39.6006 235.647 41.5412 235.647 43.9291V52.0919ZM122.423 50.6491H234.208V43.9291C234.208 42.3384 232.527 41.0434 230.465 41.0434H126.166C124.1 41.0434 122.423 42.3384 122.423 43.9291V50.6491Z" fill="#013F71"/>
<path d="M128.914 48.0122C130.151 48.0122 131.153 47.0093 131.153 45.7722C131.153 44.5351 130.151 43.5322 128.914 43.5322C127.677 43.5322 126.674 44.5351 126.674 45.7722C126.674 47.0093 127.677 48.0122 128.914 48.0122Z" fill="#5340E2"/>
<path d="M136.303 48.0122C137.54 48.0122 138.542 47.0093 138.542 45.7722C138.542 44.5351 137.54 43.5322 136.303 43.5322C135.066 43.5322 134.064 44.5351 134.064 45.7722C134.064 47.0093 135.066 48.0122 136.303 48.0122Z" fill="#5340E2"/>
<path d="M143.692 48.0122C144.929 48.0122 145.932 47.0093 145.932 45.7722C145.932 44.5351 144.929 43.5322 143.692 43.5322C142.455 43.5322 141.453 44.5351 141.453 45.7722C141.453 47.0093 142.455 48.0122 143.692 48.0122Z" fill="#5340E2"/>
<path d="M140.27 102.375L138.24 98.9877L134.522 100.312L139.877 85.3782L145.625 87.4378L140.27 102.375Z" fill="white"/>
<path d="M140.432 104.052L137.922 99.8677L133.324 101.505L139.437 84.4583L146.541 87.0085L140.429 104.056L140.432 104.052ZM138.553 98.1111L140.104 100.697L144.702 87.8778L140.313 86.3015L135.715 99.1211L138.553 98.1111Z" fill="#013F71"/>
<path d="M147.832 102.375L149.859 98.9877L153.577 100.312L148.222 85.3782L142.477 87.4378L147.832 102.375Z" fill="white"/>
<path d="M147.666 104.052L141.554 87.005L148.658 84.4548L154.77 101.502L150.172 99.8643L147.663 104.049L147.666 104.052ZM143.4 87.8744L147.998 100.694L149.549 98.1077L152.387 99.1176L147.789 86.2981L143.4 87.8744Z" fill="#013F71"/>
<path d="M155.012 83.928C155.225 84.2563 155.326 84.6242 155.326 84.9885C155.326 85.6486 154.994 86.2943 154.388 86.6622C153.8 87.0193 153.451 87.6577 153.451 88.3323C153.451 88.4116 153.458 88.4946 153.465 88.5775C153.476 88.6605 153.479 88.7435 153.479 88.8228C153.479 89.8148 152.729 90.6697 151.716 90.7707C151.334 90.8067 150.977 90.9582 150.688 91.1891C150.4 91.4199 150.176 91.7301 150.053 92.0981C149.776 92.9205 149.015 93.4327 148.196 93.4327C147.973 93.4327 147.746 93.3966 147.526 93.3137C147.417 93.274 147.306 93.2451 147.194 93.2271C147.082 93.2054 146.97 93.1982 146.855 93.1982C146.335 93.1982 145.827 93.4038 145.452 93.7898C145.07 94.183 144.558 94.3814 144.049 94.3814C143.541 94.3814 143.029 94.183 142.646 93.7898C142.271 93.4038 141.763 93.1982 141.244 93.1982C141.02 93.1982 140.793 93.2379 140.573 93.3173C140.353 93.3966 140.126 93.4363 139.902 93.4363C139.087 93.4363 138.323 92.9205 138.045 92.1017C137.922 91.7338 137.699 91.4235 137.41 91.1927C137.122 90.9618 136.765 90.8103 136.382 90.7743C135.369 90.6733 134.619 89.8184 134.619 88.8264C134.619 88.7471 134.623 88.6641 134.633 88.5812C134.644 88.4982 134.648 88.4188 134.648 88.3359C134.648 87.6614 134.298 87.0229 133.71 86.6658C133.104 86.2943 132.773 85.6486 132.773 84.9921C132.773 84.6278 132.874 84.2599 133.086 83.9316C133.295 83.607 133.4 83.2391 133.4 82.8675C133.4 82.496 133.295 82.1281 133.086 81.8034C132.874 81.4752 132.773 81.1073 132.773 80.743C132.773 80.0829 133.104 79.4408 133.71 79.0693C134.298 78.7122 134.648 78.0737 134.648 77.3956C134.648 77.3162 134.641 77.2333 134.633 77.1503C134.623 77.0673 134.619 76.9844 134.619 76.905C134.619 75.9131 135.369 75.0582 136.382 74.9572C136.765 74.9175 137.122 74.7696 137.41 74.5388C137.699 74.3079 137.922 73.9977 138.045 73.6334C138.323 72.811 139.087 72.2952 139.902 72.2952C140.126 72.2952 140.349 72.3312 140.573 72.4142C140.789 72.4935 141.016 72.5332 141.244 72.5332C141.763 72.5332 142.271 72.3276 142.646 71.9417C143.029 71.5485 143.541 71.3501 144.049 71.3501C144.558 71.3501 145.07 71.5485 145.452 71.9417C145.989 72.4935 146.801 72.6811 147.526 72.4142C147.746 72.3348 147.973 72.2952 148.196 72.2952C149.011 72.2952 149.779 72.811 150.053 73.6334C150.176 74.0013 150.4 74.3115 150.688 74.5388C150.977 74.7696 151.334 74.9175 151.716 74.9572C152.729 75.0582 153.479 75.9131 153.479 76.905C153.479 76.9844 153.476 77.0673 153.465 77.1503C153.454 77.2333 153.451 77.3126 153.451 77.3956C153.451 78.0701 153.8 78.7086 154.388 79.0693C154.994 79.4408 155.326 80.0829 155.326 80.743C155.326 81.1073 155.225 81.4752 155.012 81.8034C154.803 82.1281 154.698 82.4996 154.698 82.8675C154.698 83.0731 154.731 83.2751 154.796 83.4735C154.846 83.6322 154.918 83.7873 155.012 83.9316V83.928Z" fill="#5340E2"/>
<path d="M144.049 95.1065C143.317 95.1065 142.636 94.818 142.131 94.2949C141.799 93.9559 141.276 93.8296 140.822 93.9956C140.53 94.1038 140.219 94.1579 139.906 94.1579C138.755 94.1579 137.731 93.422 137.367 92.3327C137.291 92.1055 137.154 91.9071 136.967 91.7556C136.779 91.6041 136.555 91.5139 136.321 91.4922C134.943 91.3552 133.905 90.2081 133.905 88.8266C133.905 88.7148 133.912 88.5994 133.927 88.4839C133.93 88.4443 133.934 88.3902 133.934 88.336C133.934 87.9068 133.707 87.5028 133.342 87.2792C132.538 86.7886 132.059 85.9301 132.059 84.9887C132.059 84.4729 132.206 83.9715 132.488 83.535C132.617 83.333 132.686 83.1022 132.686 82.8605C132.686 82.6188 132.617 82.388 132.488 82.1896C132.206 81.7531 132.059 81.2517 132.059 80.7359C132.059 79.7945 132.538 78.936 133.342 78.4454C133.707 78.2218 133.934 77.8178 133.934 77.3885C133.934 77.3344 133.93 77.2803 133.923 77.2262C133.909 77.1288 133.905 77.0134 133.905 76.898C133.905 75.5165 134.943 74.3694 136.317 74.2323C136.555 74.2071 136.779 74.1169 136.967 73.969C137.154 73.8211 137.291 73.6227 137.367 73.3991C137.735 72.3025 138.759 71.5703 139.909 71.5703C140.223 71.5703 140.533 71.6244 140.829 71.7326C141.265 71.8949 141.802 71.7759 142.138 71.4332C142.643 70.9102 143.328 70.6252 144.056 70.6252C144.785 70.6252 145.47 70.9138 145.975 71.4368C146.314 71.7831 146.826 71.9022 147.284 71.7362C147.58 71.628 147.886 71.5739 148.204 71.5739C149.357 71.5739 150.378 72.3098 150.746 73.4027C150.822 73.6299 150.959 73.8283 151.146 73.9726C151.334 74.1241 151.561 74.2143 151.799 74.2395C153.173 74.3766 154.211 75.5237 154.211 76.9052C154.211 77.017 154.204 77.1324 154.19 77.2479C154.186 77.2875 154.183 77.3416 154.183 77.3957C154.183 77.825 154.41 78.2326 154.774 78.4526C155.578 78.9432 156.058 79.7981 156.058 80.7431C156.058 81.2589 155.91 81.7603 155.629 82.1968C155.499 82.3952 155.43 82.6296 155.43 82.8677C155.43 82.9976 155.452 83.1274 155.492 83.2537C155.524 83.3547 155.571 83.452 155.629 83.5422C155.91 83.9787 156.058 84.4801 156.058 84.9959C156.058 85.9409 155.578 86.7958 154.774 87.2864C154.41 87.51 154.183 87.914 154.183 88.3433C154.183 88.3974 154.186 88.4515 154.193 88.5056C154.208 88.603 154.211 88.7184 154.211 88.8338C154.211 90.2153 153.173 91.3624 151.799 91.4995C151.561 91.5211 151.337 91.6149 151.15 91.7628C150.962 91.9107 150.825 92.1091 150.749 92.3363C150.382 93.4293 149.361 94.1651 148.207 94.1651C147.89 94.1651 147.583 94.111 147.288 94.0028C147.219 93.9775 147.15 93.9595 147.086 93.9487C147.006 93.9342 146.938 93.927 146.866 93.927C146.534 93.927 146.213 94.0641 145.978 94.3022C145.474 94.8252 144.788 95.1102 144.06 95.1102L144.049 95.1065ZM141.244 92.4806C141.961 92.4806 142.661 92.7764 143.162 93.2886C143.631 93.7719 144.467 93.7683 144.933 93.2886C145.434 92.7728 146.134 92.477 146.851 92.477C147.01 92.477 147.169 92.4914 147.32 92.5203C147.461 92.5419 147.616 92.5852 147.767 92.6393C147.904 92.6898 148.048 92.715 148.193 92.715C148.726 92.715 149.195 92.376 149.365 91.871C149.527 91.3804 149.826 90.9512 150.234 90.6265C150.641 90.3019 151.128 90.1035 151.64 90.053C152.275 89.9881 152.755 89.4615 152.755 88.823C152.755 88.7761 152.755 88.7256 152.747 88.6751C152.733 88.5489 152.726 88.4406 152.726 88.3324C152.726 87.4054 153.216 86.5289 154.009 86.0455C154.381 85.8183 154.605 85.4215 154.605 84.9851C154.605 84.747 154.536 84.5161 154.406 84.3141C154.276 84.1157 154.175 83.9029 154.107 83.6829C154.02 83.4196 153.977 83.1418 153.977 82.8569C153.977 82.3375 154.125 81.8325 154.406 81.3996C154.536 81.2012 154.605 80.9704 154.605 80.7323C154.605 80.2958 154.385 79.9027 154.013 79.6754C153.223 79.1921 152.729 78.3156 152.729 77.3849C152.729 77.2767 152.736 77.1685 152.747 77.0603C152.755 76.9954 152.758 76.9449 152.758 76.8944C152.758 76.2559 152.279 75.7293 151.644 75.6643C151.128 75.6102 150.641 75.4119 150.237 75.0908C149.834 74.7698 149.534 74.3405 149.368 73.8464C149.199 73.3414 148.726 73.0023 148.193 73.0023C148.048 73.0023 147.904 73.0276 147.771 73.0781C146.786 73.4388 145.672 73.1863 144.933 72.4324C144.464 71.949 143.627 71.9527 143.162 72.4324C142.661 72.9482 141.961 73.244 141.244 73.244C140.926 73.244 140.616 73.1899 140.324 73.0817C140.191 73.0348 140.05 73.0095 139.906 73.0095C139.372 73.0095 138.899 73.3486 138.73 73.8536C138.568 74.3441 138.265 74.7734 137.861 75.0944C137.461 75.4155 136.974 75.6138 136.462 75.6643C135.823 75.7293 135.344 76.2559 135.344 76.8944C135.344 76.9413 135.344 76.9918 135.351 77.0423C135.365 77.1685 135.373 77.2767 135.373 77.3849C135.373 78.3156 134.882 79.1921 134.089 79.6754C133.717 79.9027 133.494 80.2958 133.494 80.7323C133.494 80.9704 133.562 81.2012 133.692 81.4032C133.973 81.8325 134.121 82.3375 134.121 82.8569C134.121 83.3763 133.973 83.8813 133.692 84.3141C133.562 84.5125 133.494 84.747 133.494 84.9815C133.494 85.4179 133.717 85.8147 134.089 86.0419C134.879 86.5253 135.373 87.4018 135.373 88.3288C135.373 88.437 135.365 88.5453 135.355 88.6535C135.347 88.7184 135.344 88.7689 135.344 88.8194C135.344 89.4578 135.823 89.9845 136.458 90.0494C136.97 90.0999 137.457 90.2983 137.865 90.6229C138.268 90.9476 138.571 91.3768 138.734 91.8674C138.903 92.3688 139.376 92.7078 139.906 92.7078C140.053 92.7078 140.194 92.6826 140.331 92.6321C140.63 92.5239 140.937 92.4698 141.251 92.4698L141.244 92.4806Z" fill="#013F71"/>
<path d="M149.848 78.5246C149.372 78.0484 148.6 78.0484 148.121 78.5246L142.03 84.617L139.696 82.2832C139.22 81.807 138.449 81.807 137.969 82.2832C137.493 82.7593 137.493 83.5312 137.969 84.011L141.164 87.2068C141.402 87.4449 141.716 87.5639 142.026 87.5639C142.336 87.5639 142.65 87.4449 142.888 87.2068L149.841 80.2524C150.317 79.7762 150.317 79.0043 149.841 78.5246H149.848Z" fill="white"/>
<path d="M162.989 80.9775L165.459 88.5741L167.929 80.9775H170.436L166.505 92.2749H164.424L160.479 80.9775H162.985H162.989Z" fill="#E86207"/>
<path d="M176.92 91.0305C176.346 92.0297 175.398 92.4228 173.923 92.4228C171.467 92.4228 170.288 90.8357 170.288 88.722V87.6074C170.288 85.1365 171.532 83.939 173.66 83.939C175.968 83.939 177.031 85.2808 177.031 87.7697V88.7039H172.365C172.383 89.8329 172.74 90.6518 173.905 90.6518C174.774 90.6518 175.052 90.3884 175.362 89.9484L176.916 91.0305H176.92ZM172.369 87.2142H174.94C174.889 86.1501 174.464 85.7064 173.678 85.7064C172.841 85.7064 172.452 86.28 172.369 87.2142Z" fill="#E86207"/>
<path d="M182.978 86.363C182.765 86.0528 182.47 85.7426 181.947 85.7426C181.161 85.7426 180.638 86.3161 180.638 87.4631V92.2786H178.542V84.0905H180.587V84.7795C180.865 84.3719 181.406 83.9426 182.372 83.9426C183.339 83.9426 184.092 84.3683 184.583 85.2195L182.978 86.3666V86.363Z" fill="#E86207"/>
<path d="M185.744 80.9775H188.002V83.0083H185.744V80.9775ZM185.827 84.0869H187.922V92.2749H185.827V84.0869Z" fill="#E86207"/>
<path d="M190.605 84.0868V83.6431C190.605 81.5294 191.424 80.9739 193.404 80.9739H194.009V82.8063H193.616C192.848 82.8063 192.682 83.149 192.682 83.9678V84.0832H194.009V85.8507H192.682V92.2677H190.602V85.8507H189.552V84.0832H190.602L190.605 84.0868Z" fill="#E86207"/>
<path d="M195.42 80.9775H197.677V83.0083H195.42V80.9775ZM195.499 84.0869H197.594V92.2749H195.499V84.0869Z" fill="#E86207"/>
<path d="M205.845 91.0305C205.272 92.0297 204.323 92.4228 202.848 92.4228C200.392 92.4228 199.213 90.8357 199.213 88.722V87.6074C199.213 85.1365 200.457 83.939 202.585 83.939C204.893 83.939 205.957 85.2808 205.957 87.7697V88.7039H201.29C201.308 89.8329 201.665 90.6518 202.83 90.6518C203.699 90.6518 203.977 90.3884 204.287 89.9484L205.841 91.0305H205.845ZM201.294 87.2142H203.865C203.815 86.1501 203.389 85.7064 202.603 85.7064C201.77 85.7064 201.377 86.28 201.294 87.2142Z" fill="#E86207"/>
<path d="M212.163 80.9775H214.244V92.2749H212.163V91.7987C211.738 92.1919 211.182 92.4192 210.411 92.4192C208.265 92.4192 207.169 90.897 207.169 88.7183V87.6037C207.169 85.2122 208.463 83.9353 210.411 83.9353C211.114 83.9353 211.705 84.1157 212.163 84.5088V80.9739V80.9775ZM212.163 88.592V87.5604C212.163 86.3665 211.687 85.71 210.706 85.71C209.675 85.71 209.249 86.4314 209.249 87.7408V88.592C209.249 89.7716 209.577 90.6553 210.706 90.6553C211.835 90.6553 212.163 89.7716 212.163 88.592Z" fill="#E86207"/>
<path d="M240.292 39.9434C239.866 39.9434 239.509 39.6116 239.48 39.1859C239.047 33.0358 237.104 30.161 232.982 29.5658C232.567 29.5045 232.253 29.1438 232.253 28.7254C232.253 28.3069 232.567 27.9426 232.982 27.8849C237.107 27.2897 239.051 24.4113 239.48 18.2648C239.509 17.8392 239.866 17.5073 240.292 17.5073C240.717 17.5073 241.074 17.8392 241.103 18.2648C241.536 24.4149 243.479 27.2934 247.601 27.8885C248.016 27.9498 248.33 28.3105 248.33 28.729C248.33 29.1474 248.016 29.5117 247.601 29.5694C243.476 30.1646 241.532 33.043 241.103 39.1895C241.07 39.6152 240.717 39.947 240.292 39.947V39.9434ZM235.438 28.7218C237.886 29.7065 239.462 31.7192 240.292 34.944C241.121 31.7192 242.697 29.7065 245.145 28.7218C242.697 27.737 241.121 25.7243 240.292 22.4995C239.462 25.7243 237.886 27.737 235.438 28.7218Z" fill="#013F71"/>
<path d="M116.375 142.5C115.95 142.5 115.593 142.168 115.564 141.743C115.131 135.592 113.187 132.714 109.065 132.119C108.651 132.057 108.337 131.697 108.337 131.278C108.337 130.86 108.651 130.496 109.065 130.438C113.191 129.843 115.135 126.964 115.564 120.818C115.596 120.392 115.95 120.06 116.375 120.06C116.801 120.06 117.158 120.392 117.187 120.818C117.619 126.968 119.563 129.846 123.685 130.438C124.1 130.499 124.413 130.86 124.413 131.278C124.413 131.697 124.1 132.061 123.685 132.119C119.559 132.714 117.616 135.589 117.187 141.739C117.158 142.165 116.801 142.496 116.375 142.496V142.5ZM111.521 131.282C113.97 132.267 115.546 134.279 116.375 137.504C117.208 134.279 118.78 132.267 121.229 131.282C118.78 130.297 117.205 128.284 116.375 125.06C115.546 128.284 113.97 130.297 111.521 131.282Z" fill="#013F71"/>
</g>
<defs>
<clipPath id="clip0_9_1681">
<rect width="140" height="125" fill="white" transform="translate(108.333 17.5)"/>
</clipPath>
</defs>
</svg>
