<svg width="357" height="160" viewBox="0 0 357 160" fill="none" xmlns="http://www.w3.org/2000/svg">
<g clip-path="url(#clip0_9_1725)">
<path d="M203.258 39.9171L185.03 11.066C184.805 10.7134 184.289 10.7134 184.068 11.066L165.84 39.9171L181.885 50.7723C183.495 51.8623 185.603 51.8623 187.213 50.7723L203.258 39.9171Z" fill="#E86207"/>
<path d="M184.549 52.3951C183.463 52.3951 182.382 52.0745 181.436 51.4334L164.746 40.1414L183.391 10.6371C183.644 10.2364 184.076 10 184.549 10C185.022 10 185.454 10.2404 185.707 10.6371L204.348 40.1454L187.658 51.4374C186.712 52.0785 185.627 52.3991 184.545 52.3991L184.549 52.3951ZM166.93 39.6886L182.33 50.111C183.676 51.0207 185.414 51.0207 186.76 50.111L202.16 39.6886L184.549 11.8032L166.934 39.6846L166.93 39.6886Z" fill="#013F71"/>
<path d="M184.549 84.9288C183.463 84.9288 182.382 84.6083 181.436 83.9671L150.348 62.9339L165.604 38.7871L182.334 50.1072C183.68 51.0168 185.418 51.0168 186.764 50.1072L203.494 38.7871L218.75 62.9339L187.662 83.9671C186.716 84.6083 185.631 84.9288 184.549 84.9288ZM152.531 62.4811L182.334 82.6448C183.68 83.5544 185.418 83.5544 186.764 82.6448L216.566 62.4811L203.022 41.0431L187.662 51.4375C185.771 52.7158 183.327 52.7158 181.436 51.4375L166.076 41.0431L152.531 62.4811Z" fill="#013F71"/>
<path d="M137.039 85.4978L123.25 107.324C122.91 107.861 123.058 108.575 123.587 108.931L181.885 148.377C183.495 149.467 185.603 149.467 187.213 148.377L245.511 108.931C246.04 108.575 246.188 107.865 245.848 107.324L232.058 85.4978L187.213 115.84C185.603 116.929 183.495 116.929 181.885 115.84L137.039 85.4978Z" fill="#5340E2"/>
<path d="M184.549 150C183.463 150 182.382 149.679 181.436 149.042L123.138 109.596C122.249 108.995 122 107.809 122.573 106.9L136.803 84.3757L182.334 115.182C183.68 116.092 185.418 116.092 186.764 115.182L232.295 84.3757L246.525 106.9C247.098 107.809 246.853 108.995 245.96 109.596L187.662 149.042C186.716 149.683 185.631 150 184.549 150ZM137.276 86.6277L123.927 107.753C123.819 107.925 123.863 108.154 124.035 108.266L182.334 147.712C183.68 148.622 185.418 148.622 186.764 147.712L245.063 108.266C245.231 108.15 245.279 107.925 245.171 107.753L231.822 86.6277L187.662 116.505C185.771 117.783 183.327 117.783 181.436 116.505L137.276 86.6277Z" fill="#013F71"/>
<path d="M184.549 117.466C183.463 117.466 182.382 117.146 181.436 116.509L135.95 85.7303L151.205 61.5835L182.333 82.6448C183.68 83.5544 185.418 83.5544 186.764 82.6448L217.893 61.5835L233.148 85.7303L187.662 116.509C186.716 117.15 185.631 117.466 184.549 117.466ZM138.133 85.2695L182.333 115.174C183.68 116.084 185.418 116.084 186.764 115.174L230.965 85.2695L217.42 63.8355L187.662 83.9712C185.771 85.2494 183.327 85.2494 181.436 83.9712L151.678 63.8355L138.133 85.2695Z" fill="#013F71"/>
<path d="M185.35 11.1299H183.748V149.615H185.35V11.1299Z" fill="#013F71"/>
<path d="M177.963 26.3008H176.761C176.32 26.3008 175.96 25.9402 175.96 25.4994C175.96 25.0586 176.32 24.698 176.761 24.698H177.963C178.403 24.698 178.764 25.0586 178.764 25.4994C178.764 25.9402 178.403 26.3008 177.963 26.3008ZM173.155 26.3008H171.953C171.513 26.3008 171.152 25.9402 171.152 25.4994C171.152 25.0586 171.513 24.698 171.953 24.698H173.155C173.596 24.698 173.957 25.0586 173.957 25.4994C173.957 25.9402 173.596 26.3008 173.155 26.3008ZM168.348 26.3008H167.146C166.705 26.3008 166.345 25.9402 166.345 25.4994C166.345 25.0586 166.705 24.698 167.146 24.698H168.348C168.789 24.698 169.149 25.0586 169.149 25.4994C169.149 25.9402 168.789 26.3008 168.348 26.3008ZM163.54 26.3008H162.339C161.898 26.3008 161.537 25.9402 161.537 25.4994C161.537 25.0586 161.898 24.698 162.339 24.698H163.54C163.981 24.698 164.342 25.0586 164.342 25.4994C164.342 25.9402 163.981 26.3008 163.54 26.3008ZM158.733 26.3008H157.531C157.09 26.3008 156.73 25.9402 156.73 25.4994C156.73 25.0586 157.09 24.698 157.531 24.698H158.733C159.174 24.698 159.534 25.0586 159.534 25.4994C159.534 25.9402 159.174 26.3008 158.733 26.3008ZM153.926 26.3008H152.724C152.283 26.3008 151.922 25.9402 151.922 25.4994C151.922 25.0586 152.283 24.698 152.724 24.698H153.926C154.366 24.698 154.727 25.0586 154.727 25.4994C154.727 25.9402 154.366 26.3008 153.926 26.3008ZM149.118 26.3008H147.916C147.476 26.3008 147.115 25.9402 147.115 25.4994C147.115 25.0586 147.476 24.698 147.916 24.698H149.118C149.559 24.698 149.919 25.0586 149.919 25.4994C149.919 25.9402 149.559 26.3008 149.118 26.3008ZM144.311 26.3008H143.109C142.668 26.3008 142.308 25.9402 142.308 25.4994C142.308 25.0586 142.668 24.698 143.109 24.698H144.311C144.751 24.698 145.112 25.0586 145.112 25.4994C145.112 25.9402 144.751 26.3008 144.311 26.3008ZM139.503 26.3008H138.301C137.861 26.3008 137.5 25.9402 137.5 25.4994C137.5 25.0586 137.861 24.698 138.301 24.698H139.503C139.944 24.698 140.304 25.0586 140.304 25.4994C140.304 25.9402 139.944 26.3008 139.503 26.3008ZM134.696 26.3008H133.494C133.053 26.3008 132.693 25.9402 132.693 25.4994C132.693 25.0586 133.053 24.698 133.494 24.698H134.696C135.136 24.698 135.497 25.0586 135.497 25.4994C135.497 25.9402 135.136 26.3008 134.696 26.3008Z" fill="#013F71"/>
<path d="M120.458 29.7749C120.606 29.6266 120.682 29.4463 120.682 29.2299C120.682 29.0136 120.606 28.8332 120.458 28.685C120.31 28.5367 120.129 28.4606 119.913 28.4606C119.697 28.4606 119.516 28.5367 119.368 28.685C119.22 28.8332 119.144 29.0136 119.144 29.2299C119.144 29.4463 119.22 29.6266 119.368 29.7749C119.516 29.9232 119.697 29.9993 119.913 29.9993C120.129 29.9993 120.31 29.9232 120.458 29.7749ZM119.2 26.5252H120.626V20.8231H119.2V26.5252ZM119.913 35.5812L116.928 32.628H112.786V28.4846L109.833 25.4993L112.786 22.5141V18.3707H116.928L119.913 15.4175L122.898 18.3707H127.04V22.5141L129.993 25.4993L127.04 28.4846V32.628H122.898L119.913 35.5812ZM119.913 33.5776L122.289 31.2014H125.614V27.8755L127.989 25.4993L125.614 23.1231V19.7972H122.289L119.913 17.421L117.537 19.7972H114.212V23.1231L111.836 25.4993L114.212 27.8755V31.2014H117.537L119.913 33.5776Z" fill="#013F71"/>
</g>
<defs>
<clipPath id="clip0_9_1725">
<rect width="137" height="140" fill="white" transform="translate(109.833 10)"/>
</clipPath>
</defs>
</svg>
