<svg width="357" height="160" viewBox="0 0 357 160" fill="none" xmlns="http://www.w3.org/2000/svg">
<g clip-path="url(#clip0_5_3472)">
<path d="M213.806 95.9651C213.334 95.9651 212.948 95.5785 212.948 95.1059V94.4614C212.948 93.9888 213.334 93.6022 213.806 93.6022C214.278 93.6022 214.664 93.9888 214.664 94.4614V95.1059C214.664 95.5785 214.278 95.9651 213.806 95.9651Z" fill="#013F71"/>
<path d="M213.806 111.049C213.334 111.049 212.948 110.663 212.948 110.19V108.931C212.948 108.459 213.334 108.072 213.806 108.072C214.278 108.072 214.664 108.459 214.664 108.931V110.19C214.664 110.663 214.278 111.049 213.806 111.049ZM213.806 106.023C213.334 106.023 212.948 105.636 212.948 105.163V103.905C212.948 103.432 213.334 103.045 213.806 103.045C214.278 103.045 214.664 103.432 214.664 103.905V105.163C214.664 105.636 214.278 106.023 213.806 106.023ZM213.806 100.992C213.334 100.992 212.948 100.605 212.948 100.132V98.8737C212.948 98.4011 213.334 98.0144 213.806 98.0144C214.278 98.0144 214.664 98.4011 214.664 98.8737V100.132C214.664 100.605 214.278 100.992 213.806 100.992Z" fill="#013F71"/>
<path d="M214.449 115.466H213.806C213.334 115.466 212.948 115.079 212.948 114.607V113.962C212.948 113.49 213.334 113.103 213.806 113.103C214.213 113.103 214.557 113.387 214.643 113.769C215.024 113.855 215.308 114.199 215.308 114.607C215.308 115.079 214.921 115.466 214.449 115.466Z" fill="#013F71"/>
<path d="M235.498 115.466H234.181C233.709 115.466 233.323 115.079 233.323 114.607C233.323 114.134 233.709 113.748 234.181 113.748H235.498C235.97 113.748 236.356 114.134 236.356 114.607C236.356 115.079 235.97 115.466 235.498 115.466ZM230.238 115.466H228.921C228.449 115.466 228.063 115.079 228.063 114.607C228.063 114.134 228.449 113.748 228.921 113.748H230.238C230.71 113.748 231.096 114.134 231.096 114.607C231.096 115.079 230.71 115.466 230.238 115.466ZM224.974 115.466H223.657C223.185 115.466 222.799 115.079 222.799 114.607C222.799 114.134 223.185 113.748 223.657 113.748H224.974C225.446 113.748 225.832 114.134 225.832 114.607C225.832 115.079 225.446 115.466 224.974 115.466ZM219.714 115.466H218.397C217.925 115.466 217.539 115.079 217.539 114.607C217.539 114.134 217.925 113.748 218.397 113.748H219.714C220.186 113.748 220.572 114.134 220.572 114.607C220.572 115.079 220.186 115.466 219.714 115.466Z" fill="#013F71"/>
<path d="M240.089 115.466H239.445C238.973 115.466 238.587 115.079 238.587 114.607C238.587 114.134 238.973 113.748 239.445 113.748H240.089C240.561 113.748 240.947 114.134 240.947 114.607C240.947 115.079 240.561 115.466 240.089 115.466Z" fill="#013F71"/>
<path d="M197.001 99.8489C196.529 99.8489 196.143 99.4623 196.143 98.9897V98.3452C196.143 97.8726 196.529 97.486 197.001 97.486C197.473 97.486 197.859 97.8726 197.859 98.3452V98.9897C197.859 99.4623 197.473 99.8489 197.001 99.8489Z" fill="#013F71"/>
<path d="M197.001 116.768C196.529 116.768 196.143 116.381 196.143 115.909V114.499C196.143 114.027 196.529 113.64 197.001 113.64C197.473 113.64 197.859 114.027 197.859 114.499V115.909C197.859 116.381 197.473 116.768 197.001 116.768ZM197.001 111.127C196.529 111.127 196.143 110.74 196.143 110.268V108.858C196.143 108.386 196.529 107.999 197.001 107.999C197.473 107.999 197.859 108.386 197.859 108.858V110.268C197.859 110.74 197.473 111.127 197.001 111.127ZM197.001 105.49C196.529 105.49 196.143 105.103 196.143 104.631V103.222C196.143 102.749 196.529 102.362 197.001 102.362C197.473 102.362 197.859 102.749 197.859 103.222V104.631C197.859 105.103 197.473 105.49 197.001 105.49Z" fill="#013F71"/>
<path d="M197.537 121.996C197.374 121.996 197.211 121.949 197.065 121.855L196.529 121.498C196.288 121.339 196.147 121.068 196.147 120.781V120.136C196.147 119.664 196.533 119.277 197.005 119.277C197.477 119.277 197.863 119.664 197.863 120.136V120.321L198.017 120.424C198.412 120.686 198.519 121.219 198.258 121.614C198.09 121.863 197.82 121.996 197.541 121.996H197.537Z" fill="#013F71"/>
<path d="M219.461 136.574C219.298 136.574 219.135 136.527 218.989 136.432L217.895 135.702C217.5 135.44 217.393 134.907 217.654 134.512C217.916 134.116 218.448 134.009 218.843 134.271L219.937 135.001C220.332 135.263 220.439 135.796 220.177 136.191C220.01 136.441 219.74 136.574 219.461 136.574ZM215.076 133.661C214.913 133.661 214.75 133.614 214.604 133.519L213.51 132.789C213.115 132.527 213.008 131.994 213.27 131.599C213.531 131.203 214.063 131.096 214.458 131.358L215.552 132.088C215.947 132.351 216.054 132.883 215.792 133.279C215.625 133.528 215.355 133.661 215.076 133.661ZM210.691 130.744C210.528 130.744 210.365 130.696 210.219 130.602L209.121 129.872C208.726 129.61 208.619 129.077 208.881 128.682C209.142 128.286 209.674 128.179 210.069 128.441L211.167 129.171C211.562 129.433 211.669 129.966 211.408 130.361C211.245 130.611 210.97 130.744 210.691 130.744ZM206.306 127.831C206.143 127.831 205.98 127.784 205.834 127.689L204.74 126.959C204.346 126.697 204.238 126.164 204.5 125.769C204.762 125.373 205.294 125.266 205.689 125.528L206.783 126.258C207.177 126.52 207.285 127.053 207.023 127.448C206.856 127.698 206.585 127.831 206.306 127.831ZM201.922 124.914C201.759 124.914 201.596 124.866 201.45 124.772L200.356 124.041C199.961 123.779 199.854 123.247 200.115 122.851C200.377 122.456 200.909 122.349 201.304 122.611L202.398 123.341C202.793 123.603 202.9 124.136 202.638 124.531C202.471 124.78 202.201 124.914 201.922 124.914Z" fill="#013F71"/>
<path d="M223.283 139.117C223.12 139.117 222.957 139.07 222.807 138.975L222.271 138.619C221.876 138.357 221.769 137.824 222.031 137.429C222.292 137.034 222.824 136.926 223.219 137.188L223.755 137.545C224.15 137.807 224.257 138.34 223.995 138.735C223.828 138.984 223.558 139.117 223.279 139.117H223.283Z" fill="#013F71"/>
<path d="M153.784 100.283C153.119 100.283 152.454 100.145 151.845 99.8705L131.38 90.5819C130.136 90.019 129.363 88.8805 129.363 87.6174V63.296C129.363 62.3207 129.955 61.4442 130.908 61.0146L151.377 51.7217C152.883 51.0386 154.685 51.0386 156.195 51.7217L176.664 61.0146C177.617 61.4485 178.209 62.3207 178.209 63.296V87.6174C178.209 88.8805 177.437 90.019 176.192 90.5819L155.723 99.8705C155.114 100.145 154.449 100.283 153.784 100.283ZM153.784 52.9204C153.201 52.9204 152.617 53.0407 152.085 53.2812L131.616 62.5742C131.285 62.7245 131.08 62.9995 131.08 63.2917V87.6131C131.08 88.1931 131.466 88.7302 132.088 89.0137L152.553 98.3023C153.321 98.6503 154.243 98.6503 155.015 98.3023L175.48 89.0137C176.102 88.7302 176.489 88.1974 176.489 87.6131V63.2917C176.489 62.9995 176.283 62.7245 175.952 62.5742L155.483 53.2812C154.951 53.0407 154.367 52.9204 153.784 52.9204Z" fill="#013F71"/>
<path d="M153.784 73.9207C153.119 73.9207 152.454 73.7832 151.845 73.5083L129.865 63.5322L130.573 61.9684L152.553 71.9444C153.325 72.2924 154.243 72.2924 155.015 71.9444L176.995 61.9684L177.703 63.5322L155.723 73.5083C155.114 73.7832 154.449 73.9207 153.784 73.9207Z" fill="#013F71"/>
<path d="M154.642 73.3192H152.926V99.2088H154.642V73.3192Z" fill="#013F71"/>
<path d="M200.961 50.4113V26.0898C200.961 25.4583 200.562 24.8783 199.922 24.5904L179.453 15.2975C178.166 14.7132 176.634 14.7132 175.347 15.2975L154.878 24.5904C154.239 24.8783 153.84 25.4583 153.84 26.0898V50.4113C153.84 51.3307 154.423 52.1728 155.35 52.5938L175.815 61.8824C176.81 62.3335 177.99 62.3335 178.985 61.8824L199.45 52.5938C200.377 52.1728 200.961 51.3307 200.961 50.4113Z" fill="#5340E2"/>
<path d="M177.398 63.0768C176.733 63.0768 176.068 62.9393 175.459 62.6643L154.994 53.3757C153.75 52.8129 152.977 51.6744 152.977 50.4112V26.0898C152.977 25.1145 153.569 24.2381 154.522 23.8085L174.991 14.5112C176.497 13.8281 178.299 13.8281 179.809 14.5112L200.278 23.8042C201.231 24.2381 201.823 25.1102 201.823 26.0855V50.4069C201.823 51.6701 201.051 52.8086 199.806 53.3714L179.342 62.66C178.732 62.935 178.067 63.0725 177.402 63.0725L177.398 63.0768ZM177.398 15.7142C176.815 15.7142 176.231 15.8345 175.699 16.0751L155.23 25.368C154.899 25.5184 154.694 25.7934 154.694 26.0855V50.4069C154.694 50.9869 155.08 51.524 155.702 51.8075L176.167 61.0962C176.935 61.4442 177.857 61.4442 178.629 61.0962L199.094 51.8075C199.716 51.524 200.103 50.9912 200.103 50.4069V26.0898C200.103 25.7977 199.897 25.5227 199.566 25.3723L179.097 16.0794C178.565 15.8388 177.982 15.7185 177.398 15.7185V15.7142Z" fill="#013F71"/>
<path d="M153.835 25.5485L175.815 35.5245C176.81 35.9756 177.99 35.9756 178.985 35.5245L200.965 25.5485" fill="#5340E2"/>
<path d="M177.398 36.7189C176.733 36.7189 176.068 36.5815 175.459 36.3065L153.479 26.3305L154.187 24.7666L176.167 34.7426C176.939 35.0906 177.857 35.0906 178.629 34.7426L200.609 24.7666L201.317 26.3305L179.337 36.3065C178.728 36.5815 178.063 36.7189 177.398 36.7189Z" fill="#013F71"/>
<path d="M178.256 36.1132H176.54V62.0028H178.256V36.1132Z" fill="#013F71"/>
<path d="M201.012 100.283C200.347 100.283 199.682 100.145 199.073 99.8705L178.608 90.5819C177.364 90.019 176.591 88.8805 176.591 87.6174V63.296C176.591 62.3207 177.184 61.4442 178.136 61.0146L198.605 51.7217C200.111 51.0386 201.913 51.0386 203.419 51.7217L223.888 61.0146C224.841 61.4485 225.433 62.3207 225.433 63.296V87.6174C225.433 88.8805 224.66 90.019 223.416 90.5819L202.951 99.8705C202.342 100.145 201.677 100.283 201.012 100.283ZM201.012 52.9204C200.429 52.9204 199.845 53.0407 199.313 53.2812L178.844 62.5742C178.514 62.7245 178.308 62.9995 178.308 63.2917V87.6131C178.308 88.1931 178.694 88.7302 179.316 89.0137L199.781 98.3023C200.553 98.6503 201.471 98.6503 202.243 98.3023L222.708 89.0137C223.33 88.7302 223.717 88.1974 223.717 87.6131V63.2917C223.717 62.9995 223.511 62.7245 223.18 62.5742L202.711 53.2812C202.179 53.0407 201.596 52.9204 201.012 52.9204Z" fill="#013F71"/>
<path d="M201.012 73.9207C200.347 73.9207 199.682 73.7832 199.073 73.5083L177.093 63.5322L177.801 61.9684L199.781 71.9444C200.553 72.2924 201.471 72.2924 202.243 71.9444L224.223 61.9684L224.931 63.5322L202.951 73.5083C202.342 73.7832 201.677 73.9207 201.012 73.9207Z" fill="#013F71"/>
<path d="M201.87 73.3192H200.154V99.2088H201.87V73.3192Z" fill="#013F71"/>
<path d="M140.99 95.9651C140.518 95.9651 140.132 95.5785 140.132 95.1059V94.4614C140.132 93.9888 140.518 93.6022 140.99 93.6022C141.462 93.6022 141.848 93.9888 141.848 94.4614V95.1059C141.848 95.5785 141.462 95.9651 140.99 95.9651Z" fill="#013F71"/>
<path d="M140.99 111.049C140.518 111.049 140.132 110.663 140.132 110.19V108.931C140.132 108.459 140.518 108.072 140.99 108.072C141.462 108.072 141.848 108.459 141.848 108.931V110.19C141.848 110.663 141.462 111.049 140.99 111.049ZM140.99 106.023C140.518 106.023 140.132 105.636 140.132 105.163V103.905C140.132 103.432 140.518 103.045 140.99 103.045C141.462 103.045 141.848 103.432 141.848 103.905V105.163C141.848 105.636 141.462 106.023 140.99 106.023ZM140.99 100.992C140.518 100.992 140.132 100.605 140.132 100.132V98.8737C140.132 98.4011 140.518 98.0144 140.99 98.0144C141.462 98.0144 141.848 98.4011 141.848 98.8737V100.132C141.848 100.605 141.462 100.992 140.99 100.992Z" fill="#013F71"/>
<path d="M140.99 115.466H140.347C139.875 115.466 139.489 115.079 139.489 114.607C139.489 114.199 139.772 113.855 140.154 113.769C140.239 113.387 140.583 113.103 140.99 113.103C141.462 113.103 141.848 113.49 141.848 113.962V114.607C141.848 115.079 141.462 115.466 140.99 115.466Z" fill="#013F71"/>
<path d="M136.4 115.466H135.082C134.61 115.466 134.224 115.079 134.224 114.607C134.224 114.134 134.61 113.748 135.082 113.748H136.4C136.871 113.748 137.258 114.134 137.258 114.607C137.258 115.079 136.871 115.466 136.4 115.466ZM131.14 115.466H129.822C129.35 115.466 128.964 115.079 128.964 114.607C128.964 114.134 129.35 113.748 129.822 113.748H131.14C131.611 113.748 131.998 114.134 131.998 114.607C131.998 115.079 131.611 115.466 131.14 115.466ZM125.875 115.466H124.558C124.086 115.466 123.7 115.079 123.7 114.607C123.7 114.134 124.086 113.748 124.558 113.748H125.875C126.347 113.748 126.733 114.134 126.733 114.607C126.733 115.079 126.347 115.466 125.875 115.466ZM120.611 115.466H119.294C118.822 115.466 118.436 115.079 118.436 114.607C118.436 114.134 118.822 113.748 119.294 113.748H120.611C121.083 113.748 121.469 114.134 121.469 114.607C121.469 115.079 121.083 115.466 120.611 115.466Z" fill="#013F71"/>
<path d="M115.351 115.466H114.708C114.236 115.466 113.849 115.079 113.849 114.607C113.849 114.134 114.236 113.748 114.708 113.748H115.351C115.823 113.748 116.209 114.134 116.209 114.607C116.209 115.079 115.823 115.466 115.351 115.466Z" fill="#013F71"/>
<path d="M157.795 99.8489C157.324 99.8489 156.937 99.4623 156.937 98.9897V98.3452C156.937 97.8726 157.324 97.486 157.795 97.486C158.267 97.486 158.654 97.8726 158.654 98.3452V98.9897C158.654 99.4623 158.267 99.8489 157.795 99.8489Z" fill="#013F71"/>
<path d="M157.795 116.768C157.324 116.768 156.937 116.381 156.937 115.909V114.499C156.937 114.027 157.324 113.64 157.795 113.64C158.267 113.64 158.654 114.027 158.654 114.499V115.909C158.654 116.381 158.267 116.768 157.795 116.768ZM157.795 111.127C157.324 111.127 156.937 110.74 156.937 110.268V108.858C156.937 108.386 157.324 107.999 157.795 107.999C158.267 107.999 158.654 108.386 158.654 108.858V110.268C158.654 110.74 158.267 111.127 157.795 111.127ZM157.795 105.49C157.324 105.49 156.937 105.103 156.937 104.631V103.222C156.937 102.749 157.324 102.362 157.795 102.362C158.267 102.362 158.654 102.749 158.654 103.222V104.631C158.654 105.103 158.267 105.49 157.795 105.49Z" fill="#013F71"/>
<path d="M157.259 121.996C156.98 121.996 156.71 121.863 156.543 121.614C156.281 121.219 156.388 120.686 156.783 120.424L156.937 120.321V120.136C156.937 119.664 157.324 119.277 157.795 119.277C158.267 119.277 158.654 119.664 158.654 120.136V120.781C158.654 121.068 158.508 121.339 158.272 121.498L157.735 121.855C157.59 121.953 157.426 121.996 157.263 121.996H157.259Z" fill="#013F71"/>
<path d="M135.336 136.574C135.057 136.574 134.786 136.441 134.619 136.191C134.357 135.796 134.465 135.263 134.859 135.001L135.953 134.271C136.348 134.009 136.88 134.116 137.142 134.512C137.403 134.907 137.296 135.44 136.901 135.702L135.807 136.432C135.662 136.531 135.499 136.574 135.336 136.574ZM139.72 133.661C139.441 133.661 139.171 133.528 139.004 133.279C138.742 132.883 138.849 132.351 139.244 132.088L140.342 131.358C140.737 131.096 141.269 131.203 141.531 131.599C141.792 131.994 141.685 132.527 141.291 132.789L140.192 133.519C140.046 133.618 139.883 133.661 139.72 133.661ZM144.105 130.744C143.826 130.744 143.556 130.611 143.388 130.361C143.127 129.966 143.234 129.433 143.629 129.171L144.727 128.441C145.122 128.179 145.654 128.286 145.915 128.682C146.177 129.077 146.07 129.61 145.675 129.872L144.577 130.602C144.431 130.701 144.268 130.744 144.105 130.744ZM148.49 127.831C148.211 127.831 147.941 127.698 147.773 127.448C147.512 127.053 147.619 126.52 148.013 126.258L149.108 125.528C149.502 125.266 150.034 125.373 150.296 125.769C150.558 126.164 150.45 126.697 150.056 126.959L148.962 127.689C148.816 127.788 148.653 127.831 148.49 127.831ZM152.874 124.914C152.596 124.914 152.325 124.78 152.158 124.531C151.896 124.136 152.003 123.603 152.398 123.341L153.492 122.611C153.887 122.349 154.419 122.456 154.681 122.851C154.942 123.247 154.835 123.779 154.44 124.041L153.346 124.772C153.201 124.871 153.037 124.914 152.874 124.914Z" fill="#013F71"/>
<path d="M131.513 139.117C131.234 139.117 130.964 138.984 130.796 138.735C130.535 138.34 130.642 137.807 131.037 137.545L131.573 137.188C131.968 136.926 132.5 137.034 132.761 137.429C133.023 137.824 132.916 138.357 132.521 138.619L131.985 138.975C131.839 139.074 131.672 139.117 131.513 139.117Z" fill="#013F71"/>
<path d="M116.381 119.273C118.971 119.273 121.07 117.17 121.07 114.577C121.07 111.983 118.971 109.881 116.381 109.881C113.791 109.881 111.691 111.983 111.691 114.577C111.691 117.17 113.791 119.273 116.381 119.273Z" fill="#E86207"/>
<path d="M116.381 120.132C113.322 120.132 110.833 117.64 110.833 114.577C110.833 111.513 113.322 109.022 116.381 109.022C119.44 109.022 121.928 111.513 121.928 114.577C121.928 117.64 119.44 120.132 116.381 120.132ZM116.381 110.74C114.27 110.74 112.549 112.459 112.549 114.577C112.549 116.695 114.266 118.413 116.381 118.413C118.496 118.413 120.212 116.695 120.212 114.577C120.212 112.459 118.496 110.74 116.381 110.74Z" fill="#013F71"/>
<path d="M223.798 143.616C226.388 143.616 228.487 141.513 228.487 138.92C228.487 136.326 226.388 134.224 223.798 134.224C221.208 134.224 219.109 136.326 219.109 138.92C219.109 141.513 221.208 143.616 223.798 143.616Z" fill="#E86207"/>
<path d="M223.798 144.475C220.739 144.475 218.251 141.983 218.251 138.92C218.251 135.856 220.739 133.365 223.798 133.365C226.857 133.365 229.346 135.856 229.346 138.92C229.346 141.983 226.857 144.475 223.798 144.475ZM223.798 135.083C221.687 135.083 219.967 136.802 219.967 138.92C219.967 141.038 221.683 142.756 223.798 142.756C225.913 142.756 227.629 141.038 227.629 138.92C227.629 136.802 225.913 135.083 223.798 135.083Z" fill="#013F71"/>
<path d="M240.286 119.329C242.876 119.329 244.975 117.226 244.975 114.633C244.975 112.039 242.876 109.937 240.286 109.937C237.696 109.937 235.597 112.039 235.597 114.633C235.597 117.226 237.696 119.329 240.286 119.329Z" fill="#E86207"/>
<path d="M240.286 120.188C237.227 120.188 234.738 117.696 234.738 114.633C234.738 111.569 237.227 109.078 240.286 109.078C243.345 109.078 245.833 111.569 245.833 114.633C245.833 117.696 243.345 120.188 240.286 120.188ZM240.286 110.8C238.175 110.8 236.455 112.519 236.455 114.637C236.455 116.755 238.171 118.474 240.286 118.474C242.401 118.474 244.117 116.755 244.117 114.637C244.117 112.519 242.401 110.8 240.286 110.8Z" fill="#013F71"/>
<path d="M130.951 143.225C133.541 143.225 135.64 141.122 135.64 138.529C135.64 135.935 133.541 133.833 130.951 133.833C128.361 133.833 126.261 135.935 126.261 138.529C126.261 141.122 128.361 143.225 130.951 143.225Z" fill="#E86207"/>
<path d="M130.951 144.084C127.892 144.084 125.403 141.592 125.403 138.529C125.403 135.465 127.892 132.974 130.951 132.974C134.01 132.974 136.498 135.465 136.498 138.529C136.498 141.592 134.01 144.084 130.951 144.084ZM130.951 134.692C128.84 134.692 127.119 136.411 127.119 138.529C127.119 140.647 128.836 142.365 130.951 142.365C133.066 142.365 134.782 140.647 134.782 138.529C134.782 136.411 133.066 134.692 130.951 134.692Z" fill="#013F71"/>
<path d="M168.706 142.43C168.234 142.43 167.848 142.043 167.848 141.57V140.282C167.848 139.809 168.234 139.422 168.706 139.422C169.178 139.422 169.564 139.809 169.564 140.282V141.57C169.564 142.043 169.178 142.43 168.706 142.43ZM168.706 137.274C168.234 137.274 167.848 136.887 167.848 136.415V135.126C167.848 134.653 168.234 134.267 168.706 134.267C169.178 134.267 169.564 134.653 169.564 135.126V136.415C169.564 136.887 169.178 137.274 168.706 137.274ZM168.706 132.119C168.234 132.119 167.848 131.732 167.848 131.259V129.97C167.848 129.498 168.234 129.111 168.706 129.111C169.178 129.111 169.564 129.498 169.564 129.97V131.259C169.564 131.732 169.178 132.119 168.706 132.119ZM168.706 126.963C168.234 126.963 167.848 126.576 167.848 126.104V124.815C167.848 124.342 168.234 123.956 168.706 123.956C169.178 123.956 169.564 124.342 169.564 124.815V126.104C169.564 126.576 169.178 126.963 168.706 126.963ZM168.706 121.807C168.234 121.807 167.848 121.421 167.848 120.948V119.659C167.848 119.187 168.234 118.8 168.706 118.8C169.178 118.8 169.564 119.187 169.564 119.659V120.948C169.564 121.421 169.178 121.807 168.706 121.807ZM168.706 116.652C168.234 116.652 167.848 116.265 167.848 115.793V114.504C167.848 114.031 168.234 113.644 168.706 113.644C169.178 113.644 169.564 114.031 169.564 114.504V115.793C169.564 116.265 169.178 116.652 168.706 116.652ZM168.706 111.496C168.234 111.496 167.848 111.11 167.848 110.637V109.348C167.848 108.875 168.234 108.489 168.706 108.489C169.178 108.489 169.564 108.875 169.564 109.348V110.637C169.564 111.11 169.178 111.496 168.706 111.496ZM168.706 106.341C168.234 106.341 167.848 105.954 167.848 105.481V104.193C167.848 103.72 168.234 103.333 168.706 103.333C169.178 103.333 169.564 103.72 169.564 104.193V105.481C169.564 105.954 169.178 106.341 168.706 106.341ZM168.706 101.185C168.234 101.185 167.848 100.798 167.848 100.326V99.0369C167.848 98.5643 168.234 98.1777 168.706 98.1777C169.178 98.1777 169.564 98.5643 169.564 99.0369V100.326C169.564 100.798 169.178 101.185 168.706 101.185ZM168.706 96.0295C168.234 96.0295 167.848 95.6428 167.848 95.1703V93.8814C167.848 93.4088 168.234 93.0221 168.706 93.0221C169.178 93.0221 169.564 93.4088 169.564 93.8814V95.1703C169.564 95.6428 169.178 96.0295 168.706 96.0295Z" fill="#013F71"/>
<path d="M186.622 142.43C186.15 142.43 185.764 142.043 185.764 141.57V140.282C185.764 139.809 186.15 139.422 186.622 139.422C187.094 139.422 187.48 139.809 187.48 140.282V141.57C187.48 142.043 187.094 142.43 186.622 142.43ZM186.622 137.274C186.15 137.274 185.764 136.887 185.764 136.415V135.126C185.764 134.653 186.15 134.267 186.622 134.267C187.094 134.267 187.48 134.653 187.48 135.126V136.415C187.48 136.887 187.094 137.274 186.622 137.274ZM186.622 132.119C186.15 132.119 185.764 131.732 185.764 131.259V129.97C185.764 129.498 186.15 129.111 186.622 129.111C187.094 129.111 187.48 129.498 187.48 129.97V131.259C187.48 131.732 187.094 132.119 186.622 132.119ZM186.622 126.963C186.15 126.963 185.764 126.576 185.764 126.104V124.815C185.764 124.342 186.15 123.956 186.622 123.956C187.094 123.956 187.48 124.342 187.48 124.815V126.104C187.48 126.576 187.094 126.963 186.622 126.963ZM186.622 121.807C186.15 121.807 185.764 121.421 185.764 120.948V119.659C185.764 119.187 186.15 118.8 186.622 118.8C187.094 118.8 187.48 119.187 187.48 119.659V120.948C187.48 121.421 187.094 121.807 186.622 121.807ZM186.622 116.652C186.15 116.652 185.764 116.265 185.764 115.793V114.504C185.764 114.031 186.15 113.644 186.622 113.644C187.094 113.644 187.48 114.031 187.48 114.504V115.793C187.48 116.265 187.094 116.652 186.622 116.652ZM186.622 111.496C186.15 111.496 185.764 111.11 185.764 110.637V109.348C185.764 108.875 186.15 108.489 186.622 108.489C187.094 108.489 187.48 108.875 187.48 109.348V110.637C187.48 111.11 187.094 111.496 186.622 111.496ZM186.622 106.341C186.15 106.341 185.764 105.954 185.764 105.481V104.193C185.764 103.72 186.15 103.333 186.622 103.333C187.094 103.333 187.48 103.72 187.48 104.193V105.481C187.48 105.954 187.094 106.341 186.622 106.341ZM186.622 101.185C186.15 101.185 185.764 100.798 185.764 100.326V99.0369C185.764 98.5643 186.15 98.1777 186.622 98.1777C187.094 98.1777 187.48 98.5643 187.48 99.0369V100.326C187.48 100.798 187.094 101.185 186.622 101.185ZM186.622 96.0295C186.15 96.0295 185.764 95.6428 185.764 95.1703V93.8814C185.764 93.4088 186.15 93.0221 186.622 93.0221C187.094 93.0221 187.48 93.4088 187.48 93.8814V95.1703C187.48 95.6428 187.094 96.0295 186.622 96.0295Z" fill="#013F71"/>
<path d="M168.633 145.141C171.223 145.141 173.322 143.038 173.322 140.445C173.322 137.851 171.223 135.749 168.633 135.749C166.043 135.749 163.944 137.851 163.944 140.445C163.944 143.038 166.043 145.141 168.633 145.141Z" fill="#E86207"/>
<path d="M168.633 146C165.574 146 163.085 143.508 163.085 140.445C163.085 137.382 165.574 134.89 168.633 134.89C171.692 134.89 174.18 137.382 174.18 140.445C174.18 143.508 171.692 146 168.633 146ZM168.633 136.613C166.522 136.613 164.802 138.331 164.802 140.449C164.802 142.567 166.518 144.286 168.633 144.286C170.748 144.286 172.464 142.567 172.464 140.449C172.464 138.331 170.748 136.613 168.633 136.613Z" fill="#013F71"/>
<path d="M186.622 145.141C189.212 145.141 191.312 143.038 191.312 140.445C191.312 137.851 189.212 135.749 186.622 135.749C184.032 135.749 181.933 137.851 181.933 140.445C181.933 143.038 184.032 145.141 186.622 145.141Z" fill="#E86207"/>
<path d="M186.622 146C183.563 146 181.075 143.508 181.075 140.445C181.075 137.382 183.563 134.89 186.622 134.89C189.681 134.89 192.17 137.382 192.17 140.445C192.17 143.508 189.681 146 186.622 146ZM186.622 136.613C184.511 136.613 182.791 138.331 182.791 140.449C182.791 142.567 184.507 144.286 186.622 144.286C188.737 144.286 190.454 142.567 190.454 140.449C190.454 138.331 188.737 136.613 186.622 136.613Z" fill="#013F71"/>
</g>
<defs>
<clipPath id="clip0_5_3472">
<rect width="135" height="132" fill="white" transform="translate(110.833 14)"/>
</clipPath>
</defs>
</svg>
