<svg width="800" height="128" viewBox="0 0 800 128" fill="none" xmlns="http://www.w3.org/2000/svg">
<g clip-path="url(#clip0_4_925)">
<path d="M83.5788 77.3304H83.57L73.9351 85.4386L83.4474 77.5638L83.5788 77.3304Z" fill="#636363"/>
<path d="M84.5864 21.9648L84.5685 22.7168L84.7113 22.2327L84.5864 21.9648Z" fill="#636363"/>
<path d="M83.4474 77.5638L73.9351 85.4473L70.9132 87.9973L80.2854 102.208L96.8487 84.4186C96.9188 83.8308 96.9626 83.2171 97.0239 82.612L83.5875 77.3391L83.4561 77.5725L83.4474 77.5638Z" fill="#6565BA"/>
<path d="M70.8957 87.9628L70.9132 87.9887L73.935 85.4387L70.8957 87.9628Z" fill="#636363"/>
<path d="M97.0151 82.6034C97.2516 80.0361 97.383 77.365 97.383 74.5557V52.323L83.5788 77.3305L97.0151 82.6034Z" fill="#3C3C84"/>
<path d="M84.586 21.9648L84.7087 22.2327L84.7875 21.9129L84.7087 22.2327L97.383 50.1533V0.942215H97.3655L84.586 21.9129V21.9648Z" fill="#44448E"/>
<path d="M84.5685 22.7168L83.57 77.3304H83.5787L97.383 52.323V50.1533L84.7086 22.2327L84.5685 22.7168Z" fill="#5454A3"/>
<path d="M10.7561 101.707C10.6773 101.707 10.6072 101.664 10.5634 101.603L10.4671 101.439C10.4233 101.361 10.432 101.257 10.4933 101.188C10.5546 101.119 10.6598 101.093 10.7473 101.136L10.8612 101.188C10.9576 101.231 11.0101 101.327 10.9926 101.422L10.9751 101.534C10.9576 101.62 10.8875 101.698 10.7999 101.716C10.7824 101.716 10.7736 101.716 10.7561 101.716V101.707Z" fill="#404087"/>
<path d="M80.2766 102.191L70.9132 87.9887L70.7117 88.1529L69.7745 102.044L69.6081 102.113L70.011 102.044L80.2766 102.191Z" fill="#44448E"/>
<path d="M70.011 102.044L69.6081 102.113L45.5733 112.097L80.1978 102.286L80.2766 102.2V102.191L70.011 102.044Z" fill="#6565BA"/>
<path d="M44.7178 112.368L44.7644 112.35L44.6711 112.322L44.7178 112.368Z" fill="#636363"/>
<path d="M26.9898 93.1778L26.9619 93.1406L26.9341 93.1778H26.9526H26.9898Z" fill="#636363"/>
<path d="M56.6009 104.369C54.3761 104.957 51.9061 105.26 49.1645 105.26C39.7748 105.26 33.4858 101.863 29.9384 94.5928L27.0742 93.2702L44.6711 112.322L44.7499 112.348L44.9601 112.27L45.5645 112.097L69.5993 102.113L56.5921 104.369H56.6009Z" fill="#8787D8"/>
<path d="M27.0908 93.275L26.9897 93.1751H26.9529H26.9345L26.9253 93.2024L27.0908 93.275Z" fill="#636363"/>
<path d="M26.9253 93.2011L26.934 93.1751L10.8174 101.093L10.7736 101.37L10.8174 101.396L44.6711 112.322L27.0829 93.2702L26.9253 93.2011Z" fill="#6565BA"/>
<path d="M44.7149 112.365L23.3341 120.629C29.588 124 36.9018 125.841 44.9339 126.317L44.8288 112.495L44.7149 112.365Z" fill="#3C3C84"/>
<path d="M9.60867 108.216C12.8145 112.962 16.8261 116.73 21.4859 119.566L10.7473 101.482L9.60867 108.207V108.216Z" fill="#5454A3"/>
<path d="M10.143 78.0825L0.954742 47.0327V74.7372C0.954742 76.734 1.02481 78.6616 1.14744 80.5374L10.1693 78.1171L10.1342 78.0911L10.143 78.0825Z" fill="#C8C8ED"/>
<path d="M1.14744 80.7449C1.10364 80.7449 1.05985 80.7276 1.01605 80.7017C0.963499 80.6671 0.928462 80.6066 0.928462 80.5374C0.797077 78.5233 0.735764 76.6216 0.735764 74.7286V47.0241C0.735764 46.9204 0.814595 46.8253 0.919703 46.808C1.02481 46.7994 1.12992 46.8599 1.1562 46.9636L10.3269 77.9528C10.3795 78.0047 10.397 78.0825 10.3795 78.1517C10.3619 78.2295 10.3006 78.29 10.2218 78.3072L1.19999 80.7276C1.19999 80.7276 1.16496 80.7276 1.13868 80.7276L1.14744 80.7449ZM1.17372 48.5455V74.7372C1.17372 76.5352 1.23503 78.3505 1.3489 80.2522L9.8802 77.9615L1.17372 48.5455Z" fill="#404087"/>
<path d="M10.6598 101.327L4.83499 98.8543C6.13133 102.329 7.73423 105.441 9.61743 108.225L10.7561 101.499L10.6598 101.335V101.327Z" fill="#8787D8"/>
<path d="M10.6597 101.327L10.7736 101.378L10.8174 101.102L26.934 93.1838L26.9603 93.1492L26.9428 93.1319L10.1692 78.1171L1.14743 80.5374C1.36641 83.9173 1.76932 87.107 2.36494 90.0892L10.6072 101.24L10.6597 101.327Z" fill="#E4E4F7"/>
<path d="M10.7736 101.586C10.7736 101.586 10.7123 101.586 10.686 101.569L10.5722 101.517C10.5722 101.517 10.4933 101.465 10.467 101.43L10.4145 101.344L2.18975 90.2102C2.18975 90.2102 2.15472 90.1583 2.15472 90.1238C1.56786 87.1588 1.15619 83.9346 0.93721 80.5461C0.93721 80.4423 0.998523 80.3472 1.09487 80.3213L10.1167 77.901C10.1868 77.8837 10.2656 77.901 10.3181 77.9528L27.0917 92.9677C27.153 93.0368 27.1968 93.1751 27.1443 93.2529C27.1267 93.2875 27.0654 93.348 27.0304 93.3653L11.0101 101.231L10.9838 101.404C10.9751 101.474 10.9313 101.525 10.87 101.56C10.8349 101.577 10.7999 101.586 10.7649 101.586H10.7736ZM2.56639 89.9941L10.6597 100.946C10.6597 100.946 10.6948 100.912 10.7211 100.903L26.5924 93.106L10.1167 78.3504L1.38392 80.693C1.6029 83.9778 2.00581 87.107 2.57515 89.9941H2.56639Z" fill="#404087"/>
<path d="M10.6072 101.232L2.36494 90.0806C2.98684 93.227 3.81894 96.1401 4.83499 98.8457L10.6598 101.318L10.6072 101.232Z" fill="#C8C8ED"/>
<path d="M10.6597 101.543C10.6597 101.543 10.5984 101.543 10.5722 101.525L4.7474 99.0532C4.69484 99.0272 4.65105 98.984 4.62477 98.9321C3.5912 96.166 2.75909 93.2011 2.14596 90.1324C2.12844 90.0373 2.181 89.9336 2.27735 89.8904C2.3737 89.8472 2.47881 89.8817 2.54012 89.9595L10.7824 101.11C10.7824 101.11 10.7824 101.119 10.7911 101.128L10.8437 101.214C10.8962 101.292 10.8787 101.396 10.8174 101.465C10.7736 101.508 10.7123 101.534 10.651 101.534L10.6597 101.543ZM5.00141 98.6901L10.0203 100.825L2.77661 91.0141C3.35471 93.6852 4.09923 96.2611 5.00141 98.6901Z" fill="#404087"/>
<path d="M44.6711 112.322L10.8174 101.396L10.7736 101.378L10.7561 101.491L21.4947 119.574C22.0991 119.946 22.7122 120.292 23.3428 120.629L44.7237 112.365L44.6886 112.322H44.6711Z" fill="#8787D8"/>
<path d="M86.3379 111.371C91.4531 105.225 95.0005 97.0737 96.5334 86.718L86.3379 111.371Z" fill="#2D2D6B"/>
<path d="M84.5861 21.9648V21.9129L97.3655 0.942215H71.9117V1.14103L84.5335 21.8524L84.5861 21.9648Z" fill="#8787D8"/>
<path d="M66.9892 123.948C68.6972 123.421 70.3439 122.807 71.938 122.107L68.8023 120.983L66.9892 123.948Z" fill="#2D2D6B"/>
<path d="M44.9689 112.417L44.7587 112.348L44.7149 112.365L44.8288 112.495L44.9339 126.317C46.3266 126.395 47.7368 126.446 49.1733 126.446C55.5586 126.446 61.541 125.634 66.9891 123.948L68.8023 120.983L44.9689 112.417Z" fill="#44448E"/>
<path d="M80.224 102.338L80.2766 102.2L80.1978 102.286L45.5733 112.097L45.3631 112.184L45.5733 112.097L44.9689 112.27L44.7587 112.348L44.9689 112.417L68.8023 120.983L80.224 102.338Z" fill="#5454A3"/>
<path d="M80.2766 102.2L80.224 102.338L84.3408 113.584C85.0327 112.875 85.6984 112.14 86.3378 111.371L96.5334 86.718C96.6472 85.9573 96.7523 85.1966 96.8399 84.41L80.2766 102.2Z" fill="#44448E"/>
<path d="M80.2241 102.347V102.338L68.8023 120.992L71.938 122.116C76.6241 120.058 80.8022 117.232 84.3496 113.584L80.2328 102.338L80.2241 102.347Z" fill="#44448E"/>
<path d="M56.6009 104.369L69.6081 102.113L69.7745 102.044L70.7117 88.1529L70.9044 87.9887L70.8869 87.9627L70.5979 88.1961C68.5307 97.2033 63.9498 102.424 56.5922 104.369H56.6009Z" fill="#44448E"/>
<path d="M70.8869 87.9541L73.9263 85.43L83.5613 77.3218L71.903 72.4724V74.7286C71.903 79.915 71.4738 84.3841 70.5979 88.1875L70.8869 87.9541Z" fill="#5454A3"/>
<path d="M84.5861 21.9647L84.5335 21.8524L71.9117 1.14102V69.4902L84.5686 22.7168L84.5861 21.9647Z" fill="#2D2D6B"/>
<path d="M27.083 93.2702L29.9472 94.5928C29.7282 94.1433 29.518 93.6938 29.3165 93.227L26.9866 93.1751L27.0742 93.2702H27.083Z" fill="#44448E"/>
<path d="M84.5686 22.7168L71.9117 69.4902V72.4811L83.57 77.3305L84.5686 22.7168Z" fill="#44448E"/>
<path d="M12.4992 21.9129C12.4203 21.9129 12.3502 21.8697 12.3152 21.8005L0.762041 1.26204C0.762041 1.26204 0.735764 1.19289 0.735764 1.15831V0.942208C0.735764 0.82119 0.832113 0.726105 0.95474 0.726105H26.3735C26.4523 0.726105 26.5311 0.769325 26.5662 0.838479C26.6012 0.907632 26.6012 0.994073 26.5574 1.06323L12.6831 21.8178C12.6393 21.8783 12.578 21.9129 12.4992 21.9129ZM1.20875 1.15831L12.5167 21.2819L25.9618 1.15831H1.20875Z" fill="#404087"/>
<path d="M26.7151 81.4537C26.5311 79.3532 26.426 77.1316 26.426 74.7286V71.5562L10.4583 78.0047L26.7151 81.4537Z" fill="#8787D8"/>
<path d="M0.95474 46.5487C0.95474 46.5487 0.919703 46.5487 0.910944 46.5487C0.814595 46.5227 0.735764 46.4363 0.735764 46.3412V1.15831C0.735764 1.06322 0.805836 0.976781 0.902185 0.950849C0.998535 0.924916 1.10364 0.968137 1.14744 1.05458L12.6393 21.5153C12.6919 21.5498 12.7269 21.6103 12.7269 21.6795V21.8264C12.7269 21.8264 12.7094 21.8869 12.7006 21.9129L1.1562 46.419C1.12116 46.4968 1.04233 46.54 0.95474 46.54V46.5487ZM1.17372 1.99679V45.3558L12.2889 21.7746L1.17372 1.99679Z" fill="#404087"/>
<path d="M12.5079 21.8264L0.954742 46.3326V47.0328L10.143 78.0825L10.178 78.1084L10.2744 78.0825L10.4583 78.0047L10.2306 77.9615L12.5079 21.8264Z" fill="#E4E4F7"/>
<path d="M10.178 78.3245C10.1255 78.3245 10.0729 78.3072 10.0291 78.264C10.0028 78.2381 9.95028 78.1776 9.93276 78.1343L0.744523 47.0932C0.744523 47.0932 0.735764 47.05 0.735764 47.0327V46.3326C0.735764 46.3326 0.735764 46.272 0.753282 46.2375L12.3065 21.7313C12.3503 21.6363 12.4554 21.593 12.5605 21.6103C12.6656 21.6363 12.7357 21.7227 12.7269 21.8264L10.4583 77.7799H10.5021C10.5984 77.8059 10.6685 77.8837 10.6773 77.9787C10.686 78.0738 10.6335 78.1603 10.5459 78.1948L10.2393 78.3072C10.2393 78.3072 10.2043 78.3072 10.178 78.3072V78.3245ZM1.17372 46.9982L10.0466 77.002L12.2364 22.8897L1.17372 46.3758V46.9982Z" fill="#404087"/>
<path d="M12.5079 21.8265V21.9043V21.8265L10.2306 77.9615L10.4583 78.0047L26.426 71.5562V70.7868L12.5079 21.7487V21.8265Z" fill="#AAAAD6"/>
<path d="M10.4583 78.2208C10.4583 78.2208 10.4233 78.2208 10.4145 78.2208L10.1868 78.1689C10.0817 78.143 10.0116 78.0566 10.0116 77.9528L12.2889 21.8178V21.74C12.2889 21.6363 12.3765 21.5498 12.4816 21.5326C12.5867 21.5153 12.6918 21.5844 12.7181 21.6881L26.6362 70.7263C26.6362 70.7263 26.6362 70.7609 26.6362 70.7868V71.5562C26.6362 71.6426 26.5837 71.7204 26.4961 71.755L10.5284 78.2035C10.5284 78.2035 10.4758 78.2208 10.4495 78.2208H10.4583ZM12.6743 23.1231L10.4583 77.78L26.207 71.4179V70.8214L12.6743 23.1231Z" fill="#404087"/>
<path d="M26.3735 0.942215L12.5167 21.6795L12.5079 21.7487L26.426 70.7868V0.942215H26.3735Z" fill="#C8C8ED"/>
<path d="M26.426 71.0029C26.3297 71.0029 26.2421 70.9424 26.2158 70.8474L12.2977 21.8005C12.2977 21.8005 12.2889 21.7573 12.2977 21.7314V21.6622C12.2977 21.6622 12.3152 21.5844 12.3327 21.5498L26.1895 0.82119C26.2333 0.760681 26.2946 0.726105 26.3735 0.726105H26.426C26.5487 0.726105 26.645 0.82119 26.645 0.942208V70.7868C26.645 70.8906 26.5662 70.9857 26.4523 71.0029C26.4435 71.0029 26.4348 71.0029 26.426 71.0029ZM12.7357 21.74L26.2071 69.2223V1.58187L12.7357 21.74Z" fill="#404087"/>
<path d="M26.9866 93.1752L29.3165 93.227C28.9924 92.4577 28.7034 91.6452 28.4406 90.798L26.9603 93.1492L26.9866 93.1838V93.1752Z" fill="#8787D8"/>
<path d="M10.2744 78.0825L10.1693 78.1084L26.9428 93.1233L26.9603 93.1406L28.4406 90.7894C27.5997 88.0838 27.0304 84.9805 26.7238 81.4537L10.4671 78.0047L10.2831 78.0739L10.2744 78.0825Z" fill="#C8C8ED"/>
<path d="M26.9603 93.3567C26.899 93.3567 26.8377 93.3308 26.7939 93.2875L10.0203 78.2727C9.95903 78.2208 9.93276 78.143 9.95027 78.0652C9.96779 77.9874 10.0291 77.9269 10.1079 77.9096L10.3707 77.8145C10.3707 77.8145 10.4583 77.7972 10.5021 77.8059L26.7589 81.2549C26.8552 81.2722 26.9253 81.35 26.9341 81.4451C27.2406 84.9546 27.8187 88.0751 28.6421 90.7289C28.6596 90.7894 28.6508 90.8499 28.6158 90.9104L27.1355 93.2616C27.1005 93.3221 27.0392 93.3567 26.9691 93.3653C26.9691 93.3653 26.9603 93.3653 26.9516 93.3653L26.9603 93.3567ZM10.686 78.2813L26.9078 92.8121L28.1954 90.7634C27.3895 88.1356 26.8202 85.067 26.5136 81.6352L10.686 78.2813Z" fill="#404087"/>
<path d="M12.5342 22.6822C13.0518 22.6822 13.4714 22.2681 13.4714 21.7573C13.4714 21.2465 13.0518 20.8324 12.5342 20.8324C12.0166 20.8324 11.597 21.2465 11.597 21.7573C11.597 22.2681 12.0166 22.6822 12.5342 22.6822Z" fill="#56567C"/>
<path d="M26.2946 2.02273C26.8122 2.02273 27.2319 1.60863 27.2319 1.0978C27.2319 0.586984 26.8122 0.172882 26.2946 0.172882C25.777 0.172882 25.3574 0.586984 25.3574 1.0978C25.3574 1.60863 25.777 2.02273 26.2946 2.02273Z" fill="#56567C"/>
<path d="M0.937217 1.90171C1.45483 1.90171 1.87443 1.48761 1.87443 0.976787C1.87443 0.465967 1.45483 0.0518646 0.937217 0.0518646C0.419607 0.0518646 0 0.465967 0 0.976787C0 1.48761 0.419607 1.90171 0.937217 1.90171Z" fill="#56567C"/>
<path d="M0.937217 47.3007C1.45483 47.3007 1.87443 46.8866 1.87443 46.3758C1.87443 45.865 1.45483 45.4509 0.937217 45.4509C0.419607 45.4509 0 45.865 0 46.3758C0 46.8866 0.419607 47.3007 0.937217 47.3007Z" fill="#56567C"/>
<path d="M26.5224 72.3601C27.04 72.3601 27.4596 71.946 27.4596 71.4351C27.4596 70.9243 27.04 70.5102 26.5224 70.5102C26.0048 70.5102 25.5851 70.9243 25.5851 71.4351C25.5851 71.946 26.0048 72.3601 26.5224 72.3601Z" fill="#56567C"/>
<path d="M10.432 78.921C10.9496 78.921 11.3692 78.5068 11.3692 77.996C11.3692 77.4852 10.9496 77.0711 10.432 77.0711C9.9144 77.0711 9.4948 77.4852 9.4948 77.996C9.4948 78.5068 9.9144 78.921 10.432 78.921Z" fill="#56567C"/>
<path d="M26.6187 82.3008C27.1363 82.3008 27.556 81.8867 27.556 81.3759C27.556 80.8651 27.1363 80.451 26.6187 80.451C26.1011 80.451 25.6815 80.8651 25.6815 81.3759C25.6815 81.8867 26.1011 82.3008 26.6187 82.3008Z" fill="#56567C"/>
<path d="M26.8377 94.0482C27.3553 94.0482 27.7749 93.6341 27.7749 93.1233C27.7749 92.6125 27.3553 92.1984 26.8377 92.1984C26.3201 92.1984 25.9005 92.6125 25.9005 93.1233C25.9005 93.6341 26.3201 94.0482 26.8377 94.0482Z" fill="#56567C"/>
<path d="M28.4844 91.6883C29.002 91.6883 29.4216 91.2742 29.4216 90.7634C29.4216 90.2526 29.002 89.8385 28.4844 89.8385C27.9668 89.8385 27.5472 90.2526 27.5472 90.7634C27.5472 91.2742 27.9668 91.6883 28.4844 91.6883Z" fill="#56567C"/>
<path d="M10.7386 102.174C11.2562 102.174 11.6758 101.76 11.6758 101.249C11.6758 100.738 11.2562 100.324 10.7386 100.324C10.221 100.324 9.80136 100.738 9.80136 101.249C9.80136 101.76 10.221 102.174 10.7386 102.174Z" fill="#56567C"/>
<path d="M2.3737 90.8239C2.89131 90.8239 3.31091 90.4098 3.31091 89.899C3.31091 89.3882 2.89131 88.9741 2.3737 88.9741C1.85608 88.9741 1.43648 89.3882 1.43648 89.899C1.43648 90.4098 1.85608 90.8239 2.3737 90.8239Z" fill="#56567C"/>
<path d="M4.95762 99.9781C5.47523 99.9781 5.89484 99.564 5.89484 99.0532C5.89484 98.5423 5.47523 98.1282 4.95762 98.1282C4.44001 98.1282 4.0204 98.5423 4.0204 99.0532C4.0204 99.564 4.44001 99.9781 4.95762 99.9781Z" fill="#56567C"/>
<path d="M1.07737 81.35C1.59498 81.35 2.01459 80.9359 2.01459 80.425C2.01459 79.9142 1.59498 79.5001 1.07737 79.5001C0.559759 79.5001 0.140152 79.9142 0.140152 80.425C0.140152 80.9359 0.559759 81.35 1.07737 81.35Z" fill="#56567C"/>
<path d="M364.28 77.3304H364.271L354.636 85.4386L364.148 77.5638L364.28 77.3304Z" fill="#636363"/>
<path d="M365.287 21.9648L365.27 22.7168L365.412 22.2327L365.287 21.9648Z" fill="#636363"/>
<path d="M364.148 77.5638L354.636 85.4473L351.614 87.9973L360.986 102.208L377.55 84.4186C377.62 83.8308 377.663 83.2171 377.725 82.612L364.288 77.3391L364.157 77.5725L364.148 77.5638Z" fill="#EF8035"/>
<path d="M351.597 87.9628L351.614 87.9887L354.636 85.4387L351.597 87.9628Z" fill="#636363"/>
<path d="M377.716 82.6034C377.953 80.0361 378.084 77.365 378.084 74.5557V52.323L364.28 77.3305L377.716 82.6034Z" fill="#E86207"/>
<path d="M365.287 21.9648L365.41 22.2327L365.488 21.9129L365.41 22.2327L378.084 50.1533V0.942215H378.066L365.287 21.9129V21.9648Z" fill="#CE6313"/>
<path d="M365.27 22.7168L364.271 77.3304H364.28L378.084 52.323V50.1533L365.41 22.2327L365.27 22.7168Z" fill="#F49F64"/>
<path d="M291.457 101.707C291.378 101.707 291.308 101.664 291.264 101.603L291.168 101.439C291.124 101.361 291.133 101.257 291.194 101.188C291.256 101.119 291.361 101.093 291.448 101.136L291.562 101.188C291.658 101.231 291.711 101.327 291.693 101.422L291.676 101.534C291.658 101.62 291.588 101.698 291.501 101.716C291.483 101.716 291.474 101.716 291.457 101.716V101.707Z" fill="#404087"/>
<path d="M360.978 102.191L351.614 87.9887L351.413 88.1529L350.476 102.044L350.309 102.113L350.712 102.044L360.978 102.191Z" fill="#CE6313"/>
<path d="M350.712 102.044L350.309 102.113L326.274 112.097L360.899 102.286L360.978 102.2V102.191L350.712 102.044Z" fill="#EF8035"/>
<path d="M325.419 112.368L325.465 112.35L325.372 112.322L325.419 112.368Z" fill="#636363"/>
<path d="M307.691 93.1778L307.663 93.1406L307.635 93.1778H307.654H307.691Z" fill="#636363"/>
<path d="M337.302 104.369C335.077 104.957 332.607 105.26 329.866 105.26C320.476 105.26 314.187 101.863 310.639 94.5928L307.775 93.2702L325.372 112.322L325.451 112.348L325.661 112.27L326.266 112.097L350.3 102.113L337.293 104.369H337.302Z" fill="#FFB685"/>
<path d="M307.792 93.275L307.691 93.1751H307.654H307.635L307.626 93.2024L307.792 93.275Z" fill="#636363"/>
<path d="M307.626 93.2011L307.635 93.1751L291.518 101.093L291.475 101.37L291.518 101.396L325.372 112.322L307.784 93.2702L307.626 93.2011Z" fill="#EF8035"/>
<path d="M325.416 112.365L304.035 120.629C310.289 124 317.603 125.841 325.635 126.317L325.53 112.495L325.416 112.365Z" fill="#E86207"/>
<path d="M290.31 108.216C293.515 112.962 297.527 116.73 302.187 119.566L291.448 101.482L290.31 108.207V108.216Z" fill="#F49F64"/>
<path d="M290.844 78.0825L281.656 47.0327V74.7372C281.656 76.734 281.726 78.6616 281.848 80.5374L290.87 78.1171L290.835 78.0911L290.844 78.0825Z" fill="#F49F64"/>
<path d="M291.361 101.327L285.536 98.8543C286.832 102.329 288.435 105.441 290.318 108.225L291.457 101.499L291.361 101.335V101.327Z" fill="#E28647"/>
<path d="M291.361 101.327L291.475 101.378L291.518 101.102L307.635 93.1838L307.661 93.1492L307.644 93.1319L290.87 78.1171L281.848 80.5374C282.067 83.9173 282.47 87.107 283.066 90.0892L291.308 101.24L291.361 101.327Z" fill="#FFB685"/>
<path d="M291.308 101.232L283.066 90.0806C283.688 93.227 284.52 96.1401 285.536 98.8457L291.361 101.318L291.308 101.232Z" fill="#F49F64"/>
<path d="M325.372 112.322L291.518 101.396L291.475 101.378L291.457 101.491L302.196 119.574C302.8 119.946 303.413 120.292 304.044 120.629L325.425 112.365L325.39 112.322H325.372Z" fill="#FFB685"/>
<path d="M367.039 111.371C372.154 105.225 375.701 97.0737 377.234 86.718L367.039 111.371Z" fill="#9B4912"/>
<path d="M365.287 21.9648V21.9129L378.066 0.942215H352.613V1.14103L365.234 21.8524L365.287 21.9648Z" fill="#FFB685"/>
<path d="M347.69 123.948C349.398 123.421 351.045 122.807 352.639 122.107L349.503 120.983L347.69 123.948Z" fill="#9B4912"/>
<path d="M325.67 112.417L325.46 112.348L325.416 112.365L325.53 112.495L325.635 126.317C327.028 126.395 328.438 126.446 329.874 126.446C336.26 126.446 342.242 125.634 347.69 123.948L349.503 120.983L325.67 112.417Z" fill="#CE6313"/>
<path d="M360.925 102.338L360.978 102.2L360.899 102.286L326.274 112.097L326.064 112.184L326.274 112.097L325.67 112.27L325.46 112.348L325.67 112.417L349.503 120.983L360.925 102.338Z" fill="#F49F64"/>
<path d="M360.977 102.2L360.925 102.338L365.042 113.584C365.734 112.875 366.399 112.14 367.039 111.371L377.234 86.718C377.348 85.9573 377.453 85.1966 377.541 84.41L360.977 102.2Z" fill="#CE6313"/>
<path d="M360.925 102.347V102.338L349.503 120.992L352.639 122.116C357.325 120.058 361.503 117.232 365.051 113.584L360.934 102.338L360.925 102.347Z" fill="#CE6313"/>
<path d="M337.302 104.369L350.309 102.113L350.476 102.044L351.413 88.1529L351.605 87.9887L351.588 87.9627L351.299 88.1961C349.232 97.2033 344.651 102.424 337.293 104.369H337.302Z" fill="#CE6313"/>
<path d="M351.588 87.9541L354.627 85.43L364.262 77.3218L352.604 72.4724V74.7286C352.604 79.915 352.175 84.3841 351.299 88.1875L351.588 87.9541Z" fill="#F49F64"/>
<path d="M365.287 21.9647L365.234 21.8524L352.613 1.14102V69.4902L365.269 22.7168L365.287 21.9647Z" fill="#9B4912"/>
<path d="M307.784 93.2702L310.648 94.5928C310.429 94.1433 310.219 93.6938 310.018 93.227L307.688 93.1751L307.775 93.2702H307.784Z" fill="#CE6313"/>
<path d="M365.269 22.7168L352.613 69.4902V72.4811L364.271 77.3305L365.269 22.7168Z" fill="#CE6313"/>
<path d="M307.074 0.942215H281.656V1.15832L293.2 21.6968L307.074 0.942215Z" fill="#E28647"/>
<path d="M307.416 81.4537C307.232 79.3532 307.127 77.1316 307.127 74.7286V71.5562L291.159 78.0047L307.416 81.4537Z" fill="#E28647"/>
<path d="M293.218 21.6795L293.2 21.6968L281.656 1.15831V46.3326L293.209 21.8264L293.218 21.6795Z" fill="#FFB685"/>
<path d="M293.209 21.8264L281.656 46.3326V47.0328L290.844 78.0825L290.879 78.1084L290.975 78.0825L291.159 78.0047L290.931 77.9615L293.209 21.8264Z" fill="#CE6313"/>
<path d="M293.209 21.8265V21.9043V21.8265L290.932 77.9615L291.159 78.0047L307.127 71.5562V70.7868L293.209 21.7487V21.8265Z" fill="#EF8035"/>
<path d="M307.074 0.942215L293.218 21.6795L293.209 21.7487L307.127 70.7868V0.942215H307.074Z" fill="#CE6313"/>
<path d="M307.687 93.1752L310.017 93.227C309.693 92.4577 309.404 91.6452 309.141 90.798L307.661 93.1492L307.687 93.1838V93.1752Z" fill="#E28647"/>
<path d="M290.975 78.0825L290.87 78.1084L307.644 93.1233L307.661 93.1406L309.142 90.7894C308.301 88.0838 307.731 84.9805 307.425 81.4537L291.168 78.0047L290.984 78.0739L290.975 78.0825Z" fill="#CE6313"/>
<path d="M147.835 46.9204L147.826 46.8167L152.714 1.20154L138.603 24.2641L138.752 25.0594L147.809 46.9463L147.835 46.9204Z" fill="#5454A3"/>
<path d="M147.826 46.8166L147.835 46.9204L152.731 40.7139V1.1756L152.714 1.20153L147.826 46.8166Z" fill="#44448E"/>
<path d="M147.809 46.9463L138.752 25.0594L152.731 100.186V99.8225L147.835 46.9204L147.809 46.9463Z" fill="#44448E"/>
<path d="M152.731 99.8225V40.7139L147.835 46.9204L152.731 99.8225Z" fill="#2D2D6B"/>
<path d="M138.472 24.3937L138.34 24.5407L132.034 58.8493L132.043 58.8839L145.54 61.5549L138.752 25.0593L138.472 24.3937Z" fill="#3C3C84"/>
<path d="M145.54 61.5636L138.971 92.6825V93.2357L138.848 93.374L138.875 93.3999L152.731 100.237V100.186L145.54 61.5636Z" fill="#2D2D6B"/>
<path d="M138.953 70.467L138.971 70.4584V92.6824L145.54 61.5549L138.953 70.467Z" fill="#44448E"/>
<path d="M132.034 58.8667L132.043 58.8842L132.034 58.8493V58.8667Z" fill="black"/>
<path d="M138.875 93.3999L138.848 93.374L138.752 93.4777V110.783L138.805 110.809L138.752 110.844L144.507 110.334L152.731 100.583V100.237L138.875 93.3999Z" fill="#5454A3"/>
<path d="M132.875 114.059L127.26 124.795V124.83H152.705L132.936 114.025L132.875 114.059Z" fill="#2D2D6B"/>
<path d="M138.806 110.81L138.752 110.783V110.845L138.806 110.81Z" fill="black"/>
<path d="M138.752 93.2789V93.4777L138.848 93.3739L127.26 80.0274V105.951L138.752 93.4777V93.2789Z" fill="#3C3C84"/>
<path d="M132.936 114.025L138.752 110.844V110.783L127.26 106.15V106.332L132.936 114.025Z" fill="#44448E"/>
<path d="M138.752 93.4777L127.26 105.951V106.15L138.752 110.783V93.4777Z" fill="#6565BA"/>
<path d="M132.936 114.025L138.717 117.18L144.498 110.334L138.752 110.844L132.936 114.025Z" fill="#5454A3"/>
<path d="M138.717 117.189L152.705 124.83H152.731V100.583L138.717 117.189Z" fill="#44448E"/>
<path d="M132.936 114.025L127.26 106.332V124.795L132.875 114.059L132.936 114.025Z" fill="#5454A3"/>
<path d="M138.472 24.3938L138.752 25.0594L138.603 24.2641L152.714 1.20154L152.731 1.06323V0.942215H127.409L138.577 24.2814L138.472 24.3938Z" fill="#2D2D6B"/>
<path d="M138.375 24.3246L138.34 24.5407L138.472 24.3938L138.41 24.2468L138.472 24.3938L138.577 24.2814L127.409 0.942215H127.26V36.4869L138.34 24.5407L138.375 24.3246Z" fill="#44448E"/>
<path d="M138.971 93.2357V92.6825L138.875 93.1579L138.971 92.6825V70.4584L138.953 70.467L138.875 70.5794L138.953 70.467L127.26 79.6125V80.0274L138.848 93.374L138.971 93.2357Z" fill="#5454A3"/>
<path d="M152.732 1.17561V1.06323L152.714 1.20154L152.732 1.17561Z" fill="black"/>
<path d="M138.34 24.5407L127.26 36.4869V36.971L132.034 58.8493L138.34 24.5407Z" fill="#6565BA"/>
<path d="M132.043 58.8839V58.9011L127.26 79.0766V79.6125L138.953 70.467L132.043 58.8839Z" fill="#6565BA"/>
<path d="M132.043 58.8839L138.953 70.467L145.54 61.5549L132.043 58.8839Z" fill="#5454A3"/>
<path d="M132.043 58.8839L131.946 58.8666L132.043 58.8839L132.034 58.8666V58.8493L127.26 36.971V79.0766L132.043 58.9012V58.8839Z" fill="#3C3C84"/>
<path d="M240.69 10.1396L241.671 31.8364L241.776 31.6894L252.987 1.13239L240.69 10.1396Z" fill="#D6D6D6"/>
<path d="M252.987 1.13239L253.057 0.942215H232.158L240.69 10.1396L252.987 1.13239Z" fill="#8E8E8E"/>
<path d="M240.69 10.1396L232.158 0.942215H232.132L224.407 22.008L224.398 22.0771L240.69 10.1396Z" fill="#6D6D6D"/>
<path d="M224.399 22.0818L224.409 22.008L224.38 22.0911L224.399 22.0818Z" fill="black"/>
<path d="M224.38 22.0858L224.389 22.1282L224.398 22.0942L224.38 22.0858Z" fill="black"/>
<path d="M241.715 31.8623L241.778 31.6894L241.671 31.8363L241.715 31.8623Z" fill="black"/>
<path d="M231.151 46.1078L231.186 46.0127L224.389 22.129L221.332 48.9518L231.151 46.1078Z" fill="#5B5B5B"/>
<path d="M240.69 10.1396L224.398 22.0771V22.0944L241.671 31.9747L240.69 10.1396Z" fill="#8E8E8E"/>
<path d="M224.38 22.0861L224.399 22.0951V22.0771L224.38 22.0861Z" fill="black"/>
<path d="M221.323 48.9604L221.332 48.9518L221.323 48.9604Z" fill="black"/>
<path d="M212.573 54.2506L207.528 68.0121L221.323 48.9604L212.573 54.2506Z" fill="#6D6D6D"/>
<path d="M206.696 93.1146L212.985 97.1688L219.808 91.5587L219.852 91.4377L206.818 93.0109L206.696 93.1146Z" fill="#5B5B5B"/>
<path d="M199.61 111.847L186.103 126.412L186.086 126.446H206.976L199.689 111.803L199.61 111.847Z" fill="#8E8E8E"/>
<path d="M213.125 97.2638L199.61 111.847L199.689 111.803L206.976 126.446H207.011L219.808 91.5587L212.985 97.1688L213.125 97.2638Z" fill="#A5A5A5"/>
<path d="M206.818 93.0109L219.852 91.4377L219.957 91.1611L218.538 83.3813L206.818 93.0109Z" fill="#8E8E8E"/>
<path d="M241.671 31.8364V31.966L241.715 31.8623L241.671 31.8364Z" fill="black"/>
<path d="M231.195 46.2375L220.36 90.0546L241.671 31.966L231.195 46.2375Z" fill="#8E8E8E"/>
<path d="M224.398 22.0944L224.389 22.129L231.151 46.1078L231.186 46.2375L241.671 31.9747L224.398 22.0944Z" fill="#6D6D6D"/>
<path d="M230.993 46.5573L218.573 83.3554L218.538 83.3813L219.957 91.1611L220.36 90.0546L231.221 46.2375L230.993 46.5573Z" fill="#A5A5A5"/>
<path d="M213.125 97.2638L212.985 97.1688L189.843 116.203L189.8 116.333L199.61 111.847L213.125 97.2638Z" fill="#8E8E8E"/>
<path d="M189.8 116.333L186.103 126.412L199.61 111.846L189.8 116.333Z" fill="#5B5B5B"/>
<path d="M218.538 83.3813L218.529 83.3295L198.016 93.9272L197.963 94.0828L206.818 93.0109L218.538 83.3813Z" fill="#A5A5A5"/>
<path d="M218.529 83.3295L218.538 83.3813L218.573 83.3554L230.993 46.5573L198.217 93.3912L198.016 93.9272L218.529 83.3295Z" fill="#5B5B5B"/>
<path d="M221.332 48.9517L224.389 22.129L224.38 22.0858L212.573 54.2506L221.323 48.9604L221.332 48.9517Z" fill="#8E8E8E"/>
<path d="M231.142 46.1251L231.151 46.1078L221.332 48.9517L221.323 48.9604L207.528 68.0121L207.519 68.0466L231.142 46.1251Z" fill="#A5A5A5"/>
<path d="M231.142 46.1251L207.519 68.0467L198.217 93.3913L230.993 46.5573L231.142 46.1251Z" fill="#8E8E8E"/>
<path d="M197.963 94.0828L189.843 116.203L212.985 97.1687L212.941 97.1428L197.972 94.0828H197.963Z" fill="#A5A5A5"/>
<path d="M206.818 93.0109L197.972 94.0828L212.941 97.1428L206.696 93.1147L206.818 93.0109Z" fill="#8E8E8E"/>
<path d="M447.832 40.2903L427.896 0.942215L447.832 40.2903Z" fill="#F49F64"/>
<path d="M447.911 82.6379L447.929 82.6725L459.718 63.7591L447.832 40.2903V82.7676L447.911 82.6379Z" fill="#CE6313"/>
<path d="M459.727 64.1568L459.42 63.7073L460.489 62.9466L459.727 64.1568Z" fill="#C4611E"/>
<path d="M447.912 40.4373L447.832 40.2903L447.912 40.4373Z" fill="#FFEEE3"/>
<path d="M448.035 40.1945L447.637 40.3903L447.711 40.5378L448.109 40.3421L448.035 40.1945Z" fill="#C4611E"/>
<path d="M499.397 124.83L463.914 60.9066L463.975 60.8115L459.718 63.7591L499.353 124.83H499.397Z" fill="#FFEEE3"/>
<path d="M499.765 125.046H499.239L499.178 124.942L459.464 63.7592L459.596 63.5776L464.58 60.1113L464.168 60.8979L499.765 125.037V125.046ZM460.016 63.8197L496.357 119.808L463.818 61.1746L460.016 63.811V63.8197Z" fill="#C4611E"/>
<path d="M459.718 63.7592L447.928 82.6725L450.731 87.5997L450.924 87.7466L459.744 63.8024L459.718 63.7592Z" fill="#F49F64"/>
<path d="M459.745 63.8024L450.924 87.7466L451.021 87.8158L468.67 77.5552L459.745 63.8024Z" fill="#CE6313"/>
<path d="M468.67 77.5552L451.02 87.8158L475.625 106.677L468.696 77.5898L468.67 77.5552Z" fill="#EA7F36"/>
<path d="M499.353 124.83L468.696 77.5898L475.625 106.677L499.327 124.83H499.353Z" fill="#9B4912"/>
<path d="M450.749 87.6256L464.93 112.547L481.984 120.076L450.749 87.6256Z" fill="#E86207"/>
<path d="M464.93 112.547L471.867 124.744L481.958 120.058L464.93 112.547Z" fill="#9B4912"/>
<path d="M499.327 124.83L450.732 87.5997L450.749 87.6256L481.975 120.067L499.309 124.83H499.327Z" fill="#F49F64"/>
<path d="M499.309 124.83L481.975 120.067L481.984 120.076L481.957 120.058L471.867 124.744L471.919 124.83H499.309Z" fill="#EA7F36"/>
<path d="M417.456 96.5982L417.386 96.6242L424.104 124.778L428.764 116.532L417.403 96.6501L417.456 96.5982Z" fill="#EA7F36"/>
<path d="M417.403 96.6501L428.764 116.532L446.807 84.5915L446.764 84.5569L447.438 83.4591L447.832 82.7676V82.5861L417.456 96.5982L417.403 96.6501Z" fill="#CE6313"/>
<path d="M424.078 124.83L424.104 124.778L422.668 118.77L396.434 124.83H424.078Z" fill="#9B4912"/>
<path d="M417.403 96.6155L414.574 91.9563L396.417 124.83H396.434L396.548 124.804L417.412 96.7365L417.386 96.6241L417.403 96.6155Z" fill="#EA7F36"/>
<path d="M417.456 96.5982L431.698 60.9412L414.574 91.9563L417.403 96.6155L417.456 96.5982Z" fill="#9B4912"/>
<path d="M422.667 118.77L417.412 96.7365L396.548 124.804L422.667 118.77Z" fill="#F49F64"/>
<path d="M432.083 60.9844L447.832 82.4997V63.8543L432.083 60.9844Z" fill="#9B4912"/>
<path d="M422.483 30.2459L416.186 27.7304L415.345 29.6667L422.475 30.3496L422.483 30.2459Z" fill="#E86207"/>
<path d="M422.568 30.3659L422.484 30.2458L422.475 30.3566L422.568 30.3659Z" fill="#CE6313"/>
<path d="M422.475 30.3496L422.072 42.5378L422.098 42.5983L433.415 44.7248L422.562 30.3582L422.475 30.3496Z" fill="#CE6313"/>
<path d="M415.345 29.6667L415.328 29.6926L422.072 42.5378L422.475 30.3496L415.345 29.6667Z" fill="#F49F64"/>
<path d="M430.656 24.8865L438.907 36.6857L440.334 25.5002V25.4916L430.656 24.8865Z" fill="#E86207"/>
<path d="M417.824 24.0739L422.457 30.2113L430.656 24.8865L417.824 24.0739Z" fill="#F49F64"/>
<path d="M447.832 40.2903L440.335 25.5002L438.907 36.6857L439.029 36.8759L447.832 40.3941V40.2903Z" fill="#9B4912"/>
<path d="M438.889 36.8154L439.032 36.8759L438.907 36.6857L438.889 36.8154Z" fill="#F49F64"/>
<path d="M430.656 24.8865L422.457 30.2113L422.484 30.2458L438.889 36.8154L438.907 36.6857L430.656 24.8865Z" fill="#CE6313"/>
<path d="M417.789 24.0751H417.824L417.798 24.048L417.789 24.0751Z" fill="#F49F64"/>
<path d="M433.518 44.7432L433.415 44.7248L433.443 44.7709L433.518 44.7432Z" fill="#F49F64"/>
<path d="M433.441 44.768L447.832 63.8197V47.439L433.511 44.7421L433.441 44.768Z" fill="#F49F64"/>
<path d="M417.789 24.0739L416.186 27.7304L422.484 30.2458L417.824 24.0739H417.789Z" fill="#EA7F36"/>
<path d="M431.716 60.9066V60.9152L447.753 63.8456L426.04 50.0928L431.716 60.9066Z" fill="#CE6313"/>
<path d="M447.823 40.3941L422.484 30.2458L433.415 44.7248L433.511 44.7421L447.823 40.3941Z" fill="#EA7F36"/>
<path d="M447.832 47.439V40.394H447.823L433.511 44.742L447.832 47.439Z" fill="#E86207"/>
<path d="M415.328 29.6926L416.186 27.7304L413.795 26.7709L415.328 29.6926Z" fill="#F49F64"/>
<path d="M417.797 24.048L400.349 0.942215H400.244L412.2 23.7282L417.789 24.0739L417.797 24.048Z" fill="#E86207"/>
<path d="M427.897 0.942215H400.35L417.798 24.048L427.897 0.942215Z" fill="#F49F64"/>
<path d="M427.896 0.942215L430.656 24.8865L440.334 25.4916L427.896 0.942215Z" fill="#F49F64"/>
<path d="M417.806 24.0566L417.824 24.0739L430.656 24.8865L429.552 15.3088L417.806 24.0566Z" fill="#9B4912"/>
<path d="M427.897 0.942215L417.797 24.048L417.806 24.0566L429.552 15.3088L427.897 0.942215Z" fill="#EA7F36"/>
<path d="M413.795 26.7709L416.186 27.7304L416.203 27.6958L412.218 23.7541L413.795 26.7709Z" fill="#9B4912"/>
<path d="M412.201 23.7281L412.218 23.7541L416.203 27.6958L417.789 24.0739L412.201 23.7281Z" fill="#CE6313"/>
<path d="M433.441 44.768L433.336 44.8026L433.441 44.768L433.415 44.7334L425.978 49.989L426.04 50.0928L447.753 63.8456L447.832 63.8542V63.8197L433.441 44.768Z" fill="#E86207"/>
<path d="M433.415 44.7248L422.098 42.5983L425.979 49.989L433.415 44.7334V44.7248Z" fill="#9B4912"/>
<path d="M447.71 82.6379L447.832 82.5861V82.4996L432.083 60.9844L431.716 60.9152L431.698 60.9412L431.383 80.9523L447.71 82.6379Z" fill="#EA7F36"/>
<path d="M431.698 60.9412L417.587 96.2525L431.383 80.9523L431.698 60.9412Z" fill="#E86207"/>
<path d="M431.383 80.9523L417.587 96.2524L417.456 96.5982L417.552 96.555L417.596 96.4945L417.552 96.555L447.709 82.6379L431.383 80.9523Z" fill="#F49F64"/>
<path d="M459.718 63.7592L463.949 60.8201L478.296 14.5135L459.718 63.7592Z" fill="white"/>
<path d="M455.356 25.8719L447.911 40.4373L447.929 40.4891L466.384 46.0819L455.356 25.8719Z" fill="#F4BE9A"/>
<path d="M466.83 46.445L447.779 40.662L447.692 40.4805L447.718 40.3422L455.356 25.4051L466.839 46.445H466.83ZM448.2 40.3422L465.937 45.7275L455.365 26.3473L448.209 40.3508L448.2 40.3422Z" fill="#C4611E"/>
<path d="M478.288 14.5049L463.949 60.8201L463.975 60.8115L491.934 7.84023L478.288 14.5049Z" fill="#FFEEE3"/>
<path d="M463.572 61.3561L463.739 60.7596L478.103 14.3579L492.433 7.34752L464.098 60.9844L463.572 61.3561ZM478.471 14.6605L464.833 58.7023L491.426 8.32431L478.471 14.6605Z" fill="#C4611E"/>
<path d="M459.718 63.7592L466.357 46.1424L447.928 40.4891L459.718 63.7592Z" fill="#EA8B49"/>
<path d="M459.753 64.3037L447.508 40.1347L466.647 46.0041L459.753 64.3037ZM448.358 40.8436L459.692 63.2146L466.077 46.2721L448.358 40.8349V40.8436Z" fill="#C4611E"/>
<path d="M455.461 25.6731L455.356 25.8719L466.375 46.0992L478.278 14.5135L455.461 25.6731Z" fill="#FFC9AE"/>
<path d="M466.41 46.6265L455.111 25.8805L455.295 25.5175L478.673 14.0813L466.41 46.6265ZM455.602 25.8719L466.34 45.5805L477.885 14.9544L455.61 25.8719H455.602Z" fill="#C4611E"/>
<path d="M491.934 7.84024L495.578 0.942215H468.101V0.950859L491.829 7.88346L491.934 7.84024Z" fill="#FFEEE3"/>
<path d="M491.847 8.11684L491.768 8.09091L467.785 1.08051L467.961 0.734749H468.101L495.937 0.726105L492.101 7.99582L491.855 8.11684H491.847ZM469.572 1.15831L491.785 7.65006L495.21 1.15831H469.572Z" fill="#C4611E"/>
<path d="M454.971 26.1572L467.987 0.691528L492.433 7.83159L454.971 26.1485V26.1572ZM468.214 1.21018L455.952 25.189L491.233 7.93532L468.214 1.21018Z" fill="#C4611E"/>
<path d="M468.109 1.84985C468.627 1.84985 469.047 1.43574 469.047 0.924923C469.047 0.414102 468.627 0 468.109 0C467.592 0 467.172 0.414102 467.172 0.924923C467.172 1.43574 467.592 1.84985 468.109 1.84985Z" fill="#C4611E"/>
<path d="M495.525 1.89307C496.043 1.89307 496.462 1.47897 496.462 0.968151C496.462 0.45733 496.043 0.0432281 495.525 0.0432281C495.008 0.0432281 494.588 0.45733 494.588 0.968151C494.588 1.47897 495.008 1.89307 495.525 1.89307Z" fill="#C4611E"/>
<path d="M491.811 8.79108C492.329 8.79108 492.749 8.37698 492.749 7.86616C492.749 7.35534 492.329 6.94124 491.811 6.94124C491.294 6.94124 490.874 7.35534 490.874 7.86616C490.874 8.37698 491.294 8.79108 491.811 8.79108Z" fill="#C4611E"/>
<path d="M478.235 15.4816C478.752 15.4816 479.172 15.0675 479.172 14.5567C479.172 14.0459 478.752 13.6318 478.235 13.6318C477.717 13.6318 477.298 14.0459 477.298 14.5567C477.298 15.0675 477.717 15.4816 478.235 15.4816Z" fill="#C4611E"/>
<path d="M455.321 26.6672C455.839 26.6672 456.258 26.2531 456.258 25.7422C456.258 25.2314 455.839 24.8173 455.321 24.8173C454.804 24.8173 454.384 25.2314 454.384 25.7422C454.384 26.2531 454.804 26.6672 455.321 26.6672Z" fill="#C4611E"/>
<path d="M466.375 46.9377C466.893 46.9377 467.312 46.5236 467.312 46.0128C467.312 45.5019 466.893 45.0878 466.375 45.0878C465.857 45.0878 465.438 45.5019 465.438 46.0128C465.438 46.5236 465.857 46.9377 466.375 46.9377Z" fill="#C4611E"/>
<path d="M463.984 61.9957C464.501 61.9957 464.921 61.5816 464.921 61.0708C464.921 60.56 464.501 60.1459 463.984 60.1459C463.466 60.1459 463.047 60.56 463.047 61.0708C463.047 61.5816 463.466 61.9957 463.984 61.9957Z" fill="#C4611E"/>
<path d="M459.727 64.5803C460.245 64.5803 460.664 64.1662 460.664 63.6554C460.664 63.1446 460.245 62.7305 459.727 62.7305C459.209 62.7305 458.79 63.1446 458.79 63.6554C458.79 64.1662 459.209 64.5803 459.727 64.5803Z" fill="#C4611E"/>
<path d="M447.902 41.2498C448.42 41.2498 448.84 40.8357 448.84 40.3249C448.84 39.8141 448.42 39.4 447.902 39.4C447.385 39.4 446.965 39.8141 446.965 40.3249C446.965 40.8357 447.385 41.2498 447.902 41.2498Z" fill="#C4611E"/>
</g>
<g clip-path="url(#clip1_4_925)">
<path d="M523.04 123.453L549.428 48.8447H564.158L590.546 123.453H574.167L569.551 109.29H544.153L539.537 123.453H523.04ZM548.214 96.5276H565.365L556.786 70.2511L548.214 96.5276Z" fill="url(#paint0_linear_4_925)"/>
<path d="M614.184 123.453H598.794V48.8447H614.184V123.453Z" fill="url(#paint1_linear_4_925)"/>
<path d="M636.622 59.2269H668.714V65.7311C675.591 60.2709 681.848 51.9444 684.934 45.3558H696.044C701.425 54.3762 709.271 63.3058 717.467 67.2097C715.324 71.0228 713.175 74.8423 711.032 78.6554C703.271 73.7983 695.161 64.6093 690.842 57.236C686.701 64.6936 678.94 74.0577 670.388 79.4336C668.476 75.9642 666.571 72.4948 664.658 69.0254H636.622V59.2269ZM640.414 95.8207H666.511V122.791H640.414V95.8207ZM640.585 71.6323H666.327V80.9964H640.585V71.6323ZM640.585 83.5968H666.327V92.9609H640.585V83.5968ZM640.855 56.7172V47.3532H666.162V56.7172H640.855ZM656.192 112.993V105.619H650.462V112.993H656.192ZM703.449 94.9518L714.381 99.8932C705.388 113.336 691.369 121.831 675.855 127.382C673.329 123.796 670.797 120.217 668.272 116.631C682.376 112.817 696.222 105.704 703.449 94.9518ZM689.609 68.5067L700.192 72.845C694.904 79.9524 687.407 86.1129 680.088 90.3605C677.529 87.8444 674.971 85.3283 672.419 82.8187C678.591 79.6087 685.91 73.9734 689.609 68.5131V68.5067ZM697.455 80.737L708.124 85.4191C700.983 94.6081 690.664 101.897 680.173 106.923C677.648 104.031 675.116 101.145 672.591 98.2525C681.762 94.6081 692.253 88.0195 697.455 80.737Z" fill="url(#paint2_linear_4_925)"/>
<path d="M800 73.1887V84.8095H793.65V127.039H782.191V84.8095H776.368C776.105 97.643 773.988 115.677 763.583 127.123C761.177 124.581 758.763 122.039 756.357 119.49H722.59V47.6969H733.081V93.5705C736.252 88.9728 739.431 84.3815 742.602 79.7838H734.314V69.3756H743.393V66.2564L736.338 68.5974C735.573 63.656 734.808 58.7146 734.044 53.7667L741.185 51.3413C741.916 54.2595 742.655 57.1777 743.387 60.0958V45.9654H753.264V62.5276C753.996 58.7989 754.735 55.0701 755.466 51.3413L764.81 53.5073C762.871 58.5071 760.933 63.5069 758.987 68.5067L753.258 66.7752V69.3756H762.337V79.7838H753.258V80.0432C756.64 83.2207 760.016 86.4048 763.399 89.5823L757.049 97.9088C755.783 95.8596 754.524 93.8039 753.258 91.7547V107.273H743.38V95.8272C741.145 98.8362 738.916 101.839 736.681 104.848C735.474 101.897 734.274 98.9529 733.068 96.0023V108.751H760.662V109.186C764.368 100.256 764.803 90.1076 764.803 81.6125V51.3413C768.601 51.4321 773.704 51.1662 779.507 49.6942C783.846 48.5918 787.465 47.1067 790.288 45.706L799.987 54.8107C792.846 58.1893 784.38 60.7054 776.362 62.6119V73.1887H800Z" fill="url(#paint3_linear_4_925)"/>
</g>
<defs>
<linearGradient id="paint0_linear_4_925" x1="523.04" y1="120.834" x2="804.218" y2="87.7289" gradientUnits="userSpaceOnUse">
<stop stop-color="#8829FF"/>
<stop offset="1" stop-color="#2176BB"/>
</linearGradient>
<linearGradient id="paint1_linear_4_925" x1="523.04" y1="120.834" x2="804.218" y2="87.7289" gradientUnits="userSpaceOnUse">
<stop stop-color="#8829FF"/>
<stop offset="1" stop-color="#2176BB"/>
</linearGradient>
<linearGradient id="paint2_linear_4_925" x1="523.04" y1="120.834" x2="804.218" y2="87.7289" gradientUnits="userSpaceOnUse">
<stop stop-color="#8829FF"/>
<stop offset="1" stop-color="#2176BB"/>
</linearGradient>
<linearGradient id="paint3_linear_4_925" x1="523.04" y1="120.834" x2="804.218" y2="87.7289" gradientUnits="userSpaceOnUse">
<stop stop-color="#8829FF"/>
<stop offset="1" stop-color="#2176BB"/>
</linearGradient>
<clipPath id="clip0_4_925">
<rect width="499.765" height="126.446" fill="white"/>
</clipPath>
<clipPath id="clip1_4_925">
<rect width="276.96" height="82.0265" fill="white" transform="translate(523.04 45.3558)"/>
</clipPath>
</defs>
</svg>
