<svg width="357" height="236" viewBox="0 0 357 236" fill="none" xmlns="http://www.w3.org/2000/svg">
<g clip-path="url(#clip0_5_2178)">
<path d="M223.096 145.888C223.029 145.888 222.965 145.853 222.929 145.791C222.877 145.699 222.908 145.582 223 145.529L241.05 135.104C241.656 134.754 242.407 134.755 243.013 135.107L260.942 145.529C261.034 145.583 261.064 145.7 261.011 145.792C260.957 145.884 260.84 145.914 260.748 145.862L242.818 135.439C242.333 135.158 241.728 135.157 241.241 135.437L223.191 145.862C223.161 145.88 223.128 145.888 223.094 145.888H223.096Z" fill="#E3E6EB"/>
<path d="M256.183 165.988C256.117 165.988 256.053 165.953 256.017 165.891C255.964 165.799 255.996 165.682 256.088 165.629L273.561 155.538C273.807 155.396 273.954 155.143 273.954 154.857C273.954 154.573 273.808 154.318 273.562 154.175L256.21 144.088C256.118 144.034 256.087 143.917 256.141 143.825C256.193 143.733 256.311 143.703 256.404 143.755L273.756 153.842C274.122 154.055 274.339 154.434 274.338 154.857C274.338 155.28 274.119 155.658 273.753 155.87L256.28 165.961C256.249 165.979 256.217 165.987 256.183 165.987V165.988Z" fill="#E3E6EB"/>
<path d="M207.324 112.517C207.258 112.517 207.192 112.482 207.158 112.421C207.105 112.329 207.137 112.211 207.229 112.159L265.427 78.8314C265.519 78.7779 265.636 78.8105 265.689 78.9024C265.742 78.9944 265.71 79.112 265.618 79.1644L207.419 112.492C207.389 112.509 207.357 112.517 207.324 112.517Z" fill="#E3E6EB"/>
<path d="M210.442 113.49C211.832 112.688 211.84 111.386 210.459 110.584C209.079 109.781 206.832 109.781 205.442 110.584C204.052 111.386 204.045 112.687 205.426 113.489C206.806 114.291 209.052 114.293 210.442 113.489V113.49Z" fill="white"/>
<path d="M207.932 114.281C206.988 114.281 206.046 114.073 205.329 113.657C204.602 113.234 204.203 112.66 204.204 112.042C204.204 111.421 204.611 110.843 205.347 110.418C206.787 109.586 209.124 109.586 210.557 110.418C211.283 110.841 211.683 111.414 211.683 112.033C211.683 112.656 211.275 113.233 210.54 113.658C209.82 114.074 208.875 114.282 207.933 114.282L207.932 114.281ZM207.955 110.173C207.081 110.173 206.206 110.365 205.539 110.751C204.926 111.105 204.589 111.564 204.589 112.043C204.589 112.52 204.919 112.975 205.525 113.325C206.85 114.096 209.013 114.096 210.348 113.325C210.96 112.971 211.297 112.513 211.299 112.032C211.299 111.556 210.968 111.102 210.364 110.751C209.702 110.366 208.829 110.174 207.956 110.174L207.955 110.173Z" fill="#E3E6EB"/>
<path d="M207.95 111.12C207.409 111.12 206.884 111.244 206.512 111.459C206.213 111.631 206.041 111.844 206.04 112.041C206.04 112.236 206.208 112.445 206.502 112.616C206.871 112.83 207.394 112.954 207.935 112.954C208.476 112.954 209 112.83 209.372 112.615C209.672 112.443 209.844 112.23 209.844 112.032C209.844 111.837 209.676 111.628 209.383 111.457C209.014 111.242 208.491 111.119 207.951 111.119L207.95 111.12Z" fill="#5340E2"/>
<path d="M220.183 104.156C219.602 104.156 219.038 104.289 218.639 104.52C218.318 104.705 218.134 104.933 218.133 105.145C218.133 105.354 218.313 105.579 218.629 105.763C219.025 105.993 219.586 106.126 220.167 106.126C220.748 106.126 221.311 105.993 221.71 105.763C222.032 105.578 222.217 105.35 222.217 105.137C222.217 104.927 222.036 104.702 221.721 104.52C221.324 104.289 220.764 104.157 220.183 104.157V104.156Z" fill="#013F71"/>
<path d="M210.442 113.49C211.832 112.688 211.84 111.386 210.459 110.584C209.079 109.781 206.832 109.781 205.442 110.584C204.052 111.386 204.045 112.687 205.426 113.489C206.806 114.291 209.052 114.293 210.442 113.489V113.49Z" fill="white"/>
<path d="M207.932 114.281C206.988 114.281 206.046 114.073 205.329 113.657C204.602 113.234 204.203 112.66 204.204 112.042C204.204 111.421 204.611 110.843 205.347 110.418C206.787 109.586 209.124 109.586 210.557 110.418C211.283 110.841 211.683 111.414 211.683 112.033C211.683 112.656 211.275 113.233 210.54 113.658C209.82 114.074 208.875 114.282 207.933 114.282L207.932 114.281ZM207.955 110.173C207.081 110.173 206.206 110.365 205.539 110.751C204.926 111.105 204.589 111.564 204.589 112.043C204.589 112.52 204.919 112.975 205.525 113.325C206.85 114.096 209.013 114.096 210.348 113.325C210.96 112.971 211.297 112.513 211.299 112.032C211.299 111.556 210.968 111.102 210.364 110.751C209.702 110.366 208.829 110.174 207.956 110.174L207.955 110.173Z" fill="#E3E6EB"/>
<path d="M207.95 111.12C207.409 111.12 206.884 111.244 206.512 111.459C206.213 111.631 206.041 111.844 206.04 112.041C206.04 112.236 206.208 112.445 206.502 112.616C206.871 112.83 207.394 112.954 207.935 112.954C208.476 112.954 209 112.83 209.372 112.615C209.672 112.443 209.844 112.23 209.844 112.032C209.844 111.837 209.676 111.628 209.383 111.457C209.014 111.242 208.491 111.119 207.951 111.119L207.95 111.12Z" fill="#5340E2"/>
<path d="M256.096 92.4601C256.063 92.4601 256.03 92.4519 256 92.4345L197.8 59.1071C197.708 59.0548 197.677 58.9372 197.729 58.8452C197.781 58.7521 197.899 58.7206 197.991 58.7742L256.191 92.1015C256.283 92.1539 256.314 92.2715 256.262 92.3635C256.227 92.4263 256.162 92.4601 256.096 92.4601Z" fill="#E3E6EB"/>
<path d="M201.014 57.7753C202.403 58.5774 202.411 59.8801 201.031 60.6822C199.651 61.4843 197.403 61.4843 196.014 60.6822C194.624 59.8801 194.617 58.5786 195.997 57.7765C197.378 56.9744 199.624 56.9732 201.014 57.7765V57.7753Z" fill="white"/>
<path d="M198.526 61.4727C197.582 61.4727 196.639 61.2643 195.918 60.8476C195.183 60.4226 194.776 59.8452 194.776 59.2236C194.776 58.6054 195.174 58.0315 195.902 57.6089C197.333 56.7777 199.669 56.7765 201.11 57.6089C201.847 58.0338 202.252 58.6112 202.253 59.234C202.253 59.8522 201.854 60.4261 201.128 60.8487C200.412 61.2643 199.469 61.4727 198.526 61.4727ZM198.503 57.3633C197.629 57.3633 196.757 57.5553 196.095 57.9418C195.491 58.2922 195.159 58.7486 195.159 59.2236C195.159 59.702 195.497 60.1607 196.109 60.5146C197.444 61.2853 199.609 61.2864 200.933 60.5146C201.536 60.1642 201.869 59.709 201.869 59.2329C201.869 58.7532 201.53 58.2946 200.918 57.9407C200.251 57.5553 199.376 57.3633 198.503 57.3633Z" fill="#E3E6EB"/>
<path d="M198.522 60.1456C197.981 60.1456 197.456 60.0222 197.083 59.8068C196.784 59.6345 196.613 59.4215 196.612 59.2248C196.612 59.0304 196.779 58.8208 197.074 58.6497C197.443 58.4355 197.965 58.3121 198.507 58.3121C199.048 58.3121 199.572 58.4355 199.944 58.6508C200.243 58.8231 200.415 59.0362 200.415 59.2341C200.415 59.4285 200.248 59.638 199.954 59.8092C199.585 60.0234 199.063 60.1468 198.523 60.1468L198.522 60.1456Z" fill="#5340E2"/>
<path d="M210.754 67.1096C210.172 67.1096 209.609 66.9769 209.209 66.7464C208.888 66.5613 208.704 66.3331 208.703 66.1212C208.703 65.9117 208.884 65.687 209.199 65.503C209.596 65.2725 210.157 65.1398 210.738 65.1398C211.318 65.1398 211.882 65.2725 212.281 65.503C212.602 65.6881 212.787 65.9163 212.787 66.1294C212.787 66.3389 212.607 66.5636 212.291 66.7464C211.894 66.9769 211.335 67.1084 210.754 67.1084V67.1096Z" fill="#013F71"/>
<path d="M201.014 57.7753C202.403 58.5774 202.411 59.8801 201.031 60.6822C199.651 61.4843 197.403 61.4843 196.014 60.6822C194.624 59.8801 194.617 58.5786 195.997 57.7765C197.378 56.9744 199.624 56.9732 201.014 57.7765V57.7753Z" fill="white"/>
<path d="M198.526 61.4727C197.582 61.4727 196.639 61.2643 195.918 60.8476C195.183 60.4226 194.776 59.8452 194.776 59.2236C194.776 58.6054 195.174 58.0315 195.902 57.6089C197.333 56.7777 199.669 56.7765 201.11 57.6089C201.847 58.0338 202.252 58.6112 202.253 59.234C202.253 59.8522 201.854 60.4261 201.128 60.8487C200.412 61.2643 199.469 61.4727 198.526 61.4727ZM198.503 57.3633C197.629 57.3633 196.757 57.5553 196.095 57.9418C195.491 58.2922 195.159 58.7486 195.159 59.2236C195.159 59.702 195.497 60.1607 196.109 60.5146C197.444 61.2853 199.609 61.2864 200.933 60.5146C201.536 60.1642 201.869 59.709 201.869 59.2329C201.869 58.7532 201.53 58.2946 200.918 57.9407C200.251 57.5553 199.376 57.3633 198.503 57.3633Z" fill="#E3E6EB"/>
<path d="M198.522 60.1456C197.981 60.1456 197.456 60.0222 197.083 59.8068C196.784 59.6345 196.613 59.4215 196.612 59.2248C196.612 59.0304 196.779 58.8208 197.074 58.6497C197.443 58.4355 197.965 58.3121 198.507 58.3121C199.048 58.3121 199.572 58.4355 199.944 58.6508C200.243 58.8231 200.415 59.0362 200.415 59.2341C200.415 59.4285 200.248 59.638 199.954 59.8092C199.585 60.0234 199.063 60.1468 198.523 60.1468L198.522 60.1456Z" fill="#5340E2"/>
<path d="M242.001 214.367C241.935 214.367 241.871 214.332 241.835 214.27C241.782 214.178 241.814 214.06 241.906 214.008L262.171 202.305C262.348 202.204 262.453 202.021 262.453 201.818C262.453 201.616 262.348 201.433 262.172 201.33L233.247 184.543C233.155 184.49 233.123 184.372 233.177 184.28C233.229 184.187 233.349 184.157 233.439 184.21L262.364 200.997C262.661 201.169 262.837 201.476 262.837 201.818C262.837 202.16 262.66 202.467 262.363 202.638L242.098 214.341C242.068 214.358 242.035 214.367 242.001 214.367Z" fill="#E3E6EB"/>
<path d="M245.813 214.468C247.192 213.673 247.2 212.383 245.829 211.588C244.458 210.793 242.228 210.793 240.849 211.588C239.47 212.383 239.463 213.673 240.834 214.468C242.204 215.263 244.434 215.263 245.813 214.468Z" fill="white"/>
<path d="M243.32 215.252C242.383 215.252 241.448 215.046 240.737 214.634C240.015 214.215 239.617 213.646 239.618 213.032C239.619 212.415 240.023 211.844 240.754 211.421C242.184 210.597 244.506 210.597 245.926 211.421C246.649 211.84 247.045 212.408 247.045 213.023C247.045 213.641 246.642 214.213 245.91 214.635C245.194 215.048 244.258 215.254 243.321 215.254L243.32 215.252ZM243.343 211.181C242.476 211.181 241.608 211.372 240.946 211.754C240.338 212.105 240.003 212.559 240.002 213.032C240.002 213.503 240.331 213.953 240.929 214.301C242.246 215.065 244.392 215.065 245.716 214.301C246.324 213.951 246.659 213.497 246.66 213.022C246.66 212.552 246.332 212.101 245.734 211.753C245.076 211.371 244.21 211.181 243.344 211.181H243.343Z" fill="#E3E6EB"/>
<path d="M243.34 212.119C242.802 212.119 242.282 212.241 241.912 212.454C241.615 212.625 241.444 212.836 241.444 213.03C241.444 213.223 241.61 213.431 241.902 213.601C242.269 213.814 242.787 213.936 243.325 213.936C243.862 213.936 244.381 213.814 244.751 213.601C245.048 213.429 245.219 213.219 245.219 213.023C245.219 212.83 245.053 212.623 244.761 212.454C244.394 212.241 243.876 212.12 243.339 212.12L243.34 212.119Z" fill="#5340E2"/>
<path d="M245.813 214.468C247.192 213.673 247.2 212.383 245.829 211.588C244.458 210.793 242.228 210.793 240.849 211.588C239.47 212.383 239.463 213.673 240.834 214.468C242.204 215.263 244.434 215.263 245.813 214.468Z" fill="white"/>
<path d="M243.32 215.252C242.383 215.252 241.448 215.046 240.737 214.634C240.015 214.215 239.617 213.646 239.618 213.032C239.619 212.415 240.023 211.844 240.754 211.421C242.184 210.597 244.506 210.597 245.926 211.421C246.649 211.84 247.045 212.408 247.045 213.023C247.045 213.641 246.642 214.213 245.91 214.635C245.194 215.048 244.258 215.254 243.321 215.254L243.32 215.252ZM243.343 211.181C242.476 211.181 241.608 211.372 240.946 211.754C240.338 212.105 240.003 212.559 240.002 213.032C240.002 213.503 240.331 213.953 240.929 214.301C242.246 215.065 244.392 215.065 245.716 214.301C246.324 213.951 246.659 213.497 246.66 213.022C246.66 212.552 246.332 212.101 245.734 211.753C245.076 211.371 244.21 211.181 243.344 211.181H243.343Z" fill="#E3E6EB"/>
<path d="M243.34 212.119C242.802 212.119 242.282 212.241 241.912 212.454C241.615 212.625 241.444 212.836 241.444 213.03C241.444 213.223 241.61 213.431 241.902 213.601C242.269 213.814 242.787 213.936 243.325 213.936C243.862 213.936 244.381 213.814 244.751 213.601C245.048 213.429 245.219 213.219 245.219 213.023C245.219 212.83 245.053 212.623 244.761 212.454C244.394 212.241 243.876 212.12 243.339 212.12L243.34 212.119Z" fill="#5340E2"/>
<path d="M254.193 206.02C253.615 206.02 253.057 206.151 252.659 206.379C252.34 206.563 252.157 206.789 252.157 206.999C252.157 207.206 252.336 207.429 252.649 207.611C253.043 207.839 253.6 207.971 254.176 207.971C254.754 207.971 255.312 207.839 255.709 207.611C256.028 207.427 256.212 207.201 256.212 206.99C256.212 206.783 256.033 206.56 255.72 206.378C255.326 206.15 254.77 206.018 254.193 206.018V206.02Z" fill="#013F71"/>
<path d="M188.27 190.584C188.238 190.584 188.204 190.576 188.174 190.558L151.915 169.619C151.823 169.566 151.791 169.449 151.844 169.357C151.897 169.265 152.016 169.234 152.107 169.287L188.366 190.227C188.458 190.279 188.489 190.397 188.437 190.489C188.401 190.55 188.337 190.585 188.27 190.585V190.584Z" fill="#E3E6EB"/>
<path d="M184.402 190.957C183.012 190.155 183.004 188.852 184.384 188.05C185.765 187.248 188.012 187.248 189.402 188.05C190.791 188.852 190.798 190.153 189.418 190.955C188.038 191.758 185.791 191.759 184.402 190.955V190.957Z" fill="white"/>
<path d="M186.912 191.747C185.969 191.747 185.026 191.539 184.305 191.123C183.568 190.698 183.163 190.121 183.161 189.499C183.161 188.881 183.56 188.307 184.286 187.884C185.719 187.052 188.056 187.052 189.497 187.884C190.233 188.309 190.639 188.887 190.639 189.508C190.639 190.127 190.241 190.701 189.513 191.123C188.796 191.539 187.855 191.747 186.911 191.747H186.912ZM186.889 187.639C186.015 187.639 185.143 187.831 184.481 188.216C183.878 188.567 183.545 189.022 183.545 189.498C183.545 189.978 183.884 190.436 184.497 190.79C185.83 191.561 187.995 191.561 189.32 190.79C189.924 190.44 190.256 189.983 190.256 189.508C190.256 189.03 189.918 188.571 189.306 188.216C188.639 187.831 187.763 187.638 186.89 187.638L186.889 187.639Z" fill="#E3E6EB"/>
<path d="M186.894 188.588C187.435 188.588 187.96 188.711 188.332 188.926C188.631 189.099 188.802 189.312 188.803 189.508C188.803 189.703 188.636 189.912 188.341 190.083C187.972 190.298 187.45 190.421 186.909 190.421C186.367 190.421 185.844 190.298 185.471 190.082C185.172 189.91 185 189.697 185 189.499C185 189.305 185.168 189.095 185.461 188.924C185.83 188.71 186.352 188.586 186.892 188.586L186.894 188.588Z" fill="#5340E2"/>
<path d="M172.628 182.603C172.628 182.393 172.808 182.168 173.124 181.986C173.521 181.755 174.081 181.624 174.661 181.624C175.243 181.624 175.807 181.756 176.206 181.987C176.527 182.172 176.711 182.4 176.712 182.612C176.712 182.822 176.532 183.046 176.216 183.23C175.819 183.461 175.258 183.593 174.678 183.593C174.097 183.593 173.534 183.461 173.134 183.23C172.813 183.045 172.628 182.817 172.628 182.604" fill="#013F71"/>
<path d="M135.103 200.761C135.036 200.761 134.972 200.727 134.936 200.666C134.883 200.574 134.913 200.456 135.005 200.403L152.961 189.854C153.096 189.775 153.176 189.634 153.175 189.478C153.175 189.322 153.094 189.181 152.959 189.103L123.933 172.224C123.841 172.171 123.811 172.053 123.865 171.961C123.917 171.868 124.034 171.838 124.128 171.891L153.153 188.77C153.408 188.918 153.559 189.182 153.561 189.477C153.561 189.772 153.41 190.037 153.157 190.186L135.201 200.734C135.17 200.752 135.137 200.761 135.103 200.761Z" fill="#E3E6EB"/>
<path d="M137.25 201.888C138.637 201.086 138.646 199.784 137.268 198.982C135.89 198.18 133.647 198.18 132.26 198.982C130.872 199.784 130.865 201.086 132.243 201.888C133.621 202.69 135.863 202.69 137.25 201.888Z" fill="white"/>
<path d="M134.744 202.678C133.803 202.678 132.861 202.47 132.147 202.053C131.42 201.631 131.021 201.058 131.022 200.44C131.022 199.818 131.429 199.241 132.163 198.816C133.601 197.983 135.935 197.983 137.363 198.816C138.089 199.238 138.489 199.811 138.487 200.43C138.486 201.053 138.08 201.629 137.346 202.054C136.626 202.47 135.685 202.678 134.743 202.678H134.744ZM134.768 198.57C133.896 198.57 133.023 198.763 132.356 199.149C131.745 199.503 131.409 199.961 131.408 200.44C131.408 200.916 131.738 201.371 132.341 201.721C133.664 202.493 135.824 202.492 137.155 201.721C137.766 201.368 138.103 200.909 138.104 200.429C138.104 199.953 137.774 199.498 137.171 199.148C136.51 198.762 135.639 198.57 134.768 198.57Z" fill="#E3E6EB"/>
<path d="M134.763 199.518C134.222 199.518 133.699 199.641 133.327 199.857C133.029 200.029 132.857 200.242 132.857 200.439C132.857 200.633 133.024 200.843 133.317 201.014C133.686 201.228 134.208 201.351 134.748 201.351C135.288 201.351 135.81 201.228 136.183 201.014C136.482 200.841 136.653 200.628 136.653 200.432C136.653 200.237 136.486 200.028 136.192 199.857C135.823 199.642 135.303 199.519 134.763 199.519V199.518Z" fill="#5340E2"/>
<path d="M146.974 192.555C146.393 192.555 145.831 192.688 145.432 192.918C145.112 193.103 144.927 193.331 144.927 193.543C144.927 193.753 145.107 193.978 145.422 194.162C145.817 194.392 146.377 194.525 146.957 194.525C147.536 194.525 148.099 194.392 148.498 194.162C148.819 193.976 149.003 193.748 149.003 193.536C149.003 193.327 148.822 193.102 148.508 192.919C148.112 192.689 147.553 192.557 146.973 192.557L146.974 192.555Z" fill="#013F71"/>
<g opacity="0.1">
<path d="M81.2533 173.271C79.4435 174.316 79.4341 176.014 81.2323 177.059L84.1396 178.82C85.9378 179.866 88.8684 179.866 90.6771 178.82L159.379 139.145C161.193 138.097 161.198 136.402 159.4 135.357L156.491 133.595C154.693 132.55 151.768 132.548 149.954 133.595L81.2533 173.271Z" fill="#013F71"/>
</g>
<g opacity="0.1">
<path d="M107.771 192.603C105.961 193.648 105.952 195.345 107.75 196.391L110.657 198.152C112.455 199.198 115.386 199.198 117.194 198.152L185.896 158.477C187.711 157.429 187.715 155.734 185.917 154.689L183.009 152.927C181.21 151.882 178.286 151.88 176.471 152.927L107.77 192.603H107.771Z" fill="#013F71"/>
</g>
<path d="M160.61 38.8975C159.726 38.3783 158.5 38.4551 157.148 39.2293L90.3104 77.8348C89.6889 78.1922 89.1023 78.6684 88.5577 79.2307C87.1878 80.6346 86.1159 82.566 85.6829 84.4472C85.5386 85.0514 85.4618 85.6556 85.4618 86.2342L85.6154 171.598C85.6154 173.138 86.1682 174.21 87.0365 174.72L81.6012 171.572C80.733 171.061 80.1895 169.981 80.1802 168.441L80.0265 83.0689C80.0265 82.4984 80.0952 81.9036 80.2395 81.2994C80.6737 79.4193 81.7363 77.4961 83.1154 76.0828C83.6508 75.5217 84.2549 75.0362 84.8764 74.6788L151.711 36.0802C153.064 35.2979 154.289 35.2292 155.174 35.731L160.609 38.8963L160.61 38.8975Z" fill="#D9E2EA"/>
<path d="M88.5577 79.2307C87.1878 80.6347 86.1159 82.566 85.6829 84.4473L80.2384 81.2994C80.6725 79.4193 81.7351 77.4961 83.1143 76.0828L88.5588 79.2307H88.5577Z" fill="#F7F8FB"/>
<path d="M87.0353 174.912C87.0027 174.912 86.969 174.904 86.9387 174.887L81.5035 171.739C80.5328 171.168 79.9951 169.997 79.987 168.442L79.8333 83.0677C79.8333 82.4694 79.9067 81.8582 80.051 81.2528C80.4933 79.332 81.5605 77.3983 82.9758 75.9466C83.5274 75.368 84.1513 74.8721 84.7774 74.5101L151.616 35.9138C152.98 35.1245 154.279 35.0011 155.269 35.5646L160.696 38.7252C160.696 38.7252 160.702 38.7276 160.703 38.7299L160.707 38.7322C160.797 38.7858 160.828 38.9033 160.775 38.9953C160.721 39.0873 160.604 39.1175 160.512 39.064L160.502 39.057C159.645 38.5622 158.489 38.6822 157.243 39.3958L90.4059 78.0014C89.8216 78.3378 89.2467 78.7965 88.695 79.3646C87.3472 80.7464 86.2905 82.6626 85.868 84.4903C85.7248 85.0899 85.6515 85.6766 85.6515 86.2342L85.8051 171.598C85.8051 173.002 86.2753 174.052 87.1308 174.555C87.2215 174.608 87.2518 174.726 87.1994 174.817C87.1645 174.879 87.0993 174.912 87.033 174.912H87.0353ZM153.902 35.6018C153.263 35.6018 152.549 35.8183 151.808 36.2467L84.9706 74.8442C84.3747 75.1876 83.7812 75.6614 83.2528 76.2144C81.9039 77.5974 80.8471 79.5136 80.4257 81.3413C80.2884 81.9199 80.2186 82.4996 80.2186 83.0677L80.3722 168.44C80.3792 169.853 80.8506 170.906 81.6979 171.406L85.9494 173.869C85.6049 173.267 85.4222 172.497 85.4222 171.598L85.2686 86.2342C85.2686 85.6452 85.3454 85.0293 85.4955 84.403C85.932 82.5113 87.0248 80.5276 88.4203 79.0968C88.9953 78.5031 89.5993 78.0235 90.2138 77.6684L157.051 39.0628C157.851 38.6042 158.626 38.3725 159.325 38.3713L155.077 35.8975C154.728 35.6996 154.331 35.6018 153.9 35.6018H153.902Z" fill="#013F71"/>
<path d="M85.4862 96.0911C85.4536 96.0911 85.4199 96.0829 85.3896 96.0654L79.9544 92.9176C79.8624 92.864 79.831 92.7464 79.8834 92.6545C79.9369 92.5625 80.0556 92.5322 80.1464 92.5846L85.5817 95.7325C85.6736 95.786 85.705 95.9036 85.6527 95.9956C85.6166 96.0573 85.5526 96.0911 85.4862 96.0911Z" fill="#013F71"/>
<path d="M153.019 41.8533C152.987 41.8533 152.953 41.8452 152.923 41.8277L147.487 38.6705C147.396 38.617 147.365 38.4994 147.419 38.4074C147.471 38.3154 147.589 38.2852 147.682 38.3376L153.117 41.4947C153.209 41.5483 153.239 41.6659 153.186 41.7578C153.151 41.8195 153.086 41.8533 153.019 41.8533Z" fill="#013F71"/>
<path d="M85.4862 166.401C85.4536 166.401 85.4199 166.393 85.3896 166.376L79.9544 163.218C79.8624 163.165 79.8322 163.047 79.8857 162.955C79.9381 162.862 80.0556 162.832 80.1487 162.885L85.584 166.043C85.6759 166.096 85.7062 166.214 85.6527 166.306C85.6177 166.367 85.5526 166.401 85.4862 166.401Z" fill="#013F71"/>
<path d="M162.031 42.0128C162.023 38.9278 159.831 37.6857 157.148 39.2363L90.3116 77.8337C87.6207 79.3879 85.4513 83.1481 85.4594 86.2319L85.4874 95.8827L162.058 51.6625L162.03 42.0116L162.031 42.0128Z" fill="#5340E2"/>
<path d="M85.4874 96.0759C85.4548 96.0759 85.421 96.0678 85.3908 96.0503C85.3314 96.0166 85.2942 95.9525 85.2942 95.8839L85.2674 86.233C85.2581 83.091 87.4776 79.2481 90.215 77.6672L157.051 39.0698C158.417 38.2805 159.712 38.1583 160.7 38.7264C161.677 39.2898 162.218 40.4563 162.222 42.0128L162.25 51.6636C162.25 51.7323 162.213 51.7963 162.153 51.83L85.5828 96.0492C85.5526 96.0666 85.52 96.0748 85.4862 96.0748L85.4874 96.0759ZM159.33 38.759C158.694 38.759 157.983 38.9743 157.243 39.4027L90.4082 78.0002C87.7779 79.5205 85.6433 83.2121 85.6526 86.2319L85.6794 95.5509L161.867 51.553L161.839 42.0139C161.836 40.6006 161.363 39.5517 160.509 39.0605C160.16 38.8591 159.762 38.7601 159.331 38.7601L159.33 38.759Z" fill="#013F71"/>
<path d="M85.4874 95.8839L85.6177 171.601C85.6259 174.693 87.8105 175.939 90.5013 174.385L157.336 135.788C160.02 134.237 162.196 130.473 162.188 127.381L162.058 51.6636L85.4874 95.8839Z" fill="white"/>
<path d="M88.3144 175.248C87.8163 175.248 87.3566 175.131 86.9492 174.897C85.9704 174.334 85.4292 173.164 85.4245 171.601L85.2942 95.8839C85.2942 95.8152 85.3314 95.7512 85.3908 95.7174L161.962 51.4971C162.023 51.4622 162.095 51.4634 162.155 51.4971C162.214 51.5321 162.251 51.5949 162.251 51.6636L162.381 127.381C162.39 130.527 160.17 134.373 157.433 135.954L90.5967 174.55C89.7948 175.014 89.0185 175.248 88.3144 175.248ZM85.6794 95.9945L85.8098 171.6C85.8133 173.019 86.287 174.072 87.1412 174.563C88.0025 175.059 89.1617 174.936 90.4059 174.217L157.241 135.62C159.871 134.101 162.006 130.404 161.997 127.381L161.868 51.9966L85.6794 95.9945Z" fill="#013F71"/>
<path d="M93.12 82.3052C94.0185 81.786 94.7424 82.1981 94.7447 83.2307C94.7471 84.2552 94.029 85.5078 93.1305 86.027C92.232 86.5462 91.5092 86.1248 91.5057 85.1003C91.5022 84.0677 92.2215 82.8233 93.12 82.3041V82.3052Z" fill="white"/>
<path d="M99.8809 78.3995C100.772 77.8849 101.502 78.2924 101.506 79.325C101.508 80.3494 100.783 81.6067 99.8913 82.1213C98.9928 82.6405 98.2701 82.2191 98.2666 81.1946C98.2631 80.162 98.9824 78.9175 99.8809 78.3983V78.3995Z" fill="white"/>
<path d="M106.644 74.4903C107.537 73.9746 108.262 74.3878 108.265 75.4228C108.268 76.4496 107.548 77.7057 106.655 78.2214C105.754 78.7418 105.029 78.3192 105.026 77.2924C105.023 76.2563 105.743 75.0095 106.644 74.4891V74.4903Z" fill="white"/>
<g opacity="0.1">
<path d="M105.877 90.0538C103.187 91.6056 101.013 95.3658 101.023 98.4508L101.048 108.102L101.18 183.818C101.188 186.912 103.379 188.157 106.07 186.606L162.384 154.083V57.4238L105.877 90.0538Z" fill="#013F71"/>
</g>
<path d="M188.592 57.879C187.707 57.3598 186.482 57.4367 185.129 58.2108L118.292 96.8164C117.671 97.1738 117.084 97.6499 116.539 98.2122C115.169 99.6162 114.097 101.548 113.665 103.429C113.52 104.033 113.443 104.637 113.443 105.216L113.597 190.579C113.597 192.12 114.15 193.192 115.018 193.702L109.583 190.554C108.715 190.043 108.171 188.962 108.162 187.422L108.008 102.05C108.008 101.48 108.077 100.885 108.221 100.281C108.655 98.4008 109.718 96.4776 111.097 95.0644C111.632 94.5032 112.236 94.0178 112.858 93.6604L179.695 55.063C181.047 54.2806 182.273 54.212 183.158 54.7137L188.593 57.879H188.592Z" fill="#E3E6EB"/>
<path d="M116.539 98.2121C115.169 99.6161 114.097 101.547 113.664 103.429L108.22 100.281C108.654 98.4007 109.717 96.4775 111.096 95.0643L116.54 98.2121H116.539Z" fill="#F7F8FB"/>
<path d="M115.017 193.894C114.984 193.894 114.951 193.886 114.92 193.868L109.485 190.72C108.514 190.15 107.977 188.979 107.969 187.423L107.815 102.05C107.815 101.452 107.888 100.841 108.033 100.236C108.475 98.3147 109.542 96.381 110.957 94.9293C111.509 94.3507 112.133 93.8548 112.759 93.4927L179.597 54.8953C180.961 54.106 182.259 53.9826 183.251 54.5461L188.678 57.7067C188.678 57.7067 188.684 57.7091 188.685 57.7114L188.688 57.7137C188.779 57.7673 188.809 57.8848 188.757 57.9768C188.702 58.0688 188.587 58.0991 188.494 58.0455L188.483 58.0385C187.627 57.5438 186.471 57.6637 185.225 58.3773L118.387 96.9829C117.803 97.3193 117.228 97.778 116.677 98.3461C115.329 99.7279 114.272 101.643 113.85 103.472C113.706 104.071 113.633 104.658 113.633 105.216L113.787 190.579C113.787 191.983 114.257 193.033 115.112 193.536C115.203 193.59 115.233 193.708 115.181 193.798C115.146 193.86 115.081 193.894 115.015 193.894H115.017ZM181.883 54.5833C181.244 54.5833 180.532 54.7998 179.789 55.2294L112.951 93.8269C112.355 94.1703 111.762 94.6441 111.233 95.1971C109.884 96.5801 108.827 98.4963 108.406 100.324C108.269 100.903 108.199 101.482 108.199 102.05L108.353 187.422C108.36 188.836 108.831 189.889 109.678 190.389L113.931 192.852C113.587 192.25 113.404 191.479 113.404 190.579L113.25 105.216C113.25 104.627 113.327 104.011 113.477 103.385C113.914 101.493 115.006 99.5091 116.402 98.0783C116.978 97.4846 117.582 97.0038 118.195 96.6499L185.033 58.0443C185.832 57.5857 186.607 57.354 187.307 57.3528L183.059 54.879C182.709 54.6811 182.313 54.5821 181.882 54.5821L181.883 54.5833Z" fill="#013F71"/>
<path d="M113.469 115.073C113.436 115.073 113.403 115.064 113.372 115.047L107.936 111.899C107.844 111.846 107.813 111.728 107.865 111.636C107.919 111.544 108.037 111.513 108.128 111.566L113.564 114.714C113.656 114.768 113.688 114.885 113.635 114.977C113.599 115.039 113.535 115.073 113.469 115.073Z" fill="#013F71"/>
<path d="M181.001 60.8348C180.968 60.8348 180.935 60.8266 180.904 60.8092L175.468 57.652C175.376 57.5984 175.346 57.4809 175.399 57.3889C175.452 57.2958 175.569 57.2655 175.662 57.3191L181.099 60.4762C181.191 60.5298 181.221 60.6474 181.167 60.7393C181.132 60.801 181.067 60.8348 181.001 60.8348Z" fill="#013F71"/>
<path d="M113.469 185.383C113.436 185.383 113.403 185.374 113.372 185.357L107.936 182.2C107.844 182.146 107.814 182.029 107.867 181.937C107.92 181.845 108.037 181.814 108.13 181.867L113.567 185.024C113.659 185.078 113.689 185.195 113.635 185.287C113.6 185.349 113.535 185.383 113.469 185.383Z" fill="#013F71"/>
<path d="M190.013 60.9943C190.005 57.9093 187.813 56.6671 185.129 58.2178L118.294 96.8152C115.603 98.3693 113.434 102.13 113.442 105.213L113.47 114.864L190.041 70.6439L190.013 60.9931V60.9943Z" fill="#5340E2"/>
<path d="M113.469 115.058C113.436 115.058 113.403 115.049 113.372 115.032C113.313 114.998 113.276 114.934 113.276 114.865L113.249 105.215C113.24 102.073 115.459 98.2297 118.197 96.6488L185.033 58.0514C186.399 57.2621 187.694 57.1398 188.681 57.7079C189.659 58.2714 190.2 59.4379 190.204 60.9943L190.231 70.6451C190.231 70.7138 190.194 70.7779 190.135 70.8116L113.563 115.032C113.533 115.049 113.5 115.058 113.467 115.058H113.469ZM187.311 57.7405C186.676 57.7405 185.965 57.9559 185.225 58.3843L118.389 96.9817C115.758 98.5021 113.624 102.194 113.633 105.213L113.66 114.532L189.847 70.5345L189.819 60.9955C189.816 59.5822 189.343 58.5333 188.489 58.042C188.14 57.8418 187.742 57.7417 187.311 57.7417V57.7405Z" fill="#013F71"/>
<path d="M113.469 114.865L113.599 190.583C113.607 193.675 115.792 194.921 118.483 193.366L185.318 154.769C188.002 153.218 190.178 149.455 190.17 146.363L190.039 70.6451L113.469 114.865Z" fill="white"/>
<path d="M116.296 194.229C115.799 194.229 115.338 194.113 114.931 193.879C113.952 193.315 113.411 192.145 113.406 190.583L113.276 114.865C113.276 114.797 113.313 114.733 113.372 114.699L189.944 70.4786C190.005 70.4437 190.077 70.4448 190.136 70.4786C190.195 70.5135 190.233 70.5764 190.233 70.6451L190.363 146.363C190.371 149.508 188.152 153.355 185.414 154.935L118.579 193.533C117.778 193.996 117.001 194.23 116.297 194.23L116.296 194.229ZM113.661 114.976L113.791 190.582C113.795 192.001 114.269 193.053 115.124 193.545C115.984 194.039 117.143 193.917 118.387 193.199L185.222 154.601C187.853 153.082 189.987 149.386 189.979 146.363L189.85 70.978L113.662 114.976H113.661Z" fill="#013F71"/>
<path d="M121.102 101.287C122 100.767 122.724 101.18 122.726 102.212C122.729 103.237 122.011 104.489 121.112 105.008C120.214 105.528 119.491 105.106 119.487 104.082C119.484 103.049 120.203 101.805 121.102 101.285V101.287Z" fill="white"/>
<path d="M127.864 97.3822C128.755 96.8676 129.485 97.2751 129.488 98.3077C129.491 99.3321 128.766 100.589 127.874 101.104C126.976 101.623 126.253 101.202 126.249 100.177C126.246 99.1447 126.965 97.9002 127.864 97.381V97.3822Z" fill="white"/>
<path d="M134.626 93.4717C135.518 92.956 136.243 93.3693 136.247 94.4042C136.249 95.431 135.53 96.6871 134.636 97.2028C133.735 97.7232 133.01 97.3006 133.008 96.2738C133.004 95.2378 133.725 93.9909 134.626 93.4706V93.4717Z" fill="white"/>
<path d="M173.364 115.353C173.297 115.353 173.233 115.318 173.197 115.256C173.145 115.164 173.176 115.047 173.268 114.995L177.647 112.466C177.736 112.414 177.855 112.444 177.91 112.536C177.962 112.628 177.931 112.745 177.839 112.798L173.46 115.326C173.43 115.344 173.397 115.352 173.364 115.352V115.353Z" fill="#013F71"/>
<path d="M150.922 128.314C150.856 128.314 150.792 128.279 150.756 128.217C150.703 128.125 150.735 128.007 150.827 127.955L170.012 116.876C170.101 116.822 170.22 116.854 170.275 116.946C170.327 117.038 170.296 117.155 170.204 117.208L151.019 128.287C150.988 128.304 150.956 128.312 150.922 128.312V128.314Z" fill="#5340E2"/>
<path d="M133.986 138.094C133.919 138.094 133.855 138.059 133.819 137.997C133.767 137.905 133.798 137.787 133.89 137.735L146.341 130.544C146.431 130.491 146.549 130.522 146.604 130.614C146.657 130.706 146.625 130.824 146.533 130.876L134.082 138.067C134.052 138.084 134.019 138.092 133.986 138.092V138.094Z" fill="#013F71"/>
<path d="M146.758 137.2C146.691 137.2 146.627 137.165 146.591 137.103C146.539 137.011 146.57 136.893 146.662 136.841L167.732 124.675C167.821 124.621 167.94 124.652 167.995 124.744C168.047 124.836 168.016 124.954 167.924 125.006L146.854 137.173C146.824 137.19 146.792 137.198 146.758 137.198V137.2Z" fill="#013F71"/>
<path d="M133.986 144.576C133.919 144.576 133.855 144.541 133.819 144.479C133.767 144.387 133.798 144.27 133.89 144.217L142.548 139.217C142.638 139.164 142.756 139.195 142.811 139.287C142.863 139.379 142.832 139.497 142.74 139.549L134.082 144.549C134.052 144.566 134.019 144.575 133.986 144.575V144.576Z" fill="#013F71"/>
<path d="M123.29 144.271C123.223 144.271 123.159 144.236 123.123 144.174C123.071 144.082 123.102 143.964 123.194 143.912L129.423 140.314C129.513 140.26 129.632 140.292 129.686 140.384C129.739 140.475 129.707 140.593 129.615 140.645L123.386 144.244C123.356 144.261 123.323 144.269 123.29 144.269V144.271Z" fill="#013F71"/>
<path d="M123.29 150.753C123.223 150.753 123.159 150.718 123.123 150.656C123.071 150.564 123.102 150.446 123.194 150.394L129.423 146.797C129.513 146.743 129.632 146.775 129.686 146.867C129.739 146.959 129.707 147.076 129.615 147.129L123.386 150.726C123.356 150.743 123.323 150.751 123.29 150.751V150.753Z" fill="#5340E2"/>
<path d="M167.827 131.515C167.761 131.515 167.697 131.48 167.661 131.418C167.608 131.326 167.64 131.209 167.732 131.156L177.647 125.43C177.736 125.376 177.855 125.408 177.91 125.5C177.962 125.592 177.931 125.709 177.839 125.762L167.924 131.488C167.894 131.506 167.861 131.514 167.827 131.514V131.515Z" fill="#013F71"/>
<path d="M156.05 138.316C155.984 138.316 155.92 138.281 155.884 138.219C155.831 138.127 155.863 138.01 155.955 137.957L163.89 133.374C163.979 133.321 164.098 133.352 164.153 133.444C164.205 133.536 164.174 133.654 164.082 133.706L156.147 138.289C156.116 138.307 156.084 138.315 156.05 138.315V138.316Z" fill="#013F71"/>
<path d="M133.986 151.058C133.919 151.058 133.855 151.023 133.819 150.961C133.767 150.869 133.798 150.751 133.89 150.699L151.916 140.289C152.006 140.237 152.124 140.267 152.179 140.359C152.231 140.451 152.2 140.569 152.108 140.621L134.082 151.031C134.052 151.048 134.019 151.056 133.986 151.056V151.058Z" fill="#5340E2"/>
<path d="M123.29 157.235C123.223 157.235 123.159 157.2 123.123 157.138C123.071 157.046 123.102 156.928 123.194 156.876L129.423 153.279C129.513 153.225 129.632 153.257 129.686 153.349C129.739 153.441 129.707 153.558 129.615 153.611L123.386 157.208C123.356 157.225 123.323 157.233 123.29 157.233V157.235Z" fill="#013F71"/>
<path d="M163.515 140.487C163.449 140.487 163.385 140.452 163.349 140.391C163.296 140.299 163.328 140.181 163.42 140.129L173.873 134.092C173.963 134.04 174.082 134.07 174.136 134.162C174.189 134.254 174.157 134.372 174.065 134.424L163.612 140.46C163.581 140.478 163.549 140.486 163.515 140.486V140.487Z" fill="#5340E2"/>
<path d="M143 152.335C142.933 152.335 142.869 152.3 142.833 152.238C142.781 152.146 142.812 152.029 142.904 151.976L158.689 142.861C158.778 142.807 158.897 142.839 158.952 142.931C159.004 143.023 158.972 143.14 158.881 143.193L143.096 152.308C143.066 152.325 143.033 152.334 143 152.334V152.335Z" fill="#013F71"/>
<path d="M133.986 157.54C133.919 157.54 133.855 157.505 133.819 157.443C133.767 157.351 133.798 157.233 133.89 157.181L137.841 154.899C137.931 154.847 138.05 154.877 138.104 154.969C138.157 155.061 138.125 155.179 138.033 155.231L134.082 157.513C134.052 157.53 134.019 157.538 133.986 157.538V157.54Z" fill="#013F71"/>
<path d="M123.29 163.717C123.223 163.717 123.159 163.682 123.123 163.62C123.071 163.528 123.102 163.411 123.194 163.358L129.423 159.761C129.513 159.709 129.632 159.739 129.686 159.831C129.739 159.923 129.707 160.04 129.615 160.093L123.386 163.69C123.356 163.707 123.323 163.716 123.29 163.716V163.717Z" fill="#013F71"/>
<path d="M171.968 142.087C171.902 142.087 171.838 142.052 171.802 141.99C171.749 141.898 171.781 141.781 171.873 141.728L177.647 138.394C177.736 138.34 177.855 138.372 177.91 138.464C177.962 138.556 177.931 138.673 177.839 138.726L172.065 142.06C172.035 142.077 172.002 142.086 171.968 142.086V142.087Z" fill="#013F71"/>
<path d="M155.864 151.387C155.797 151.387 155.733 151.352 155.697 151.291C155.645 151.199 155.676 151.081 155.768 151.029L168.647 143.592C168.736 143.538 168.855 143.57 168.91 143.662C168.962 143.754 168.93 143.871 168.839 143.924L155.96 151.36C155.93 151.378 155.898 151.386 155.864 151.386V151.387Z" fill="#5340E2"/>
<path d="M133.986 164.022C133.919 164.022 133.855 163.987 133.819 163.925C133.767 163.833 133.798 163.715 133.89 163.663L151.916 153.253C152.006 153.2 152.124 153.231 152.179 153.323C152.231 153.415 152.2 153.533 152.108 153.585L134.082 163.995C134.052 164.012 134.019 164.02 133.986 164.02V164.022Z" fill="#013F71"/>
<path d="M123.29 170.199C123.223 170.199 123.159 170.164 123.123 170.102C123.071 170.01 123.102 169.892 123.194 169.84L129.423 166.243C129.513 166.19 129.632 166.221 129.686 166.313C129.739 166.405 129.707 166.522 129.615 166.575L123.386 170.172C123.356 170.189 123.323 170.197 123.29 170.197V170.199Z" fill="#5340E2"/>
<path d="M168.742 150.432C168.676 150.432 168.612 150.398 168.576 150.336C168.523 150.244 168.555 150.126 168.647 150.074L175.286 146.239C175.376 146.186 175.495 146.217 175.549 146.309C175.602 146.401 175.57 146.519 175.478 146.571L168.839 150.406C168.808 150.423 168.776 150.431 168.742 150.431V150.432Z" fill="#5340E2"/>
<path d="M150.518 160.956C150.452 160.956 150.388 160.922 150.352 160.86C150.299 160.768 150.331 160.65 150.423 160.598L163.86 152.838C163.949 152.785 164.068 152.816 164.123 152.908C164.175 153 164.144 153.117 164.052 153.169L150.615 160.93C150.585 160.947 150.552 160.955 150.518 160.955V160.956Z" fill="#013F71"/>
<path d="M133.986 170.504C133.919 170.504 133.855 170.469 133.819 170.407C133.767 170.315 133.798 170.197 133.89 170.145L145.36 163.521C145.45 163.468 145.568 163.499 145.623 163.591C145.675 163.683 145.644 163.8 145.552 163.853L134.082 170.477C134.052 170.494 134.019 170.502 133.986 170.502V170.504Z" fill="#5340E2"/>
<path d="M123.29 176.681C123.223 176.681 123.159 176.646 123.123 176.584C123.071 176.492 123.102 176.374 123.194 176.322L129.423 172.724C129.513 172.671 129.632 172.702 129.686 172.794C129.739 172.885 129.707 173.003 129.615 173.055L123.386 176.654C123.356 176.671 123.323 176.679 123.29 176.679V176.681Z" fill="#013F71"/>
<path d="M171.968 155.051C171.902 155.051 171.838 155.016 171.802 154.954C171.749 154.862 171.781 154.745 171.873 154.692L177.647 151.357C177.736 151.303 177.855 151.335 177.91 151.427C177.962 151.519 177.931 151.636 177.839 151.689L172.065 155.024C172.035 155.041 172.002 155.05 171.968 155.05V155.051Z" fill="#013F71"/>
<path d="M155.864 164.351C155.797 164.351 155.733 164.316 155.697 164.255C155.645 164.163 155.676 164.045 155.768 163.993L168.647 156.556C168.736 156.502 168.855 156.534 168.91 156.626C168.962 156.718 168.93 156.835 168.839 156.888L155.96 164.324C155.93 164.342 155.898 164.35 155.864 164.35V164.351Z" fill="#5340E2"/>
<path d="M133.986 176.986C133.919 176.986 133.855 176.951 133.819 176.889C133.767 176.797 133.798 176.679 133.89 176.627L151.916 166.217C152.006 166.164 152.124 166.195 152.179 166.287C152.231 166.379 152.2 166.497 152.108 166.549L134.082 176.959C134.052 176.976 134.019 176.984 133.986 176.984V176.986Z" fill="#013F71"/>
<path d="M123.29 183.163C123.223 183.163 123.159 183.128 123.123 183.066C123.071 182.974 123.102 182.856 123.194 182.804L129.423 179.207C129.513 179.153 129.632 179.185 129.686 179.277C129.739 179.369 129.707 179.486 129.615 179.539L123.386 183.136C123.356 183.153 123.323 183.161 123.29 183.161V183.163Z" fill="#5340E2"/>
<path d="M123.29 150.753C123.223 150.753 123.159 150.718 123.123 150.656C123.071 150.564 123.102 150.446 123.194 150.394L129.423 146.797C129.513 146.743 129.632 146.775 129.686 146.867C129.739 146.959 129.707 147.076 129.615 147.129L123.386 150.726C123.356 150.743 123.323 150.751 123.29 150.751V150.753Z" fill="#5340E2"/>
<path d="M182.232 85.7778C182.216 85.7697 182.192 85.7615 182.168 85.7534C182.112 85.7289 182.055 85.7045 181.991 85.6963C181.919 85.6719 181.846 85.6556 181.766 85.6474C181.693 85.6393 181.612 85.6311 181.54 85.6311C181.121 85.6311 180.645 85.7685 180.137 86.0584L124.434 118.262C122.709 119.254 121.323 121.656 121.331 123.64L121.363 134.772C121.363 134.91 121.372 135.039 121.388 135.159C121.396 135.264 121.404 135.36 121.429 135.449C121.453 135.578 121.484 135.691 121.525 135.804V135.812C121.55 135.884 121.574 135.949 121.606 136.013C121.646 136.102 121.686 136.174 121.735 136.247V136.255C121.784 136.328 121.831 136.393 121.88 136.449C121.888 136.457 121.896 136.457 121.896 136.465C121.952 136.521 122.009 136.578 122.065 136.626C122.09 136.642 122.106 136.658 122.121 136.675L119.429 135.118C118.873 134.787 118.526 134.102 118.518 133.119L118.485 121.986C118.485 120.011 119.871 117.609 121.588 116.609L177.299 84.4053C178.161 83.9059 178.951 83.857 179.515 84.1876L182.231 85.7755L182.232 85.7778Z" fill="#F7F8FB"/>
<path d="M122.118 136.869C122.086 136.869 122.054 136.861 122.025 136.843L119.333 135.288C118.691 134.906 118.334 134.138 118.326 133.124L118.293 121.99C118.293 119.96 119.728 117.473 121.491 116.446L177.203 84.2424C178.09 83.7267 178.971 83.6487 179.612 84.0247L182.329 85.6126C182.419 85.665 182.45 85.7791 182.401 85.8699C182.352 85.9607 182.239 85.9956 182.147 85.9514C182.142 85.9491 182.096 85.9339 182.091 85.9316C182.047 85.913 182.005 85.8943 181.967 85.8897C181.869 85.8606 181.81 85.8489 181.746 85.842C181.269 85.7896 180.775 85.9188 180.233 86.2296L124.53 118.432C122.864 119.39 121.516 121.728 121.524 123.642L121.557 134.776C121.557 134.904 121.564 135.024 121.579 135.138C121.586 135.242 121.593 135.327 121.614 135.403C121.64 135.536 121.67 135.641 121.706 135.744C121.71 135.756 121.713 135.767 121.715 135.778C121.734 135.833 121.753 135.883 121.778 135.933C121.816 136.019 121.852 136.083 121.895 136.147C121.902 136.158 121.908 136.169 121.913 136.181C121.951 136.236 121.987 136.285 122.026 136.329C122.048 136.343 122.062 136.357 122.071 136.373C122.112 136.413 122.151 136.451 122.191 136.485C122.206 136.493 122.229 136.515 122.253 136.537C122.321 136.605 122.332 136.715 122.272 136.792C122.235 136.842 122.177 136.869 122.119 136.869H122.118ZM178.7 84.1726C178.302 84.1726 177.854 84.3076 177.395 84.573L121.684 116.777C120.025 117.742 118.677 120.08 118.677 121.988L118.71 133.12C118.717 133.995 119.007 134.646 119.527 134.955L121.404 136.04C121.382 135.989 121.361 135.934 121.341 135.874C121.338 135.864 121.336 135.855 121.334 135.845C121.295 135.73 121.263 135.616 121.238 135.486C121.213 135.4 121.203 135.292 121.195 135.174C121.178 135.058 121.17 134.919 121.17 134.774L121.138 123.641C121.13 121.602 122.565 119.116 124.336 118.097L180.04 85.8932C180.476 85.644 180.898 85.4962 181.297 85.4531L179.418 84.3553C179.21 84.2331 178.965 84.1726 178.699 84.1726H178.7Z" fill="#013F71"/>
<path d="M124.434 118.265C122.709 119.256 121.323 121.659 121.331 123.642L121.363 134.775C121.363 134.912 121.372 135.041 121.388 135.161C121.396 135.266 121.404 135.363 121.429 135.451C121.453 135.58 121.484 135.693 121.525 135.806V135.814C121.55 135.886 121.574 135.952 121.606 136.016C121.646 136.104 121.686 136.176 121.735 136.25V136.258C121.784 136.33 121.831 136.395 121.88 136.451C121.888 136.459 121.897 136.459 121.897 136.467C121.952 136.523 122.009 136.58 122.065 136.628C122.09 136.644 122.106 136.661 122.121 136.677C122.137 136.685 122.154 136.701 122.177 136.709V136.718L122.201 136.734C122.21 136.742 122.226 136.75 122.234 136.75C122.807 137.105 123.604 137.065 124.483 136.557L137.864 128.82V110.501L124.435 118.265H124.434Z" fill="#E86207"/>
<path d="M123.089 137.177C122.741 137.177 122.42 137.091 122.137 136.918C122.108 136.904 122.082 136.888 122.064 136.87C122.059 136.868 122.056 136.864 122.052 136.862C122.043 136.856 122.035 136.852 122.03 136.848C122.013 136.839 122 136.829 121.986 136.815C121.98 136.811 121.945 136.781 121.938 136.776C121.878 136.725 121.819 136.665 121.758 136.605C121.754 136.601 121.751 136.598 121.749 136.594C121.749 136.594 121.748 136.592 121.745 136.591C121.679 136.515 121.626 136.445 121.573 136.366C121.565 136.353 121.558 136.34 121.553 136.326C121.508 136.254 121.467 136.182 121.429 136.095C121.396 136.03 121.368 135.956 121.341 135.875C121.338 135.865 121.336 135.856 121.334 135.846C121.295 135.732 121.263 135.618 121.238 135.487C121.213 135.401 121.203 135.293 121.195 135.175C121.178 135.059 121.169 134.92 121.169 134.775L121.138 123.642C121.13 121.605 122.563 119.117 124.336 118.098L137.765 110.334C137.825 110.3 137.897 110.3 137.957 110.334C138.016 110.368 138.053 110.432 138.053 110.501V128.82C138.053 128.889 138.016 128.953 137.957 128.987L124.576 136.723C124.054 137.026 123.548 137.177 123.087 137.177H123.089ZM122.325 136.581C122.325 136.581 122.331 136.585 122.334 136.587C122.868 136.918 123.597 136.847 124.385 136.391L137.669 128.709V110.834L124.529 118.431C122.862 119.389 121.515 121.726 121.523 123.641L121.554 134.775C121.554 134.903 121.561 135.023 121.578 135.137C121.585 135.24 121.592 135.325 121.613 135.402C121.639 135.535 121.668 135.64 121.704 135.743C121.709 135.755 121.711 135.765 121.714 135.777C121.732 135.832 121.752 135.882 121.777 135.932C121.815 136.018 121.851 136.082 121.894 136.146C121.901 136.157 121.907 136.168 121.912 136.18C121.95 136.235 121.986 136.283 122.025 136.328C122.047 136.342 122.061 136.356 122.07 136.372C122.111 136.411 122.15 136.45 122.19 136.484C122.205 136.492 122.228 136.514 122.251 136.536L122.139 136.689L122.236 136.557C122.236 136.557 122.244 136.557 122.249 136.557C122.244 136.557 122.241 136.557 122.236 136.557L122.254 136.534C122.284 136.544 122.307 136.56 122.326 136.58L122.325 136.581Z" fill="#E86207"/>
<path d="M183.263 87.8419C183.255 86.8582 182.908 86.1656 182.352 85.8431C182.336 85.8349 182.32 85.8187 182.296 85.8187C182.28 85.8024 182.256 85.7942 182.232 85.7779C182.216 85.7698 182.192 85.7616 182.168 85.7535C182.112 85.729 182.055 85.7046 181.991 85.6964C181.919 85.672 181.846 85.6568 181.766 85.6487C181.693 85.6405 181.612 85.6324 181.54 85.6324C181.121 85.6324 180.645 85.7698 180.137 86.0596L137.862 110.5V128.819L180.193 104.344C181.91 103.352 183.296 100.95 183.296 98.9747L183.263 87.8408V87.8419Z" fill="white"/>
<path d="M137.862 129.012C137.83 129.012 137.796 129.004 137.766 128.987C137.706 128.953 137.669 128.889 137.669 128.82V110.501C137.669 110.432 137.706 110.368 137.766 110.335L180.04 85.8943C180.655 85.5427 181.243 85.3961 181.785 85.4589C181.875 85.4671 181.96 85.4857 182.05 85.516C182.107 85.5195 182.182 85.5521 182.243 85.5788C182.26 85.5835 182.294 85.5963 182.316 85.6079C182.346 85.6254 182.37 85.637 182.388 85.6498C182.41 85.6568 182.429 85.6661 182.442 85.6743C183.089 86.0491 183.446 86.8175 183.456 87.8419L183.488 98.9759C183.488 101.01 182.053 103.493 180.289 104.511L137.958 128.987C137.928 129.004 137.895 129.012 137.861 129.012H137.862ZM138.054 110.612V128.487L180.097 104.178C181.755 103.22 183.104 100.886 183.104 98.9759L183.071 87.8443C183.064 86.9618 182.775 86.3111 182.257 86.0096C182.253 86.0072 182.251 86.0061 182.251 86.0061C182.218 85.9979 182.187 85.9805 182.162 85.9572C182.155 85.9572 182.14 85.949 182.125 85.9386C182.047 85.9118 182.005 85.8943 181.967 85.8885C181.868 85.8594 181.81 85.8478 181.746 85.8408C181.264 85.7861 180.776 85.9164 180.232 86.2273L138.054 110.612Z" fill="#013F71"/>
<path d="M134.414 126.261L131.687 124.704L131.718 124.633C132.786 122.214 132.493 119.928 130.999 119.074C130.62 118.861 130.201 118.75 129.75 118.75C129.165 118.75 128.533 118.932 127.893 119.303C126.905 119.872 125.987 120.844 125.3 122.023C124.367 123.643 124.019 125.407 124.382 126.743C124.589 127.502 125.014 128.08 125.608 128.411C125.987 128.633 126.398 128.735 126.849 128.735C127.434 128.735 128.066 128.545 128.698 128.182C129.457 127.74 130.184 127.067 130.801 126.222L130.841 126.166L133.568 127.715C133.686 127.786 133.837 127.763 133.987 127.676C134.145 127.58 134.303 127.43 134.422 127.225C134.643 126.829 134.643 126.395 134.414 126.26V126.261ZM129.64 125.115L129.513 125.304C129.031 125.961 128.477 126.482 127.908 126.814C127.307 127.162 126.746 127.25 126.39 127.044C126.161 126.91 126.003 126.672 125.908 126.324C125.656 125.407 125.948 124.062 126.667 122.813C127.213 121.881 127.939 121.097 128.683 120.67C129.292 120.322 129.845 120.234 130.209 120.441C130.834 120.804 131.039 122.259 130.28 123.967L130.169 124.204C130.098 124.363 130.019 124.513 129.94 124.655C129.846 124.813 129.75 124.963 129.64 125.113V125.115Z" fill="white"/>
<path d="M147.041 112.172L145.446 119.631L144.68 120.074L143.956 117.091C143.777 116.358 143.655 115.787 143.577 115.169C143.458 115.893 143.334 116.606 143.128 117.57L142.328 121.432L141.562 121.875L140.102 116.18L140.879 115.73L141.559 118.651C141.732 119.359 141.886 120.085 141.989 120.661C142.095 119.952 142.27 119.071 142.463 118.115L143.213 114.383L143.978 113.941L144.677 116.857C144.843 117.532 144.997 118.223 145.082 118.867C145.212 118.07 145.375 117.248 145.55 116.332L146.286 112.608L147.039 112.174L147.041 112.172Z" fill="#5340E2"/>
<path d="M154.308 107.975L152.713 115.434L151.947 115.876L151.224 112.893C151.044 112.16 150.922 111.589 150.844 110.971C150.732 111.692 150.608 112.404 150.395 113.372L149.595 117.234L148.829 117.677L147.369 111.982L148.146 111.532L148.833 114.449C148.999 115.161 149.154 115.888 149.257 116.461C149.362 115.752 149.537 114.872 149.73 113.915L150.48 110.184L151.246 109.742L151.951 112.655C152.112 113.333 152.265 114.024 152.349 114.668C152.479 113.871 152.642 113.049 152.817 112.133L153.554 108.409L154.307 107.975H154.308Z" fill="#5340E2"/>
<path d="M161.575 103.778L159.987 111.233L159.216 111.679L158.492 108.697C158.313 107.963 158.196 107.389 158.119 106.771C158.001 107.495 157.876 108.208 157.67 109.172L156.871 113.034L156.099 113.48L154.645 107.782L155.417 107.336L156.104 110.252C156.27 110.964 156.425 111.691 156.527 112.265C156.639 111.552 156.815 110.672 157.001 109.719L157.75 105.988L158.522 105.542L159.22 108.458C159.381 109.137 159.535 109.827 159.625 110.467C159.756 109.671 159.912 108.853 160.087 107.936L160.831 104.209L161.577 103.778H161.575Z" fill="#5340E2"/>
<path d="M162.141 108.876C162.437 108.705 162.641 108.842 162.642 109.198C162.642 109.547 162.454 109.919 162.138 110.1C161.847 110.268 161.644 110.124 161.644 109.775C161.644 109.418 161.851 109.043 162.142 108.876H162.141Z" fill="#5340E2"/>
<g opacity="0.1">
<path d="M193.507 215.427C195.987 216.86 199.995 216.86 202.457 215.427L233.201 197.526C243.34 202.923 259.168 202.731 269.038 196.99C279.158 191.098 279.176 181.604 269.084 175.783C258.995 169.965 242.606 170.015 232.483 175.904C224.682 180.447 222.886 187.132 227.103 192.623L225.413 191.647L193.476 210.245C191.015 211.676 191.028 213.999 193.508 215.429L193.507 215.427Z" fill="#013F71"/>
</g>
<path d="M227.597 183.603L227.536 173.596C227.516 170.544 229.518 167.488 233.537 165.149C241.523 160.502 254.458 160.461 262.42 165.055C266.384 167.335 268.372 170.336 268.391 173.348L268.452 183.355C268.434 180.343 266.442 177.348 262.482 175.062C254.519 170.468 241.583 170.509 233.598 175.156C229.579 177.496 227.579 180.551 227.597 183.603Z" fill="#013F71"/>
<path d="M227.597 183.795C227.491 183.795 227.406 183.71 227.405 183.604V183.6L227.344 173.596C227.323 170.342 229.487 167.282 233.44 164.982C241.468 160.313 254.512 160.27 262.517 164.889C266.409 167.126 268.563 170.13 268.584 173.345L268.644 183.352C268.644 183.458 268.559 183.545 268.454 183.546H268.452C268.346 183.546 268.261 183.461 268.26 183.355C268.242 180.29 266.156 177.402 262.386 175.228C254.49 170.67 241.618 170.711 233.695 175.321C229.867 177.549 227.77 180.49 227.79 183.6C227.79 183.707 227.681 183.791 227.598 183.794L227.597 183.795ZM248.101 161.831C242.868 161.831 237.623 162.994 233.633 165.315C229.805 167.543 227.708 170.484 227.728 173.595L227.775 181.264C228.548 178.902 230.514 176.73 233.5 174.99C241.529 170.321 254.572 170.278 262.577 174.896C265.51 176.588 267.455 178.71 268.245 181.024L268.199 173.349C268.179 170.276 266.093 167.39 262.325 165.223C258.405 162.961 253.259 161.832 248.102 161.832L248.101 161.831Z" fill="#013F71"/>
<g opacity="0.6">
<path d="M233.557 169.868C225.572 174.515 225.558 182.01 233.523 186.604C241.487 191.198 254.427 191.16 262.413 186.513C270.403 181.863 270.412 174.366 262.448 169.771C254.484 165.178 241.547 165.217 233.557 169.867" fill="#E86207"/>
</g>
<path d="M222.081 173.627L222.146 183.635C222.164 187.45 224.683 191.25 229.698 194.139C233.798 196.506 238.934 197.901 244.27 198.328C245.131 198.397 245.996 198.442 246.86 198.462C247.615 198.48 248.37 198.477 249.121 198.454C249.985 198.43 250.85 198.382 251.711 198.305C257.05 197.844 262.191 196.414 266.302 194.021C271.392 191.055 273.926 187.182 273.899 183.319L273.839 173.363C273.839 177.208 271.308 181.061 266.233 184.011C262.144 186.398 257.023 187.823 251.711 188.284C250.854 188.364 249.985 188.413 249.121 188.44C248.366 188.466 247.611 188.47 246.86 188.451C245.996 188.436 245.131 188.391 244.27 188.326C238.912 187.903 233.753 186.504 229.638 184.129C224.622 181.239 222.104 177.44 222.082 173.625L222.081 173.627Z" fill="#D9E2EA"/>
<path d="M244.27 188.327V198.328C245.131 198.397 245.996 198.442 246.86 198.462C247.615 198.48 248.37 198.477 249.121 198.454C249.985 198.43 250.85 198.382 251.711 198.305V188.285C250.854 188.365 249.985 188.414 249.121 188.441C248.366 188.468 247.611 188.471 246.86 188.452C245.996 188.437 245.131 188.392 244.27 188.327Z" fill="#F7F8FB"/>
<path d="M247.83 198.666C247.499 198.666 247.173 198.661 246.856 198.654C240.337 198.511 234.21 196.966 229.603 194.306C224.69 191.476 221.975 187.686 221.954 183.636L221.89 173.635V173.628C221.89 173.522 221.975 173.436 222.081 173.435H222.082C222.188 173.435 222.273 173.52 222.274 173.626V173.636C222.302 177.542 224.951 181.209 229.733 183.965C234.308 186.606 240.392 188.131 246.864 188.262C247.604 188.28 248.361 188.277 249.114 188.25C255.546 188.061 261.593 186.498 266.136 183.847C270.979 181.032 273.647 177.308 273.647 173.364C273.647 173.258 273.733 173.172 273.838 173.172C273.943 173.172 274.028 173.257 274.03 173.363L274.09 183.319C274.118 187.422 271.386 191.281 266.396 194.188C261.769 196.881 255.635 198.464 249.123 198.647C248.686 198.66 248.254 198.667 247.828 198.667L247.83 198.666ZM222.29 176.254L222.338 183.634C222.358 187.543 225.005 191.214 229.795 193.973C234.347 196.602 240.409 198.128 246.865 198.27C247.587 198.287 248.343 198.285 249.115 198.262C255.565 198.081 261.633 196.515 266.205 193.855C271.071 191.022 273.735 187.28 273.708 183.32L273.663 175.939C272.763 179.046 270.237 181.908 266.331 184.179C261.731 186.86 255.621 188.442 249.126 188.633C248.369 188.66 247.604 188.663 246.856 188.645C240.322 188.513 234.172 186.969 229.541 184.296C225.711 182.089 223.214 179.299 222.291 176.254H222.29Z" fill="#013F71"/>
<path d="M266.235 184.014C256.118 189.902 239.729 189.953 229.639 184.132C219.548 178.312 219.566 168.817 229.683 162.929C239.805 157.038 256.193 156.987 266.284 162.807C276.375 168.628 276.357 178.123 266.235 184.014ZM233.533 165.15C225.548 169.797 225.534 177.292 233.498 181.886C241.462 186.479 254.403 186.442 262.389 181.795C270.379 177.145 270.388 169.648 262.424 165.053C254.459 160.459 241.523 160.499 233.533 165.149" fill="white"/>
<path d="M247.782 188.647C241.169 188.647 234.571 187.2 229.543 184.299C224.617 181.457 221.899 177.654 221.892 173.591C221.884 169.501 224.618 165.656 229.588 162.763C239.746 156.852 256.252 156.798 266.382 162.642C271.308 165.484 274.025 169.286 274.033 173.35C274.04 177.441 271.306 181.287 266.333 184.181C261.218 187.158 254.492 188.648 247.782 188.648V188.647ZM248.143 158.674C241.501 158.674 234.844 160.149 229.78 163.096C224.932 165.917 222.267 169.643 222.275 173.591C222.282 177.512 224.931 181.196 229.734 183.967C239.759 189.751 256.09 189.697 266.137 183.848C270.987 181.026 273.654 177.298 273.647 173.35C273.64 169.43 270.99 165.746 266.188 162.975C261.213 160.106 254.685 158.674 248.143 158.674ZM247.826 185.492C242.597 185.492 237.381 184.348 233.403 182.053C229.5 179.802 227.348 176.788 227.342 173.564C227.337 170.321 229.5 167.274 233.436 164.983C241.467 160.312 254.513 160.27 262.52 164.887C266.423 167.138 268.576 170.153 268.582 173.378C268.589 176.622 266.423 179.67 262.486 181.961C258.444 184.313 253.129 185.491 247.826 185.491V185.492ZM233.63 165.316C229.817 167.535 227.721 170.464 227.727 173.564C227.732 176.645 229.816 179.541 233.595 181.72C241.498 186.279 254.373 186.238 262.292 181.629C266.106 179.411 268.202 176.48 268.196 173.379C268.191 170.298 266.106 167.401 262.327 165.221C254.426 160.663 241.552 160.705 233.63 165.316Z" fill="#013F71"/>
<path d="M215.946 191.922L226.389 185.852C226.794 185.615 227.354 185.645 227.976 185.996C229.219 186.699 230.237 188.437 230.246 189.873C230.251 190.598 229.998 191.11 229.588 191.349L219.144 197.419C219.555 197.18 219.806 196.669 219.803 195.943C219.794 194.507 218.775 192.768 217.532 192.066C216.912 191.716 216.352 191.686 215.946 191.922Z" fill="#013F71"/>
<path d="M219.144 197.611C219.078 197.611 219.014 197.577 218.978 197.515C218.924 197.424 218.956 197.306 219.046 197.254C219.413 197.039 219.613 196.575 219.61 195.945C219.602 194.571 218.626 192.907 217.436 192.234C216.9 191.93 216.406 191.877 216.045 192.087L216.041 192.089C215.948 192.142 215.831 192.111 215.778 192.02C215.725 191.928 215.756 191.81 215.847 191.758L226.29 185.688C226.774 185.406 227.405 185.456 228.068 185.831C229.364 186.564 230.425 188.377 230.436 189.874C230.441 190.648 230.173 191.231 229.683 191.518L219.24 197.588C219.209 197.605 219.176 197.614 219.143 197.614L219.144 197.611ZM216.868 191.609C217.111 191.655 217.366 191.752 217.625 191.898C218.922 192.632 219.984 194.446 219.994 195.942C219.996 196.251 219.954 196.532 219.872 196.773L229.49 191.182C229.856 190.969 230.057 190.505 230.053 189.874C230.045 188.5 229.07 186.836 227.88 186.164C227.34 185.859 226.847 185.809 226.486 186.018L216.868 191.609Z" fill="#013F71"/>
<path d="M215.289 193.391C215.28 191.955 216.285 191.359 217.532 192.065C218.775 192.768 219.794 194.506 219.803 195.941C219.812 197.383 218.809 197.978 217.565 197.274C216.317 196.569 215.299 194.83 215.289 193.39V193.391Z" fill="white"/>
<path d="M218.551 197.765C218.214 197.765 217.846 197.657 217.469 197.443C216.171 196.709 215.107 194.891 215.097 193.392C215.093 192.625 215.358 192.044 215.845 191.758C216.33 191.474 216.961 191.522 217.625 191.897C218.922 192.631 219.984 194.444 219.994 195.94C219.998 196.711 219.733 197.294 219.244 197.581C219.037 197.703 218.802 197.763 218.549 197.763L218.551 197.765ZM216.541 191.96C216.356 191.96 216.186 192.003 216.039 192.089C215.676 192.304 215.478 192.765 215.482 193.39C215.49 194.766 216.467 196.435 217.659 197.108C218.197 197.412 218.69 197.462 219.051 197.25C219.415 197.036 219.614 196.571 219.61 195.944C219.602 194.57 218.626 192.905 217.436 192.233C217.116 192.051 216.811 191.96 216.541 191.96Z" fill="#013F71"/>
<path d="M190.201 202.967L220.415 185.372C221.257 184.882 222.42 184.943 223.71 185.671C226.293 187.131 228.409 190.744 228.427 193.725C228.436 195.233 227.913 196.294 227.06 196.791L196.846 214.386C197.699 213.89 198.223 212.828 198.213 211.32C198.195 208.339 196.079 204.726 193.496 203.266C192.207 202.538 191.044 202.477 190.201 202.967Z" fill="white"/>
<path d="M196.845 214.578C196.778 214.578 196.714 214.545 196.678 214.483C196.625 214.391 196.656 214.273 196.747 214.22C197.577 213.737 198.028 212.708 198.019 211.321C198.001 208.401 195.929 204.862 193.4 203.433C192.215 202.763 191.114 202.658 190.296 203.133C190.202 203.185 190.085 203.155 190.032 203.063C189.979 202.971 190.01 202.853 190.101 202.801C190.101 202.801 190.101 202.801 190.102 202.801L220.315 185.207C221.255 184.66 222.493 184.766 223.801 185.505C226.437 186.995 228.596 190.683 228.616 193.725C228.625 195.255 228.106 196.404 227.153 196.958L196.939 214.552C196.909 214.569 196.875 214.577 196.842 214.577L196.845 214.578ZM191.461 202.456C192.119 202.462 192.844 202.677 193.59 203.099C196.225 204.589 198.384 208.277 198.404 211.319C198.41 212.199 198.24 212.954 197.913 213.541L226.962 196.625C227.792 196.142 228.243 195.113 228.234 193.726C228.216 190.806 226.142 187.267 223.615 185.838C222.432 185.168 221.33 185.061 220.512 185.538L191.459 202.455L191.461 202.456Z" fill="#013F71"/>
<path d="M190.201 203.159C190.135 203.159 190.071 203.126 190.035 203.064C189.981 202.972 190.013 202.854 190.103 202.801L217.858 186.636C217.95 186.583 218.068 186.613 218.121 186.705C218.175 186.797 218.143 186.915 218.052 186.968L190.298 203.132C190.268 203.15 190.234 203.159 190.201 203.159Z" fill="#013F71"/>
<path d="M188.837 206.02C188.819 203.038 190.903 201.801 193.495 203.266C196.078 204.726 198.193 208.339 198.212 211.32C198.231 214.313 196.146 215.551 193.564 214.091C190.972 212.625 188.856 209.013 188.837 206.02Z" fill="#013F71"/>
<path d="M195.613 214.897C194.951 214.897 194.221 214.683 193.469 214.258C190.829 212.765 188.664 209.07 188.645 206.021C188.636 204.503 189.151 203.362 190.096 202.807C191.038 202.254 192.279 202.357 193.592 203.099C196.227 204.589 198.386 208.277 198.405 211.319C198.415 212.844 197.899 213.991 196.952 214.547C196.554 214.781 196.102 214.897 195.614 214.897H195.613ZM191.437 202.84C191.016 202.84 190.628 202.939 190.291 203.138C189.469 203.621 189.021 204.645 189.03 206.02C189.048 208.945 191.125 212.491 193.66 213.924C194.843 214.594 195.944 214.695 196.757 214.216C197.581 213.732 198.031 212.704 198.022 211.322C198.005 208.403 195.932 204.864 193.403 203.434C192.706 203.039 192.037 202.84 191.438 202.84H191.437Z" fill="#013F71"/>
<path d="M191.099 207.301C191.089 205.759 192.168 205.117 193.509 205.876C194.845 206.632 195.94 208.502 195.95 210.044C195.959 211.592 194.88 212.234 193.544 211.477C192.202 210.718 191.108 208.85 191.097 207.3L191.099 207.301Z" fill="#E86207"/>
<g opacity="0.1">
<path d="M230.962 80.6382C221.989 85.8257 221.942 94.2401 230.861 99.4299C239.779 104.62 254.282 104.617 263.256 99.4299C272.233 94.2401 272.288 85.8257 263.37 80.6359C254.451 75.4461 239.94 75.4484 230.963 80.6382H230.962Z" fill="#013F71"/>
</g>
<path d="M269.919 86.3005C269.926 89.7115 267.681 93.1295 263.174 95.7278C259.686 97.7453 255.366 98.9747 250.859 99.4135C248.361 99.6662 245.802 99.6662 243.304 99.4287C238.752 98.9968 234.394 97.7604 230.899 95.7278C226.482 93.1586 224.273 89.8 224.265 86.4344L224.25 78.1457C224.257 81.5194 226.466 84.8779 230.884 87.4472C234.387 89.488 238.752 90.7243 243.304 91.1481C245.802 91.3867 248.361 91.3867 250.859 91.1329C255.359 90.694 259.679 89.4577 263.16 87.4472C267.66 84.8558 269.905 81.4449 269.905 78.0269L269.92 86.3005H269.919Z" fill="#D9E2EA"/>
<path d="M250.859 91.1341V99.4147C248.361 99.6673 245.802 99.6673 243.304 99.4298V91.1492C245.802 91.3879 248.361 91.3879 250.859 91.1341Z" fill="#F7F8FB"/>
<path d="M247.015 99.7907C241.134 99.7907 235.263 98.4927 230.8 95.8966C226.47 93.3762 224.08 90.0153 224.07 86.4321L224.053 78.1503C224.053 78.0432 224.139 77.9582 224.244 77.9571C224.35 77.9571 224.436 78.0432 224.436 78.1491C224.446 81.5904 226.769 84.8337 230.976 87.2819C239.792 92.4123 254.187 92.4123 263.061 87.2819C267.351 84.8011 269.712 81.517 269.709 78.0316V78.0164C269.709 77.9093 269.795 77.8232 269.9 77.8232C270.006 77.8232 270.092 77.9093 270.092 78.0153V78.0327L270.107 86.2982C270.118 89.9327 267.689 93.3425 263.267 95.899C258.777 98.495 252.89 99.793 247.012 99.793L247.015 99.7907ZM224.443 80.6102L224.455 86.4321C224.464 89.8733 226.787 93.1166 230.995 95.5648C239.811 100.696 254.206 100.695 263.08 95.5648C267.377 93.0805 269.737 89.7895 269.728 86.2982L269.717 80.4972C268.875 83.1841 266.654 85.6521 263.258 87.616C254.278 92.8093 239.711 92.8081 230.786 87.616C227.465 85.6824 225.285 83.2551 224.444 80.6113L224.443 80.6102Z" fill="#013F71"/>
<path d="M230.983 68.7242C222.042 73.893 221.994 82.2773 230.882 87.4484C239.769 92.6196 254.22 92.6172 263.16 87.4484C272.105 82.2773 272.16 73.893 263.274 68.7219C254.387 63.5507 239.928 63.553 230.984 68.7242H230.983Z" fill="white"/>
<path d="M247 91.5089C241.119 91.5089 235.249 90.2109 230.785 87.6149C226.44 85.0863 224.051 81.7126 224.055 78.1165C224.06 74.496 226.486 71.1014 230.886 68.5577C239.873 63.3621 254.445 63.3621 263.37 68.5554C267.712 71.0827 270.1 74.453 270.096 78.0479C270.09 81.6695 267.662 85.0677 263.256 87.6137C258.766 90.2098 252.878 91.5078 246.999 91.5078L247 91.5089ZM247.154 65.0396C241.34 65.0396 235.52 66.3225 231.078 68.8906C226.802 71.3633 224.443 74.6404 224.439 78.1165C224.434 81.5706 226.756 84.8255 230.978 87.2819C239.795 92.4123 254.189 92.4123 263.064 87.2819C267.346 84.8069 269.707 81.5263 269.712 78.0479C269.717 74.5962 267.397 71.3435 263.177 68.8883C258.769 66.3225 252.965 65.0396 247.154 65.0396Z" fill="#013F71"/>
<path d="M256.966 69.5858L253.618 75.3332C253.563 75.4193 253.501 75.4868 253.427 75.5299L245.372 80.2121C245.445 80.1691 245.513 80.1074 245.563 80.0212L248.911 74.275L256.966 69.5858Z" fill="#013F71"/>
<path d="M245.372 80.4041C245.305 80.4041 245.241 80.3704 245.205 80.3087C245.152 80.2167 245.183 80.0991 245.274 80.0456C245.328 80.0153 245.367 79.9757 245.395 79.9257L248.744 74.1783C248.76 74.1503 248.784 74.1259 248.812 74.1084L256.868 69.4192C256.943 69.3761 257.04 69.3878 257.101 69.4495C257.163 69.5112 257.176 69.6066 257.131 69.6823L253.783 75.4297C253.703 75.5555 253.619 75.6393 253.525 75.6963L245.468 80.3785C245.438 80.396 245.404 80.4041 245.372 80.4041ZM249.051 74.4146L246.024 79.6102L253.33 75.3634C253.372 75.3389 253.414 75.2947 253.456 75.2283L256.433 70.1177L249.05 74.4146H249.051Z" fill="#013F71"/>
<path d="M276.64 59.3737C276.623 64.496 274.698 68.0956 271.481 69.9698L263.421 74.6614C266.646 72.7871 268.571 69.1875 268.589 64.0641C268.623 51.9802 257.962 35.9883 244.788 28.3747C237.193 23.9824 230.417 23.3316 226.031 25.8846L234.09 21.1931C238.468 18.6412 245.244 19.3013 252.838 23.6843C266.013 31.306 276.675 47.2898 276.639 59.3737H276.64Z" fill="#F7F8FB"/>
<path d="M263.421 74.8535C263.355 74.8535 263.291 74.8197 263.255 74.758C263.201 74.6661 263.232 74.5485 263.323 74.4949L263.331 74.4903C266.627 72.5694 268.378 68.9641 268.395 64.0642C268.43 52.0501 257.795 36.1152 244.69 28.5424C237.408 24.3317 230.642 23.4225 226.126 26.0523C226.034 26.1047 225.916 26.0744 225.863 25.9824C225.81 25.8905 225.841 25.7729 225.932 25.7193L233.992 21.0278C238.616 18.3328 245.52 19.2397 252.932 23.5191C266.144 31.1617 276.865 47.2468 276.83 59.375C276.812 64.4227 274.994 68.1433 271.575 70.1375L263.529 74.8209C263.529 74.8209 263.52 74.8267 263.515 74.8291C263.485 74.8465 263.451 74.8547 263.419 74.8547L263.421 74.8535ZM232.086 24.1908C235.877 24.1908 240.285 25.5482 244.884 28.2083C258.096 35.8428 268.817 51.9279 268.782 64.0642C268.768 67.9152 267.706 70.9932 265.684 73.1212L271.384 69.8023C274.68 67.8814 276.432 64.2737 276.449 59.3715C276.484 47.3667 265.849 31.4307 252.744 23.8497C245.453 19.6413 238.69 18.7344 234.188 21.3584L228.564 24.632C229.662 24.3363 230.841 24.1896 232.086 24.1896V24.1908Z" fill="#013F71"/>
<path d="M276.64 59.3737C276.623 64.496 274.698 68.0955 271.481 69.9698L263.421 74.6614C266.646 72.7871 268.571 69.1875 268.589 64.0641" fill="#E3E6EB"/>
<path d="M263.421 74.8534C263.355 74.8534 263.291 74.8197 263.255 74.758C263.201 74.666 263.232 74.5484 263.323 74.4949L263.34 74.4867C266.631 72.5647 268.379 68.9617 268.396 64.0641C268.396 63.9581 268.483 63.8732 268.589 63.8732C268.694 63.8732 268.779 63.9593 268.779 64.0664C268.765 67.9174 267.704 70.9954 265.681 73.1235L271.382 69.8045C274.678 67.8837 276.429 64.2771 276.447 59.3737C276.447 59.2678 276.533 59.1828 276.639 59.1828C276.745 59.1828 276.83 59.2689 276.83 59.376C276.812 64.4226 274.994 68.1444 271.575 70.1375L263.525 74.8232C263.525 74.8232 263.519 74.8267 263.515 74.829C263.485 74.8465 263.451 74.8546 263.419 74.8546L263.421 74.8534Z" fill="#013F71"/>
<path d="M244.788 28.3736C257.964 35.9918 268.621 51.9767 268.586 64.0641C268.556 74.8279 260.068 78.8779 248.912 74.2726L245.563 80.02C245.371 80.3425 245.006 80.3483 244.643 80.1387C244.28 79.9292 243.917 79.5019 243.727 78.9594L240.421 69.3645C229.276 61.0781 220.839 47.2421 220.869 36.4784C220.903 24.391 231.616 20.76 244.786 28.3747L244.788 28.3736Z" fill="white"/>
<path d="M245.109 80.4717C244.934 80.4717 244.742 80.4158 244.548 80.304C244.114 80.0537 243.74 79.5741 243.547 79.0223L240.26 69.4832C228.88 61.0001 220.648 47.128 220.678 36.4784C220.692 31.4818 222.575 27.6518 225.98 25.6925C230.615 23.0266 237.505 23.9416 244.883 28.2083C258.093 35.8451 268.812 51.9313 268.778 64.0653C268.764 68.8336 267.123 72.4448 264.032 74.5077C260.352 76.9629 255.017 76.9629 248.995 74.5147L245.729 80.1178C245.588 80.3529 245.367 80.474 245.109 80.474V80.4717ZM232.087 24.5738C229.862 24.5738 227.86 25.0534 226.17 26.0255C222.842 27.9405 221.075 31.5552 221.061 36.4784C221.031 47.0314 229.221 60.7963 240.536 69.2097C240.566 69.2329 240.589 69.2644 240.602 69.3016L243.909 78.8966C244.069 79.3564 244.387 79.7697 244.739 79.9722C244.913 80.0735 245.231 80.1992 245.397 79.921L248.746 74.1748C248.794 74.0921 248.896 74.056 248.986 74.0944C254.949 76.5578 260.216 76.5892 263.818 74.1864C266.799 72.198 268.38 68.6974 268.393 64.0629C268.428 52.0512 257.794 36.1152 244.69 28.5389C240.15 25.9149 235.806 24.5726 232.086 24.5726L232.087 24.5738Z" fill="#013F71"/>
<path d="M256.816 55.4611C255.324 54.595 253.868 55.3854 253.846 57.1119C253.823 58.9908 255.14 61.3052 256.79 62.2609C258.43 63.2097 259.749 62.4402 259.755 60.5682C259.761 58.6823 258.452 56.4122 256.816 55.4623V55.4611Z" fill="#E86207"/>
<path d="M245.454 49.0734C243.041 46.7707 240.807 48.078 241.714 51.4424C242.009 52.5402 242.612 53.5495 243.432 54.3376C245.846 56.6625 248.024 55.3959 247.262 52.2142C246.977 51.021 246.341 49.9197 245.453 49.0734H245.454Z" fill="#E86207"/>
<path d="M233.097 41.9091C230.729 39.6763 228.581 40.901 229.327 44.0966C229.61 45.3073 230.253 46.4249 231.16 47.2735C233.559 49.5192 235.697 48.2316 234.925 45.0558C234.634 43.8591 233.993 42.7543 233.097 41.9091Z" fill="#E86207"/>
<path d="M244.151 143.593C243.063 144.222 243.057 145.242 244.138 145.87L257.968 153.91C259.05 154.538 260.81 154.538 261.899 153.91L275.82 145.87C276.908 145.242 276.914 144.222 275.832 143.593L262.002 135.553C260.921 134.925 259.16 134.925 258.072 135.553L244.151 143.593Z" fill="white"/>
<path d="M259.932 154.57C259.186 154.57 258.44 154.405 257.873 154.076L244.042 146.037C243.46 145.698 243.138 145.236 243.14 144.735C243.14 144.232 243.465 143.768 244.056 143.427L257.976 135.387C259.116 134.728 260.965 134.728 262.1 135.387L275.93 143.427C276.512 143.765 276.833 144.228 276.833 144.728C276.833 145.231 276.506 145.697 275.917 146.037L261.996 154.076C261.426 154.406 260.679 154.57 259.933 154.57H259.932ZM260.04 135.272C259.363 135.272 258.685 135.421 258.169 135.72L244.248 143.76C243.782 144.029 243.524 144.375 243.524 144.736C243.524 145.094 243.776 145.437 244.235 145.705L258.066 153.745C259.091 154.342 260.769 154.341 261.803 153.745L275.724 145.705C276.19 145.435 276.448 145.089 276.448 144.728C276.448 144.371 276.196 144.027 275.736 143.76L261.906 135.72C261.392 135.421 260.717 135.272 260.04 135.272Z" fill="#E3E6EB"/>
<path d="M265.56 141.488C268.66 143.278 268.676 146.179 265.592 147.971C262.513 149.761 257.506 149.761 254.408 147.971C251.314 146.184 251.298 143.285 254.377 141.495C257.461 139.702 262.467 139.702 265.56 141.489V141.488Z" fill="white"/>
<path d="M260.007 149.5C257.947 149.5 255.885 149.046 254.311 148.138C252.748 147.236 251.887 146.024 251.885 144.725C251.884 143.432 252.733 142.228 254.28 141.328C257.41 139.508 262.512 139.507 265.657 141.322C267.222 142.225 268.085 143.439 268.087 144.737C268.088 146.03 267.236 147.237 265.688 148.137C264.125 149.045 262.066 149.499 260.007 149.499V149.5ZM259.97 140.34C257.978 140.34 255.986 140.781 254.473 141.661C253.05 142.487 252.268 143.576 252.269 144.725C252.271 145.88 253.065 146.974 254.503 147.805C257.543 149.559 262.475 149.562 265.495 147.805C266.921 146.976 267.705 145.888 267.703 144.739C267.702 143.583 266.907 142.487 265.465 141.655C263.948 140.779 261.959 140.34 259.971 140.34H259.97Z" fill="#013F71"/>
<path d="M254.862 128.368L254.922 144.197C254.925 144.948 255.418 145.698 256.405 146.272C258.388 147.424 261.612 147.424 263.608 146.272C264.61 145.693 265.111 144.933 265.11 144.173L265.049 128.344C265.052 129.103 264.551 129.863 263.548 130.443C261.552 131.595 258.328 131.595 256.345 130.443C255.358 129.869 254.863 129.119 254.862 128.368Z" fill="white"/>
<path d="M256.346 130.443C257.331 131.016 258.622 131.302 259.918 131.305V147.131C258.643 147.118 257.376 146.835 256.406 146.271C255.419 145.697 254.925 144.947 254.924 144.196L254.863 128.367C254.865 129.118 255.359 129.868 256.346 130.442V130.443Z" fill="#E3E6EB"/>
<path d="M260.003 147.324C258.663 147.324 257.326 147.03 256.309 146.438C255.293 145.848 254.733 145.052 254.73 144.197L254.67 128.368C254.67 128.262 254.756 128.176 254.861 128.175C254.967 128.175 255.052 128.261 255.053 128.366V128.37C255.056 129.081 255.549 129.757 256.44 130.275C258.366 131.395 261.511 131.395 263.45 130.275C264.358 129.751 264.857 129.065 264.855 128.344C264.855 128.237 264.941 128.151 265.046 128.151C265.152 128.151 265.237 128.237 265.238 128.342L265.298 144.171C265.301 145.036 264.734 145.841 263.701 146.436C262.68 147.027 261.339 147.322 259.999 147.322L260.003 147.324ZM255.059 129.558L255.115 144.196C255.117 144.909 255.609 145.587 256.502 146.105C258.428 147.225 261.573 147.225 263.512 146.105C264.42 145.582 264.919 144.895 264.917 144.174L264.861 129.533C264.59 129.934 264.179 130.3 263.643 130.608C261.598 131.79 258.281 131.79 256.247 130.608C255.726 130.306 255.325 129.948 255.057 129.557L255.059 129.558Z" fill="#013F71"/>
<path d="M259.942 131.495C258.604 131.495 257.265 131.2 256.249 130.609C255.23 130.017 254.67 129.218 254.671 128.36C254.672 127.499 255.24 126.695 256.27 126.102C258.315 124.921 261.632 124.924 263.667 126.105C264.684 126.697 265.245 127.495 265.243 128.352C265.241 129.214 264.675 130.016 263.646 130.609C262.624 131.201 261.282 131.495 259.943 131.495H259.942ZM259.966 125.595C258.698 125.595 257.428 125.875 256.461 126.434C255.555 126.957 255.055 127.642 255.054 128.36C255.054 129.075 255.545 129.755 256.441 130.275C258.368 131.395 261.512 131.395 263.451 130.275C264.357 129.753 264.856 129.069 264.856 128.35C264.856 127.635 264.365 126.956 263.471 126.436C262.506 125.875 261.236 125.594 259.966 125.594V125.595Z" fill="#013F71"/>
<path d="M256.579 117.414L256.618 127.898C256.619 128.397 256.948 128.896 257.605 129.278C258.924 130.044 261.068 130.044 262.396 129.278C263.063 128.892 263.395 128.387 263.394 127.882L263.355 117.397C263.356 117.903 263.023 118.408 262.356 118.793C261.029 119.559 258.884 119.559 257.566 118.793C256.909 118.411 256.581 117.913 256.579 117.414Z" fill="white"/>
<path d="M257.564 118.794C258.214 119.172 259.064 119.361 259.917 119.367V129.849C259.076 129.838 258.243 129.65 257.604 129.279C256.948 128.897 256.619 128.399 256.617 127.899L256.577 117.415C256.579 117.914 256.907 118.413 257.564 118.794Z" fill="#E3E6EB"/>
<path d="M259.997 130.041C259.095 130.041 258.193 129.842 257.509 129.444C256.813 129.039 256.429 128.491 256.427 127.899L256.388 117.415C256.388 117.309 256.474 117.223 256.579 117.222C256.685 117.222 256.77 117.308 256.771 117.412C256.772 117.863 257.088 118.294 257.661 118.627C258.924 119.361 260.986 119.361 262.258 118.627C262.841 118.289 263.161 117.854 263.16 117.399C263.16 117.293 263.246 117.206 263.351 117.205C263.457 117.205 263.542 117.291 263.543 117.396L263.584 127.881C263.584 128.48 263.196 129.035 262.49 129.443C261.801 129.841 260.898 130.04 259.995 130.04L259.997 130.041ZM256.774 118.397L256.81 127.898C256.811 128.347 257.128 128.779 257.701 129.112C258.963 129.847 261.026 129.847 262.298 129.112C262.88 128.776 263.201 128.339 263.2 127.883L263.163 118.38C262.985 118.594 262.744 118.79 262.449 118.96C261.071 119.756 258.837 119.756 257.467 118.96C257.182 118.793 256.949 118.603 256.773 118.396L256.774 118.397Z" fill="#013F71"/>
<path d="M257.578 116.017C256.252 116.783 256.245 118.026 257.564 118.793C258.883 119.559 261.027 119.559 262.355 118.793C263.681 118.028 263.688 116.786 262.369 116.019C261.048 115.251 258.904 115.251 257.578 116.017Z" fill="#5340E2"/>
<path d="M259.957 119.557C259.055 119.557 258.153 119.358 257.469 118.96C256.771 118.553 256.385 118.003 256.388 117.409C256.388 116.812 256.778 116.258 257.484 115.851C258.861 115.055 261.096 115.059 262.467 115.854C263.164 116.259 263.548 116.81 263.547 117.403C263.547 118 263.157 118.553 262.453 118.96C261.764 119.358 260.861 119.557 259.959 119.557H259.957ZM259.972 115.634C259.14 115.634 258.308 115.816 257.674 116.183C257.092 116.52 256.771 116.955 256.771 117.409C256.771 117.861 257.086 118.293 257.661 118.627C258.924 119.361 260.986 119.361 262.258 118.627C262.839 118.291 263.159 117.856 263.16 117.402C263.16 116.95 262.845 116.518 262.271 116.186C261.638 115.818 260.806 115.634 259.972 115.634Z" fill="#013F71"/>
<mask id="mask0_5_2178" style="mask-type:luminance" maskUnits="userSpaceOnUse" x="256" y="106" width="8" height="14">
<g clip-path="url(#clip1_5_2178)">
<rect width="6.37797" height="12.8359" transform="translate(256.777 106.35)" fill="white"/>
<path d="M263.154 106.35V117.378C263.138 117.839 262.826 118.29 262.226 118.644C260.968 119.368 258.946 119.368 257.697 118.644C257.097 118.29 256.793 117.839 256.777 117.378V106.35H263.154Z" fill="url(#paint0_linear_5_2178)" style="mix-blend-mode:multiply"/>
</g>
</mask>
<g mask="url(#mask0_5_2178)">
<path d="M263.154 106.35V117.378C263.138 117.839 262.826 118.29 262.226 118.644C260.968 119.368 258.946 119.368 257.697 118.644C257.097 118.29 256.793 117.839 256.777 117.378V106.35H263.154Z" fill="url(#paint1_linear_5_2178)"/>
</g>
<path d="M225.737 146.612C227.127 145.81 227.135 144.507 225.755 143.705C224.375 142.903 222.127 142.903 220.738 143.705C219.348 144.507 219.341 145.809 220.721 146.611C222.102 147.413 224.348 147.414 225.737 146.611V146.612Z" fill="white"/>
<path d="M223.226 147.402C222.282 147.402 221.34 147.194 220.625 146.778C219.897 146.356 219.497 145.782 219.498 145.164C219.498 144.541 219.905 143.965 220.641 143.54C222.082 142.707 224.419 142.707 225.85 143.54C226.577 143.962 226.977 144.536 226.976 145.154C226.975 145.777 226.568 146.355 225.832 146.779C225.112 147.195 224.167 147.403 223.225 147.403L223.226 147.402ZM223.249 143.294C222.375 143.294 221.5 143.487 220.833 143.873C220.221 144.226 219.883 144.685 219.882 145.165C219.882 145.641 220.214 146.096 220.818 146.447C222.14 147.217 224.304 147.217 225.64 146.447C226.252 146.093 226.591 145.634 226.592 145.154C226.592 144.678 226.26 144.223 225.656 143.873C224.994 143.487 224.122 143.294 223.248 143.294H223.249Z" fill="#E3E6EB"/>
<path d="M223.246 144.242C222.704 144.242 222.18 144.365 221.807 144.58C221.508 144.753 221.337 144.966 221.336 145.162C221.336 145.357 221.503 145.566 221.798 145.738C222.167 145.952 222.689 146.075 223.23 146.075C223.772 146.075 224.295 145.952 224.668 145.736C224.967 145.564 225.139 145.351 225.139 145.153C225.139 144.959 224.972 144.749 224.678 144.578C224.309 144.364 223.787 144.24 223.247 144.24L223.246 144.242Z" fill="#5340E2"/>
<path d="M233.436 138.521C232.854 138.521 232.291 138.654 231.892 138.884C231.571 139.069 231.387 139.297 231.386 139.509C231.386 139.719 231.566 139.944 231.882 140.127C232.278 140.358 232.839 140.491 233.42 140.491C234.001 140.491 234.564 140.358 234.963 140.127C235.285 139.942 235.47 139.714 235.47 139.501C235.47 139.292 235.289 139.067 234.974 138.884C234.577 138.654 234.017 138.522 233.436 138.522V138.521Z" fill="#013F71"/>
</g>
<defs>
<linearGradient id="paint0_linear_5_2178" x1="259.964" y1="119.671" x2="259.964" y2="106.94" gradientUnits="userSpaceOnUse">
<stop stop-color="#E6E6E6"/>
<stop offset="1"/>
</linearGradient>
<linearGradient id="paint1_linear_5_2178" x1="259.964" y1="119.671" x2="259.964" y2="106.94" gradientUnits="userSpaceOnUse">
<stop stop-color="#56B1E4"/>
<stop offset="1" stop-color="white"/>
</linearGradient>
<clipPath id="clip0_5_2178">
<rect width="197" height="197" fill="white" transform="translate(79.8333 19.5027)"/>
</clipPath>
<clipPath id="clip1_5_2178">
<rect width="6.37797" height="12.8359" fill="white" transform="translate(256.777 106.35)"/>
</clipPath>
</defs>
</svg>
