<svg width="357" height="236" viewBox="0 0 357 236" fill="none" xmlns="http://www.w3.org/2000/svg">
<path opacity="0.3" d="M233.303 180.798L240.273 176.768L240.086 176.659L233.115 180.689L220.725 173.524L227.695 169.495L227.508 169.386L220.537 173.415L208.147 166.251L215.117 162.221L214.93 162.112L207.96 166.142L195.569 158.977L202.54 154.947L202.352 154.838L195.382 158.868L182.991 151.703L189.962 147.673L189.774 147.564L182.804 151.594L170.413 144.429L177.384 140.4L177.196 140.291L170.226 144.32L162.445 139.821L162.257 139.93L170.038 144.429L157.648 151.594L149.867 147.094L149.679 147.203L157.46 151.703L145.07 158.868L137.289 154.368L137.101 154.477L144.882 158.977L132.492 166.142L124.711 161.642L124.523 161.751L132.304 166.251L119.914 173.415L112.133 168.916L111.945 169.025L119.726 173.524L108.552 179.986L108.74 180.095L119.914 173.633L132.304 180.798L121.13 187.26L121.318 187.369L132.492 180.907L144.882 188.072L133.708 194.534L133.896 194.643L145.07 188.181L157.46 195.345L146.286 201.807L146.474 201.916L157.648 195.454L170.038 202.619L158.864 209.081L159.052 209.19L170.226 202.728L182.616 209.893L171.438 216.355L171.626 216.464L182.804 210.002L194.248 216.618L194.436 216.509L182.991 209.893L195.382 202.728L206.826 209.344L207.014 209.235L195.569 202.619L207.96 195.454L219.404 202.07L219.592 201.961L208.147 195.345L220.537 188.181L231.982 194.797L232.17 194.688L220.725 188.072L233.115 180.907L244.56 187.523L244.747 187.414L233.303 180.798ZM220.35 173.524L207.96 180.689L195.569 173.524L207.96 166.36L220.35 173.524ZM170.226 173.415L157.836 166.251L170.226 159.086L182.616 166.251L170.226 173.415ZM182.804 166.36L195.194 173.524L182.804 180.689L170.413 173.524L182.804 166.36ZM170.038 173.524L157.648 180.689L145.258 173.524L157.648 166.36L170.038 173.524ZM170.226 173.633L182.616 180.798L170.226 187.963L157.836 180.798L170.226 173.633ZM182.804 180.907L195.194 188.072L182.804 195.236L170.413 188.072L182.804 180.907ZM182.991 180.798L195.382 173.633L207.772 180.798L195.382 187.963L182.991 180.798ZM207.772 166.251L195.382 173.415L182.991 166.251L195.382 159.086L207.772 166.251ZM195.194 158.981L182.804 166.145L170.413 158.981L182.804 151.816L195.194 158.981ZM170.226 144.542L182.616 151.707L170.226 158.872L157.836 151.707L170.226 144.542ZM157.648 151.816L170.038 158.981L157.648 166.145L145.258 158.981L157.648 151.816ZM145.07 159.09L157.46 166.254L145.07 173.419L132.68 166.254L145.07 159.09ZM120.102 173.524L132.492 166.36L144.882 173.524L132.492 180.689L120.102 173.524ZM132.68 180.798L145.07 173.633L157.46 180.798L145.07 187.963L132.68 180.798ZM145.258 188.068L157.648 180.903L170.038 188.068L157.648 195.233L145.258 188.068ZM157.836 195.342L170.226 188.177L182.616 195.342L170.226 202.506L157.836 195.342ZM182.804 209.78L170.413 202.615L182.804 195.451L195.194 202.615L182.804 209.78ZM195.382 202.506L182.991 195.342L195.382 188.177L207.772 195.342L195.382 202.506ZM207.96 195.233L195.569 188.068L207.96 180.903L220.35 188.068L207.96 195.233ZM220.537 187.959L208.147 180.794L220.537 173.63L232.928 180.794L220.537 187.959Z" fill="#585896"/>
<path d="M178.393 167.371V157.406L180.863 155.977V165.942C180.863 170.51 184.076 172.37 188.029 170.085C191.981 167.799 195.194 162.225 195.194 157.657V74.9172C195.194 68.7749 199.514 61.2756 204.829 58.2045C207.442 56.6934 209.81 56.5317 211.548 57.4865L166.878 31.6695C165.121 30.5455 162.64 30.647 159.892 32.2333C154.578 35.3045 150.257 42.8037 150.257 48.946V131.686C150.257 136.253 147.044 141.828 143.092 144.114L178.664 169.84C178.487 169.1 178.39 168.277 178.39 167.371H178.393Z" fill="white"/>
<path d="M184.834 171.25C182.308 171.25 180.675 169.168 180.675 165.942V156.304L178.581 157.515V167.371C178.581 168.235 178.671 169.051 178.851 169.799L178.968 170.292L142.754 144.099L143.006 143.952C146.905 141.697 150.077 136.197 150.077 131.686V48.946C150.077 42.7436 154.439 35.1729 159.806 32.068C161.341 31.1808 162.82 30.7297 164.194 30.7297C165.237 30.7297 166.176 30.9929 166.983 31.5079L212.028 57.5429L211.529 57.6858L211.458 57.6482C210.767 57.2685 209.983 57.0768 209.119 57.0768C207.813 57.0768 206.402 57.5091 204.923 58.3624C199.661 61.4035 195.382 68.8276 195.382 74.9135V157.654C195.382 162.281 192.127 167.931 188.122 170.243C186.974 170.908 185.867 171.246 184.834 171.246V171.25ZM181.051 155.654V165.942C181.051 168.983 182.5 170.874 184.834 170.874C185.799 170.874 186.842 170.555 187.935 169.923C191.835 167.668 195.006 162.168 195.006 157.657V74.9172C195.006 68.7148 199.368 61.1441 204.735 58.0391C206.575 56.9753 208.354 56.5393 209.915 56.7573L166.788 31.8311C166.033 31.35 165.162 31.1056 164.19 31.1056C162.88 31.1056 161.469 31.5379 159.99 32.395C154.728 35.436 150.449 42.8601 150.449 48.946V131.686C150.449 136.22 147.326 141.73 143.437 144.129L178.382 169.404C178.266 168.765 178.206 168.085 178.206 167.371V157.297L181.051 155.65V155.654Z" fill="#585896"/>
<path d="M188.029 172.941C182.717 176.013 178.393 173.513 178.393 167.371V157.405L180.863 155.977V165.942C180.863 170.509 184.076 172.37 188.029 170.085C191.981 167.799 195.194 162.224 195.194 157.657V74.9171C195.194 68.7748 199.514 61.2756 204.829 58.2044C210.144 55.1333 214.464 57.6331 214.464 63.7753V74.9284L211.994 76.3568V65.2038C211.994 60.6365 208.782 58.7758 204.829 61.0613C200.877 63.3468 197.664 68.9214 197.664 73.4887V156.229C197.664 162.371 193.343 169.87 188.029 172.941Z" fill="#5340E2"/>
<path d="M183.735 174.442C180.375 174.442 178.206 171.664 178.206 167.367V157.293L181.051 155.646V165.935C181.051 168.976 182.5 170.867 184.834 170.867C185.799 170.867 186.842 170.547 187.935 169.916C191.835 167.66 195.006 162.161 195.006 157.65V74.9097C195.006 68.7073 199.368 61.1366 204.735 58.0316C206.27 57.1445 207.749 56.6934 209.123 56.6934C212.482 56.6934 214.652 59.4713 214.652 63.7679V75.03L211.807 76.6765V65.1964C211.807 62.1553 210.358 60.2645 208.023 60.2645C207.059 60.2645 206.015 60.584 204.923 61.2155C201.023 63.471 197.851 68.9704 197.851 73.4813V156.221C197.851 162.424 193.486 169.995 188.122 173.1C186.587 173.987 185.108 174.438 183.735 174.438V174.442ZM178.581 157.515V167.371C178.581 171.502 180.555 174.069 183.735 174.069C185.045 174.069 186.456 173.637 187.935 172.78C193.197 169.739 197.476 162.315 197.476 156.229V73.4888C197.476 68.8614 200.73 63.2116 204.732 60.8998C205.88 60.2344 206.987 59.8961 208.02 59.8961C210.546 59.8961 212.178 61.9786 212.178 65.2039V76.0299L214.273 74.8195V63.7754C214.273 59.6443 212.299 57.0768 209.119 57.0768C207.809 57.0768 206.398 57.5091 204.919 58.3662C199.657 61.4073 195.378 68.8314 195.378 74.9172V157.657C195.378 162.285 192.124 167.935 188.119 170.246C186.97 170.912 185.863 171.25 184.831 171.25C182.304 171.25 180.672 169.168 180.672 165.942V156.304L178.577 157.515H178.581Z" fill="#585896"/>
<path d="M178.393 167.371V157.405L133.46 131.434V141.399C133.46 144.557 134.601 146.749 136.429 147.722L180.781 173.325C179.294 172.224 178.39 170.179 178.39 167.374L178.393 167.371Z" fill="white"/>
<path d="M180.69 173.483L136.339 147.88C134.365 146.831 133.276 144.527 133.276 141.396V131.107L178.585 157.296V167.371C178.585 170.006 179.407 172.066 180.901 173.171L180.694 173.487L180.69 173.483ZM133.648 131.761V141.399C133.648 144.384 134.669 146.572 136.519 147.557L179.643 172.449C178.709 171.209 178.206 169.461 178.206 167.371V157.514L133.648 131.761Z" fill="#585896"/>
<path d="M180.863 155.977L178.393 157.405L133.46 131.434L135.93 130.006L180.863 155.977Z" fill="white"/>
<path d="M178.393 157.623L178.299 157.571L133.085 131.438L135.93 129.792L136.024 129.844L181.238 155.977L178.393 157.623ZM133.836 131.434L178.393 157.187L180.488 155.977L135.93 130.224L133.836 131.434Z" fill="#585896"/>
<path d="M204.829 61.0613C202.221 62.5687 199.931 65.5158 198.677 68.6583L211.995 76.3568V65.2038C211.995 60.6366 208.782 58.7758 204.829 61.0613Z" fill="#3828B4"/>
<path d="M212.182 76.6802L198.444 68.7411L198.505 68.5907C199.811 65.3128 202.198 62.3657 204.735 60.8997C205.884 60.2344 206.991 59.8961 208.023 59.8961C210.549 59.8961 212.182 61.9786 212.182 65.2038V76.6802ZM198.914 68.5757L211.807 76.0298V65.2038C211.807 62.1628 210.358 60.272 208.023 60.272C207.059 60.272 206.015 60.5915 204.923 61.223C202.494 62.6289 200.201 65.4369 198.914 68.5757Z" fill="#6F6FA1"/>
<path opacity="0.1" d="M207.16 120.518L205.951 119.819L207.235 118.09L205.951 114.876L207.16 115.575L208.444 118.789L207.16 120.518Z" fill="#585896"/>
<path opacity="0.2" d="M212.062 123.349L210.85 122.649L212.133 120.92L210.85 117.71L212.062 118.409L213.342 121.619L212.062 123.349Z" fill="#585896"/>
<path opacity="0.4" d="M216.96 126.183L215.752 125.484L217.032 123.755L215.752 120.544L216.96 121.24L218.244 124.454L216.96 126.183Z" fill="#585896"/>
<path opacity="0.6" d="M221.859 129.017L220.65 128.314L221.93 126.585L220.65 123.375L221.859 124.074L223.142 127.288L221.859 129.017Z" fill="#585896"/>
<path opacity="0.8" d="M226.761 131.848L225.548 131.149L226.832 129.419L225.548 126.209L226.761 126.908L228.041 130.119L226.761 131.848Z" fill="#585896"/>
<path d="M231.659 134.682L230.447 133.983L231.73 132.254L230.447 129.04L231.659 129.739L232.939 132.953L231.659 134.682Z" fill="#585896"/>
<path d="M137.92 93.3364L135.893 93.8814V95.2723L137.92 94.7272L139.943 97.6142V96.2233L137.92 93.3364Z" fill="#585896"/>
<path opacity="0.8" d="M137.92 99.2343L135.893 99.7794V101.17L137.92 100.625L139.943 103.512V102.121L137.92 99.2343Z" fill="#585896"/>
<path opacity="0.6" d="M137.92 105.132L135.893 105.677V107.068L137.92 106.523L139.943 109.41V108.019L137.92 105.132Z" fill="#585896"/>
<path opacity="0.4" d="M137.92 111.03L135.893 111.579V112.966L137.92 112.421L139.943 115.308V113.921L137.92 111.03Z" fill="#585896"/>
<path opacity="0.2" d="M137.92 116.932L135.893 117.477V118.868L137.92 118.319L139.943 121.206V119.819L137.92 116.932Z" fill="#585896"/>
<path opacity="0.2" d="M137.92 122.341L135.893 122.89V124.277L137.92 123.732L139.943 126.619V125.228L137.92 122.341Z" fill="#585896"/>
<path d="M126.595 124.781L127.736 124.296C118.919 106.155 113.665 86.7017 113.665 68.8651C113.665 27.3315 142.15 9.96851 177.763 29.1133L178.337 27.6736C141.628 7.54769 112.159 25.2716 112.159 67.993C112.159 86.2657 117.553 106.2 126.595 124.781Z" fill="#F2F9FC"/>
<path d="M226.374 78.8115C238.851 99.9975 246.605 124.055 246.605 145.726C246.605 188.177 216.844 205.386 180.135 184.159C178.048 182.952 175.984 181.64 173.942 180.245L173.469 181.674C175.661 183.189 177.887 184.606 180.135 185.906C217.677 207.611 248.114 190.015 248.114 146.602C248.114 124.1 239.939 99.084 226.836 77.1801L226.374 78.8153V78.8115Z" fill="#F2F9FC"/>
<path d="M224.88 138.764L212.096 131.374C211.082 130.788 210.163 130.75 209.514 131.164L207.359 132.487C206.567 132.788 206.064 133.641 206.064 134.915V149.696C206.064 151.97 207.671 154.755 209.637 155.894L222.422 163.285C223.431 163.867 224.344 163.905 224.993 163.495C224.993 163.495 224.993 163.495 224.989 163.495L227.354 162.078C228.029 161.717 228.454 160.905 228.454 159.74V144.959C228.454 142.685 226.847 139.9 224.884 138.764H224.88Z" fill="white"/>
<path d="M208.752 108.865L218.353 114.417C219.111 114.857 219.794 114.883 220.286 114.575L222.061 113.511C222.572 113.24 222.887 112.632 222.887 111.756V100.651C222.887 98.9449 221.682 96.8511 220.207 95.9978L210.606 90.4457C209.844 90.0059 209.153 89.9796 208.665 90.2878L207.047 91.2802C206.454 91.5057 206.075 92.1448 206.075 93.1033V104.208C206.075 105.914 207.284 108.008 208.759 108.861L208.752 108.865Z" fill="white"/>
<path d="M225.991 161.217V146.437C225.991 144.166 224.385 141.377 222.422 140.242L209.637 132.851C208.774 132.352 207.978 132.25 207.359 132.491L209.514 131.167C210.167 130.754 211.082 130.792 212.096 131.378L224.88 138.768C226.843 139.903 228.45 142.693 228.454 144.963V159.744C228.454 160.909 228.029 161.721 227.354 162.082L224.989 163.499C225.608 163.112 225.995 162.326 225.995 161.217H225.991Z" fill="#5340E2"/>
<path d="M221.033 112.865V101.76C221.033 100.054 219.824 97.96 218.349 97.1067L208.748 91.5546C208.098 91.1787 207.502 91.1035 207.036 91.284L208.654 90.2916C209.142 89.9796 209.833 90.0096 210.595 90.4495L220.196 96.0016C221.671 96.8549 222.876 98.9486 222.88 100.655V111.759C222.88 112.635 222.561 113.244 222.054 113.515L220.279 114.579C220.744 114.289 221.033 113.699 221.033 112.865Z" fill="#5340E2"/>
<path d="M139.357 61.2681L126.757 53.9831C125.758 53.4042 124.854 53.3703 124.212 53.7763L122.087 55.0807C121.307 55.3777 120.811 56.2159 120.811 57.4714V72.0415C120.811 74.2819 122.395 77.0297 124.332 78.1499L136.932 85.4349C137.927 86.01 138.828 86.0439 139.47 85.6417C139.47 85.6417 139.466 85.6417 139.462 85.6454L141.793 84.2508C142.461 83.8937 142.874 83.093 142.874 81.9465V67.3765C142.874 65.1361 141.294 62.3883 139.357 61.2681Z" fill="white"/>
<path d="M140.453 83.4013V68.8312C140.453 66.5909 138.869 63.843 136.932 62.7228L124.332 55.4378C123.48 54.9454 122.695 54.8476 122.087 55.0807L124.212 53.7763C124.854 53.3703 125.758 53.4042 126.757 53.9831L139.357 61.2681C141.294 62.3883 142.874 65.1361 142.878 67.3765V81.9465C142.878 83.093 142.461 83.8937 141.793 84.2508L139.462 85.6492C140.07 85.2695 140.453 84.4952 140.453 83.4013Z" fill="#5340E2"/>
<path d="M224.002 163.954C223.473 163.954 222.91 163.785 222.328 163.446L209.543 156.056C207.52 154.887 205.876 152.034 205.876 149.696V134.915C205.876 133.615 206.387 132.671 207.273 132.321L209.412 131.006C210.14 130.543 211.15 130.615 212.186 131.213L224.97 138.603C226.99 139.772 228.634 142.625 228.637 144.963V159.744C228.637 160.946 228.21 161.834 227.436 162.247L224.798 163.83V163.803C224.557 163.901 224.287 163.954 224.002 163.954ZM207.404 132.588L207.427 132.663C206.68 132.949 206.252 133.769 206.252 134.915V149.696C206.252 151.914 207.813 154.62 209.731 155.729L222.516 163.119C223.416 163.642 224.276 163.717 224.891 163.333L227.256 161.916C227.909 161.567 228.262 160.796 228.262 159.74V144.959C228.262 142.741 226.701 140.035 224.786 138.926L212.002 131.536C211.101 131.013 210.223 130.938 209.615 131.322L207.46 132.645L207.389 132.528L207.445 132.652L207.408 132.581L207.404 132.588Z" fill="#585896"/>
<path d="M219.554 115.233L219.764 114.955C219.689 114.962 219.618 114.97 219.539 114.97C219.134 114.97 218.702 114.838 218.259 114.583L208.658 109.03C207.126 108.143 205.88 105.982 205.88 104.211V93.1071C205.88 92.5621 205.996 92.0997 206.214 91.7464L205.61 91.9418L206.518 91.3855C206.646 91.2727 206.792 91.1825 206.954 91.1186L208.556 90.1337C209.116 89.7804 209.893 89.8293 210.688 90.2879L220.29 95.84C221.821 96.7233 223.064 98.8848 223.067 100.659V111.763C223.067 112.684 222.737 113.368 222.14 113.684L219.55 115.237L219.554 115.233ZM207.055 91.3103L207.108 91.4607C206.567 91.6674 206.255 92.2689 206.255 93.1071V104.211C206.255 105.862 207.415 107.876 208.845 108.703L218.447 114.255C219.104 114.635 219.742 114.695 220.185 114.417L221.96 113.353C222.437 113.098 222.692 112.534 222.692 111.759V100.655C222.692 99.0051 221.532 96.9865 220.106 96.1632L210.504 90.6111C209.84 90.2277 209.202 90.1676 208.759 90.4495L207.138 91.4456L207.055 91.3103Z" fill="#585896"/>
<path d="M138.49 86.1003C137.968 86.1003 137.413 85.9311 136.839 85.6003L124.238 78.3153C122.245 77.1613 120.623 74.3495 120.623 72.0452V57.4752C120.623 56.1934 121.126 55.2611 122.001 54.9153L124.11 53.6184C124.827 53.1636 125.826 53.2312 126.847 53.8214L139.447 61.1064C141.437 62.2567 143.058 65.0722 143.062 67.3765V81.9465C143.062 83.1306 142.641 84.0102 141.879 84.4162L139.275 85.98V85.9537C139.034 86.0514 138.772 86.1003 138.49 86.1003ZM122.125 55.1672L122.155 55.2574C121.419 55.5393 120.999 56.3475 120.999 57.4752V72.0452C120.999 74.2292 122.538 76.8981 124.426 77.992L137.026 85.277C137.916 85.792 138.76 85.8672 139.368 85.4875L141.696 84.0929C142.337 83.7509 142.686 82.9915 142.686 81.9503V67.3803C142.686 65.1925 141.148 62.5273 139.263 61.4372L126.663 54.1522C125.773 53.6372 124.91 53.562 124.313 53.9417L122.189 55.2461L122.11 55.122L122.174 55.2574L122.129 55.1747L122.125 55.1672Z" fill="#585896"/>
<path d="M189.365 126.138C188.787 125.803 188.306 125.999 188.19 126.559C185.465 125.525 184.106 127.13 183.082 128.344C182.826 128.649 182.582 128.931 182.346 129.145C182.169 128.927 181.967 128.739 181.753 128.611C181.239 128.314 180.803 128.435 180.63 128.859C180.143 128.356 179.703 127.66 179.219 126.886C178.487 125.713 177.609 124.311 176.276 123.21C176.149 122.529 175.68 121.804 175.113 121.48C174.497 121.123 173.991 121.368 173.923 122.014C172.56 121.868 171.367 122.762 170.207 123.638C169.4 124.247 168.623 124.83 167.869 124.991C167.651 124.51 167.294 124.07 166.889 123.837C166.375 123.54 165.936 123.661 165.767 124.089C165.129 123.416 164.626 122.514 164.07 121.514C163.139 119.838 162.085 117.936 160.121 116.8C157.393 115.222 155.126 118.665 154.123 120.582C154.105 120.571 154.086 120.556 154.067 120.544C153.403 120.161 152.866 120.473 152.866 121.24C152.866 122.007 153.403 122.939 154.067 123.322C154.731 123.706 155.268 123.394 155.268 122.627C155.268 122.172 155.077 121.661 154.784 121.236C155.745 119.424 157.821 116.27 160.125 117.601C161.788 118.563 162.655 120.123 163.567 121.774C164.194 122.905 164.84 124.067 165.737 124.916C165.876 125.585 166.337 126.288 166.889 126.608C167.55 126.991 168.09 126.679 168.09 125.912C168.09 125.912 168.09 125.905 168.09 125.901C168.983 125.773 169.839 125.13 170.729 124.461C171.795 123.657 172.891 122.834 174.054 122.894C174.257 123.45 174.651 123.984 175.113 124.251C175.627 124.548 176.07 124.424 176.239 123.995C177.324 124.924 178.052 126.089 178.761 127.22C179.343 128.149 179.899 129.036 180.593 129.675C180.728 130.352 181.194 131.062 181.749 131.385C182.41 131.769 182.95 131.457 182.95 130.69C182.95 130.472 182.901 130.239 182.823 130.01C183.104 129.777 183.374 129.457 183.66 129.119C184.65 127.946 185.855 126.518 188.25 127.397C188.426 128.01 188.858 128.623 189.365 128.916C190.025 129.299 190.566 128.987 190.566 128.22C190.566 127.454 190.029 126.521 189.365 126.138Z" fill="#F2F9FC"/>
<path d="M190.682 150.511L169.588 138.313V135.847L190.682 148.045V150.511Z" fill="#F2F9FC"/>
<path d="M167.992 136.682L166.401 137.524V139.986L187.499 152.184L189.091 151.346V148.88L167.992 136.682Z" fill="white"/>
<path d="M187.496 152.402L187.405 152.349L166.213 140.095V137.407L167.996 136.464L168.086 136.516L189.278 148.771V151.459L187.496 152.402ZM166.589 139.881L187.503 151.974L188.903 151.233V148.989L167.989 136.896L166.589 137.637V139.881Z" fill="#585896"/>
<path d="M189.091 151.346L187.499 152.184V149.722L189.091 148.88V151.346Z" fill="#5340E2"/>
<path d="M187.357 152.421V149.639L189.23 148.651V151.432L187.357 152.421ZM187.638 149.808V151.955L188.948 151.263V149.117L187.638 149.808Z" fill="#585896"/>
<path d="M187.638 152.428L166.258 140.069V137.279L187.638 149.639V152.428ZM166.544 139.907L187.36 151.943V149.805L166.544 137.768V139.907Z" fill="#585896"/>
<path d="M190.682 78.6386L169.588 66.4405V63.9783L190.682 76.1764V78.6386Z" fill="#F2F9FC"/>
<path d="M167.992 64.8129L166.401 65.655V68.1171L187.499 80.3152L189.091 79.4769V77.011L167.992 64.8129Z" fill="white"/>
<path d="M187.496 80.5294L187.405 80.4768L166.213 68.2224V65.5346L167.996 64.5911L168.086 64.6438L189.278 76.8982V79.5859L187.496 80.5294ZM166.589 68.0081L187.503 80.1009L188.903 79.3604V77.1162L167.989 65.0234L166.589 65.7639V68.0081Z" fill="#585896"/>
<path d="M189.091 79.4769L187.499 80.3151V77.853L189.091 77.0109V79.4769Z" fill="white"/>
<path d="M187.357 80.5519V77.7702L189.23 76.7816V79.5632L187.357 80.5519ZM187.638 77.9356V80.082L188.948 79.3903V77.2439L187.638 77.9356Z" fill="#585896"/>
<path d="M187.638 80.5595L166.258 68.1998V65.4106L187.638 77.7703V80.5595ZM166.544 68.0381L187.36 80.0746V77.9357L166.544 65.8993V68.0381Z" fill="#585896"/>
<path d="M164.652 103.324L157.314 99.084V60.7455L164.652 64.9895V103.324Z" fill="#F2F9FC"/>
<path d="M160.204 67.5833L152.87 63.3431L155.092 62.0462L162.43 66.2864L160.204 67.5833Z" fill="#5443D9"/>
<path d="M160.208 67.8013L152.498 63.3431L155.095 61.8282L162.805 66.2864L160.208 67.8013ZM153.245 63.3431L160.208 67.369L162.058 66.2902L155.095 62.2642L153.249 63.3431H153.245Z" fill="#585896"/>
<path d="M162.426 104.625L160.204 105.922V67.5833L162.43 66.2864L162.426 104.625Z" fill="#5443D9"/>
<path d="M160.016 106.249V67.4779L162.614 65.9593V104.73L160.016 106.249ZM160.392 67.6922V105.595L162.238 104.516V66.6134L160.392 67.6922Z" fill="#585896"/>
<path d="M160.204 105.922L152.87 101.681V63.3431L160.204 67.5833V105.922Z" fill="#5443D9"/>
<path d="M160.392 106.249L152.682 101.791V63.0198L160.395 67.4781V106.249H160.392ZM153.057 101.573L160.016 105.598V67.6961L153.057 63.6702V101.573Z" fill="#585896"/>
<path d="M173.795 108.658L166.457 104.418L166.461 82.2811L173.795 86.5213V108.658Z" fill="#F2F9FC"/>
<path d="M169.351 89.1189L162.013 84.8787L164.235 83.5781L171.573 87.822L169.351 89.1189Z" fill="#E86207"/>
<path d="M169.351 89.3368L161.642 84.8786L164.239 83.3637L171.949 87.8219L169.351 89.3368ZM162.389 84.8748L169.351 88.9008L171.202 87.8219L164.239 83.796L162.392 84.8748H162.389Z" fill="#585896"/>
<path d="M171.573 109.959L169.351 111.256V89.1188L171.573 87.822V109.959Z" fill="#E86207"/>
<path d="M169.164 111.583V89.0098L171.761 87.4911V110.064L169.164 111.583ZM169.539 89.2278V110.929L171.386 109.85V88.149L169.539 89.2278Z" fill="#585896"/>
<path d="M169.351 111.256L162.013 107.016V84.8786L169.351 89.1188V111.256Z" fill="#E86207"/>
<path d="M169.539 111.583L161.829 107.125V84.5516L169.539 89.0098V111.583ZM162.201 106.907L169.16 110.932V89.2278L162.201 85.2019V106.907Z" fill="#585896"/>
<path d="M183.356 113.996L176.017 109.752V79.5145L183.356 83.7584V113.996Z" fill="#F2F9FC"/>
<path d="M178.908 86.3558L171.573 82.1119L173.795 80.815L181.13 85.0552L178.908 86.3558Z" fill="#5443D9"/>
<path d="M178.911 86.5701L171.202 82.1119L173.799 80.597L181.509 85.0552L178.911 86.5701ZM171.949 82.1119L178.911 86.1378L180.758 85.059L173.795 81.033L171.945 82.1119H171.949Z" fill="#585896"/>
<path d="M181.13 115.293L178.908 116.59V86.3559L181.13 85.0552V115.293Z" fill="#5443D9"/>
<path d="M178.72 116.917V86.2431L181.317 84.7244V115.398L178.72 116.917ZM179.095 86.4611V116.263L180.942 115.184V85.3823L179.095 86.4611Z" fill="#585896"/>
<path d="M178.908 116.59L171.573 112.35V82.112L178.908 86.3559V116.59Z" fill="#5443D9"/>
<path d="M179.095 116.917L171.386 112.459V81.7886L179.099 86.2469V116.917H179.095ZM171.761 112.241L178.72 116.267V86.4649L171.761 82.4389V112.241Z" fill="#585896"/>
<path d="M192.33 119.33L184.996 115.086V101.05L192.334 105.29L192.33 119.33Z" fill="#F2F9FC"/>
<path d="M187.886 107.888L180.552 103.647L182.774 102.347L190.108 106.591L187.886 107.888Z" fill="#E86207"/>
<path d="M187.886 108.106L180.176 103.647L182.774 102.133L190.483 106.591L187.886 108.106ZM180.923 103.644L187.886 107.67L189.736 106.591L182.774 102.565L180.923 103.644Z" fill="#585896"/>
<path d="M190.108 120.627L187.886 121.928V107.888L190.108 106.591V120.627Z" fill="#E86207"/>
<path d="M187.698 122.255V107.782L190.296 106.264V120.736L187.698 122.255ZM188.074 107.997V121.601L189.92 120.522V106.918L188.074 107.997Z" fill="#585896"/>
<path d="M187.886 121.928L180.552 117.684V103.648L187.886 107.888V121.928Z" fill="#E86207"/>
<path d="M188.074 122.251L180.364 117.793V103.32L188.077 107.779V122.251H188.074ZM180.739 117.575L187.698 121.601V107.997L180.739 103.971V117.575Z" fill="#585896"/>
<path d="M190.682 144.55L169.588 132.351V129.886L190.682 142.084V144.55Z" fill="#F2F9FC"/>
<path d="M167.992 130.72L166.401 131.562V134.028L187.499 146.226L189.091 145.384V142.918L167.992 130.72Z" fill="white"/>
<path d="M187.496 146.44L187.405 146.388L166.213 134.133V131.446L167.996 130.502L168.086 130.555L189.278 142.809V145.497L187.496 146.44ZM166.589 133.919L187.503 146.012L188.903 145.271V143.027L167.989 130.934L166.589 131.675V133.919Z" fill="#585896"/>
<path d="M189.091 145.384L187.499 146.226V143.76L189.091 142.918V145.384Z" fill="#5340E2"/>
<path d="M187.357 146.459V143.677L189.23 142.689V145.47L187.357 146.459ZM187.638 143.847V145.993L188.948 145.301V143.155L187.638 143.847Z" fill="#585896"/>
<path d="M187.638 146.47L166.258 134.111V131.321L187.638 143.681V146.47ZM166.544 133.945L187.36 145.982V143.843L166.544 131.806V133.945Z" fill="#585896"/>
<path d="M188.167 126.987C187.841 126.799 187.548 126.784 187.33 126.905L186.628 127.288C184.906 126.762 183.761 127.326 182.894 128.111C182.042 128.442 181.415 129.092 180.882 129.709C180.777 129.611 180.668 129.528 180.555 129.461C180.041 129.164 179.606 129.284 179.433 129.709C178.945 129.205 178.506 128.51 178.022 127.735C177.29 126.563 176.412 125.16 175.079 124.059C174.951 123.379 174.482 122.653 173.915 122.326C173.559 122.119 173.244 122.119 173.026 122.277L172.185 122.856C171.232 122.939 170.357 123.491 169.509 124.112C168.905 124.427 168.327 124.863 167.752 125.292C167.625 125.386 167.501 125.48 167.377 125.57C167.14 125.69 166.904 125.784 166.671 125.833C166.454 125.352 166.097 124.912 165.692 124.679C165.177 124.382 164.738 124.503 164.569 124.931C163.931 124.258 163.428 123.356 162.873 122.356C161.942 120.68 160.887 118.778 158.924 117.642C157.543 116.842 156.278 117.334 155.238 118.259C155.264 118.248 155.287 118.244 155.313 118.233C153.669 118.845 152.363 120.905 151.669 122.236C151.65 122.225 151.631 122.21 151.612 122.198C150.948 121.815 150.411 122.127 150.411 122.894C150.411 123.661 150.948 124.593 151.612 124.976C152.01 125.206 152.363 125.183 152.581 124.961C152.573 124.969 152.569 124.976 152.562 124.98L153.489 124.322C153.834 124.281 154.067 123.973 154.067 123.473C154.067 123.018 153.876 122.507 153.583 122.082C154.063 121.176 154.821 119.939 155.749 119.09C156.357 118.864 157.002 118.872 157.667 119.259C159.329 120.221 160.196 121.781 161.109 123.431C161.735 124.563 162.381 125.721 163.278 126.574C163.417 127.243 163.879 127.95 164.43 128.269C164.825 128.495 165.17 128.476 165.388 128.262C165.373 128.273 165.365 128.292 165.35 128.303L166.401 127.596C166.611 127.536 166.765 127.367 166.84 127.111C167.313 126.841 167.786 126.487 168.27 126.123C169.336 125.318 170.432 124.495 171.596 124.555C171.798 125.112 172.193 125.645 172.654 125.912C173.169 126.209 173.604 126.085 173.777 125.657C174.861 126.585 175.593 127.747 176.303 128.882C176.884 129.81 177.44 130.697 178.134 131.337C178.269 132.013 178.735 132.724 179.29 133.047C179.688 133.276 180.037 133.254 180.259 133.036C180.251 133.043 180.248 133.051 180.24 133.058L181.396 132.321C181.614 132.197 181.749 131.927 181.749 131.543C181.749 131.325 181.7 131.092 181.621 130.863C181.903 130.63 182.173 130.31 182.458 129.972C182.74 129.637 183.04 129.288 183.378 128.972C184.027 128.731 184.808 128.701 185.791 129.062C185.968 129.675 186.4 130.288 186.903 130.581C187.278 130.799 187.612 130.788 187.833 130.6C187.818 130.611 187.807 130.626 187.792 130.637L188.933 129.889C189.196 129.784 189.361 129.502 189.361 129.077C189.361 128.31 188.824 127.378 188.16 126.995L188.167 126.987Z" fill="#E86207"/>
<path d="M179.827 133.348C179.636 133.348 179.433 133.287 179.227 133.167C178.66 132.84 178.168 132.122 178.011 131.408C177.312 130.758 176.768 129.882 176.19 128.957C175.522 127.89 174.831 126.788 173.825 125.882C173.578 126.254 173.09 126.326 172.591 126.036C172.144 125.777 171.735 125.269 171.506 124.694H171.487C170.41 124.694 169.37 125.48 168.364 126.236C167.91 126.578 167.441 126.931 166.968 127.205C166.878 127.469 166.705 127.649 166.472 127.724L165.436 128.42C165.162 128.626 164.768 128.623 164.37 128.389C163.811 128.066 163.319 127.352 163.158 126.645C162.257 125.777 161.615 124.619 160.996 123.499C160.091 121.868 159.236 120.323 157.607 119.379C157.036 119.048 156.443 118.996 155.835 119.21C154.953 120.026 154.225 121.198 153.759 122.071C154.052 122.522 154.221 123.025 154.221 123.469C154.221 124.01 153.966 124.386 153.557 124.454L152.66 125.093C152.389 125.33 151.976 125.337 151.556 125.093C150.854 124.687 150.287 123.698 150.287 122.89C150.287 122.597 150.362 122.345 150.501 122.168C150.749 121.86 151.188 121.807 151.627 122.037C152.288 120.804 153.56 118.808 155.171 118.142C156.447 117.011 157.761 116.8 159.01 117.522C161.007 118.676 162.073 120.597 163.012 122.289C163.485 123.142 163.973 124.025 164.554 124.691C164.806 124.337 165.286 124.273 165.778 124.555C166.161 124.777 166.525 125.187 166.765 125.668C166.938 125.623 167.122 125.548 167.328 125.442C167.433 125.363 167.557 125.269 167.681 125.175C168.248 124.747 168.837 124.303 169.456 123.98C170.267 123.382 171.172 122.811 172.148 122.713L173.071 122.071L173.082 122.086C173.345 121.965 173.672 122.007 174.002 122.198C174.572 122.529 175.072 123.255 175.222 123.976C176.554 125.093 177.44 126.514 178.157 127.656C178.562 128.303 178.975 128.968 179.418 129.465C179.67 129.111 180.15 129.051 180.638 129.333C180.721 129.382 180.799 129.438 180.882 129.502C181.415 128.897 182.023 128.303 182.83 127.983C183.626 127.269 184.433 126.938 185.364 126.938C185.762 126.938 186.186 127.002 186.625 127.134L187.402 126.705L187.409 126.724C187.657 126.645 187.954 126.694 188.254 126.867C188.956 127.273 189.526 128.262 189.526 129.07C189.526 129.54 189.339 129.886 189.008 130.013L187.894 130.746C187.62 130.931 187.244 130.916 186.861 130.694C186.358 130.401 185.908 129.807 185.705 129.164C184.879 128.874 184.151 128.848 183.479 129.089C183.145 129.404 182.838 129.765 182.59 130.058C182.338 130.359 182.076 130.667 181.809 130.904C181.877 131.134 181.914 131.344 181.914 131.54C181.914 131.964 181.764 132.284 181.49 132.442L180.338 133.175C180.203 133.287 180.034 133.348 179.846 133.348H179.827ZM173.724 125.42L173.874 125.548C174.989 126.502 175.755 127.724 176.427 128.807C177.005 129.731 177.549 130.604 178.236 131.231L178.27 131.261L178.277 131.306C178.408 131.961 178.855 132.626 179.366 132.923C179.685 133.107 179.981 133.115 180.161 132.934L180.173 132.945V132.938L181.325 132.201C181.513 132.092 181.61 131.859 181.61 131.543C181.61 131.352 181.569 131.137 181.49 130.908L181.46 130.818L181.535 130.754C181.809 130.525 182.087 130.198 182.353 129.878C182.609 129.574 182.928 129.198 183.284 128.867L183.329 128.837C184.084 128.559 184.921 128.589 185.84 128.927L185.908 128.953L185.927 129.021C186.099 129.615 186.52 130.194 186.974 130.457C187.278 130.634 187.556 130.645 187.74 130.491V130.498L188.854 129.773C189.095 129.675 189.218 129.427 189.218 129.077C189.218 128.356 188.712 127.476 188.089 127.119C187.822 126.965 187.574 126.935 187.391 127.036L187.263 127.108L186.636 127.45L186.58 127.431C185.187 127.006 184.065 127.243 182.98 128.224L182.935 128.25C182.124 128.566 181.516 129.186 180.98 129.807L180.886 129.916L180.777 129.818C180.676 129.724 180.574 129.649 180.473 129.589C180.06 129.352 179.696 129.416 179.553 129.769L179.471 129.968L179.321 129.814C178.81 129.288 178.345 128.54 177.894 127.818C177.185 126.679 176.299 125.266 174.982 124.176L174.944 124.142L174.936 124.093C174.813 123.431 174.362 122.758 173.84 122.458C173.551 122.292 173.285 122.27 173.101 122.401L172.988 122.48L172.23 123.003H172.193C171.322 123.082 170.522 123.552 169.588 124.236C168.968 124.559 168.394 124.995 167.835 125.416C167.707 125.51 167.583 125.604 167.456 125.698C167.163 125.848 166.923 125.939 166.698 125.984L166.589 126.006L166.544 125.901C166.33 125.427 165.984 125.018 165.624 124.811C165.207 124.57 164.843 124.638 164.701 124.995L164.618 125.202L164.468 125.04C163.804 124.337 163.271 123.371 162.753 122.439C161.833 120.777 160.786 118.894 158.857 117.778C157.715 117.12 156.537 117.315 155.358 118.357L155.366 118.379C153.733 118.988 152.431 121.108 151.796 122.315L151.725 122.45L151.56 122.345C151.177 122.119 150.88 122.142 150.708 122.36C150.606 122.488 150.554 122.676 150.554 122.905C150.554 123.627 151.061 124.503 151.684 124.863C152.003 125.048 152.303 125.051 152.483 124.871L153.47 124.191C153.756 124.157 153.924 123.89 153.924 123.48C153.924 123.078 153.752 122.586 153.463 122.172L153.414 122.101L153.455 122.025C153.936 121.123 154.705 119.86 155.651 118.996L155.696 118.966C156.394 118.71 157.085 118.77 157.734 119.146C159.435 120.127 160.305 121.702 161.229 123.371C161.844 124.484 162.482 125.634 163.372 126.48L163.406 126.51L163.413 126.555C163.548 127.205 163.995 127.863 164.498 128.156C164.813 128.337 165.106 128.344 165.29 128.171L165.298 128.179L166.364 127.472C166.57 127.412 166.664 127.228 166.705 127.085L166.72 127.029L166.769 126.999C167.246 126.728 167.722 126.367 168.184 126.021C169.265 125.209 170.38 124.367 171.603 124.427H171.697L171.727 124.521C171.926 125.074 172.309 125.566 172.722 125.807C173.135 126.048 173.503 125.976 173.642 125.619L173.713 125.435L173.724 125.42Z" fill="#585896"/>
<path d="M151.766 124.059L151.121 123.397C151.237 123.108 154.048 116.361 157.67 118.454C159.634 119.59 160.688 121.492 161.619 123.168C162.407 124.593 163.09 125.822 164.209 126.469C165.331 127.115 166.506 126.228 167.756 125.292C169.257 124.161 170.815 122.988 172.718 124.089C174.704 125.236 175.849 127.07 176.768 128.544C177.459 129.645 178.052 130.6 178.836 131.051C179.444 131.4 179.992 130.75 180.627 129.998C181.79 128.623 183.378 126.739 186.91 128.78V129.581C183.753 127.754 182.342 129.427 181.205 130.773C180.458 131.656 179.816 132.419 178.836 131.852C177.789 131.246 177.068 130.096 176.306 128.878C175.387 127.408 174.437 125.886 172.714 124.89C171.127 123.973 169.678 125.063 168.274 126.119C166.919 127.138 165.643 128.1 164.205 127.269C162.786 126.45 161.934 124.912 161.112 123.428C160.197 121.777 159.333 120.217 157.67 119.255C154.525 117.436 151.796 123.991 151.77 124.055L151.766 124.059Z" fill="#E86207"/>
<path d="M179.486 132.145C179.257 132.145 179.028 132.077 178.787 131.938C177.722 131.321 176.993 130.16 176.228 128.931C175.316 127.468 174.37 125.961 172.666 124.976C172.279 124.754 171.892 124.645 171.483 124.645C170.395 124.645 169.344 125.435 168.33 126.198C167.317 126.961 166.36 127.683 165.324 127.683C164.922 127.683 164.539 127.574 164.16 127.356C162.719 126.521 161.863 124.976 161.034 123.476C160.125 121.837 159.269 120.289 157.625 119.341C157.273 119.138 156.908 119.037 156.544 119.037C153.981 119.037 151.879 124.048 151.856 124.1L151.8 124.232L151.012 123.427L151.034 123.371C151.124 123.149 153.279 117.969 156.263 117.969C156.751 117.969 157.239 118.108 157.715 118.383C159.701 119.533 160.763 121.446 161.698 123.134C162.479 124.544 163.154 125.766 164.25 126.397C164.494 126.536 164.746 126.608 165.016 126.608C165.86 126.608 166.75 125.938 167.692 125.228C168.777 124.412 169.899 123.567 171.172 123.567C171.712 123.567 172.23 123.717 172.759 124.021C174.764 125.179 175.916 127.025 176.843 128.506C177.526 129.6 178.116 130.543 178.881 130.983C178.979 131.039 179.077 131.07 179.178 131.07C179.61 131.07 180.067 130.528 180.552 129.957C181.362 128.995 182.368 127.803 184.091 127.803C184.947 127.803 185.912 128.111 186.955 128.716L187 128.743V129.761L186.861 129.679C185.953 129.152 185.127 128.889 184.395 128.889C182.931 128.889 182.049 129.931 181.272 130.852C180.706 131.524 180.169 132.16 179.482 132.16L179.486 132.145ZM171.483 124.454C171.919 124.454 172.35 124.574 172.759 124.811C174.505 125.818 175.462 127.348 176.385 128.829C177.14 130.036 177.853 131.179 178.881 131.772C179.095 131.897 179.29 131.957 179.486 131.957C180.086 131.957 180.57 131.382 181.133 130.716C181.895 129.814 182.845 128.686 184.399 128.686C185.135 128.686 185.927 128.927 186.816 129.423V128.837C185.818 128.265 184.902 127.976 184.091 127.976C182.458 127.976 181.483 129.13 180.698 130.058C180.161 130.694 179.7 131.242 179.178 131.242C179.046 131.242 178.915 131.205 178.787 131.133C177.98 130.667 177.38 129.705 176.686 128.592C175.77 127.126 174.632 125.307 172.666 124.168C172.166 123.879 171.678 123.739 171.172 123.739C169.963 123.739 168.867 124.566 167.805 125.363C166.836 126.093 165.921 126.78 165.012 126.78C164.712 126.78 164.423 126.702 164.153 126.547C163.012 125.886 162.325 124.645 161.529 123.209C160.606 121.544 159.558 119.653 157.618 118.529C157.171 118.27 156.713 118.138 156.259 118.138C153.527 118.138 151.481 122.766 151.226 123.367L151.729 123.882C152.085 123.063 154.056 118.834 156.533 118.834C156.931 118.834 157.325 118.947 157.708 119.165C159.397 120.142 160.264 121.71 161.187 123.371C162.006 124.845 162.85 126.371 164.247 127.179C164.599 127.382 164.948 127.48 165.316 127.48C166.288 127.48 167.223 126.777 168.21 126.032C169.25 125.251 170.323 124.439 171.476 124.439L171.483 124.454Z" fill="#585896"/>
<path d="M155.752 119.086C154.258 119.635 153.009 121.601 152.325 122.89C152.618 123.311 152.81 123.822 152.81 124.281C152.81 124.597 152.716 124.837 152.562 124.98L153.489 124.322C153.834 124.281 154.067 123.973 154.067 123.473C154.067 123.018 153.876 122.506 153.583 122.082C154.063 121.176 154.825 119.935 155.752 119.086Z" fill="#E86207"/>
<path d="M181.205 130.776C180.919 131.115 180.649 131.434 180.368 131.667C180.446 131.897 180.495 132.13 180.495 132.348C180.495 132.667 180.401 132.908 180.244 133.051L181.4 132.314C181.618 132.19 181.753 131.919 181.753 131.536C181.753 131.318 181.704 131.085 181.625 130.855C181.907 130.622 182.177 130.303 182.462 129.964C182.744 129.63 183.044 129.277 183.382 128.965C182.451 129.307 181.79 130.085 181.205 130.776Z" fill="#E86207"/>
<path d="M165.635 127.562C165.635 127.562 165.635 127.57 165.635 127.574C165.635 127.912 165.53 128.16 165.354 128.303L166.405 127.596C166.615 127.536 166.773 127.367 166.844 127.108C166.442 127.337 166.041 127.506 165.632 127.562H165.635Z" fill="#B42E6A"/>
<path d="M152.813 124.281C152.813 125.048 152.277 125.356 151.612 124.976C150.948 124.593 150.411 123.661 150.411 122.894C150.411 122.127 150.948 121.819 151.612 122.198C152.277 122.582 152.813 123.514 152.813 124.281Z" fill="white"/>
<path d="M152.149 125.232C151.965 125.232 151.77 125.172 151.567 125.055C150.88 124.657 150.321 123.687 150.321 122.894C150.321 122.608 150.392 122.371 150.524 122.202C150.771 121.894 151.207 121.856 151.661 122.119C152.348 122.518 152.907 123.488 152.907 124.281C152.907 124.86 152.611 125.232 152.149 125.232ZM151.075 122.127C150.91 122.127 150.768 122.191 150.67 122.315C150.561 122.45 150.505 122.649 150.505 122.89C150.505 123.627 151.023 124.521 151.657 124.89C151.83 124.988 151.999 125.04 152.145 125.04C152.498 125.04 152.716 124.747 152.716 124.277C152.716 123.54 152.198 122.646 151.563 122.277C151.391 122.18 151.222 122.127 151.075 122.127Z" fill="#585896"/>
<path d="M188.111 129.878C188.111 130.645 187.574 130.953 186.91 130.573C186.246 130.19 185.709 129.258 185.709 128.491C185.709 127.724 186.246 127.412 186.91 127.796C187.574 128.179 188.111 129.111 188.111 129.878Z" fill="white"/>
<path d="M187.447 130.829C187.263 130.829 187.068 130.769 186.865 130.652C186.178 130.254 185.619 129.284 185.619 128.491C185.619 127.912 185.915 127.54 186.377 127.54C186.561 127.54 186.756 127.6 186.959 127.717C187.646 128.115 188.205 129.085 188.205 129.878C188.205 130.457 187.908 130.829 187.447 130.829ZM186.373 127.728C186.02 127.728 185.803 128.021 185.803 128.491C185.803 129.228 186.321 130.122 186.955 130.491C187.128 130.589 187.297 130.641 187.443 130.641C187.796 130.641 188.013 130.348 188.013 129.878C188.013 129.141 187.496 128.247 186.861 127.878C186.689 127.781 186.52 127.728 186.373 127.728Z" fill="#585896"/>
<path d="M180.495 132.351C180.495 133.118 179.958 133.426 179.294 133.047C178.63 132.663 178.093 131.731 178.093 130.964C178.093 130.197 178.63 129.885 179.294 130.269C179.958 130.652 180.495 131.585 180.495 132.351Z" fill="white"/>
<path d="M179.831 133.303C179.647 133.303 179.452 133.242 179.249 133.126C178.562 132.727 178.003 131.758 178.003 130.964C178.003 130.386 178.3 130.013 178.761 130.013C178.945 130.013 179.14 130.074 179.343 130.19C180.03 130.588 180.589 131.558 180.589 132.351C180.589 132.93 180.293 133.303 179.831 133.303ZM178.761 130.198C178.408 130.198 178.191 130.491 178.191 130.961C178.191 131.697 178.709 132.592 179.343 132.96C179.516 133.058 179.685 133.111 179.831 133.111C180.184 133.111 180.402 132.818 180.402 132.348C180.402 131.611 179.884 130.716 179.249 130.348C179.077 130.25 178.908 130.198 178.761 130.198Z" fill="#585896"/>
<path d="M165.635 127.57C165.635 128.337 165.099 128.649 164.434 128.265C163.77 127.882 163.233 126.95 163.233 126.183C163.233 125.416 163.77 125.104 164.434 125.487C165.099 125.871 165.635 126.803 165.635 127.57Z" fill="white"/>
<path d="M164.971 128.525C164.787 128.525 164.592 128.465 164.389 128.348C163.702 127.95 163.143 126.98 163.143 126.187C163.143 125.608 163.439 125.236 163.901 125.236C164.085 125.236 164.28 125.296 164.483 125.412C165.17 125.811 165.729 126.781 165.729 127.574C165.729 128.153 165.433 128.525 164.971 128.525ZM163.897 125.42C163.545 125.42 163.327 125.713 163.327 126.183C163.327 126.92 163.845 127.814 164.479 128.183C164.652 128.28 164.821 128.333 164.967 128.333C165.32 128.333 165.538 128.04 165.538 127.57C165.538 126.833 165.02 125.939 164.385 125.57C164.213 125.472 164.044 125.42 163.897 125.42Z" fill="#585896"/>
<path d="M173.859 125.217C173.859 125.984 173.322 126.296 172.658 125.912C171.994 125.529 171.457 124.596 171.457 123.83C171.457 123.063 171.994 122.755 172.658 123.134C173.322 123.518 173.859 124.45 173.859 125.217Z" fill="white"/>
<path d="M173.195 126.168C173.011 126.168 172.816 126.108 172.613 125.991C171.926 125.593 171.367 124.623 171.367 123.826C171.367 123.247 171.663 122.875 172.125 122.875C172.309 122.875 172.504 122.935 172.707 123.052C173.394 123.45 173.953 124.42 173.953 125.213C173.953 125.792 173.656 126.164 173.195 126.164V126.168ZM172.125 123.067C171.772 123.067 171.554 123.36 171.554 123.83C171.554 124.567 172.072 125.461 172.707 125.83C172.879 125.927 173.048 125.98 173.195 125.98C173.548 125.98 173.765 125.687 173.765 125.217C173.765 124.48 173.247 123.585 172.613 123.217C172.44 123.119 172.271 123.067 172.125 123.067Z" fill="#585896"/>
<path d="M224.009 163.909C223.488 163.909 222.932 163.739 222.354 163.405L209.57 156.015C207.562 154.853 205.929 152.019 205.929 149.696V134.915C205.929 133.28 206.762 132.224 208.053 132.224C208.575 132.224 209.134 132.393 209.712 132.727L222.497 140.118C224.505 141.279 226.138 144.114 226.138 146.437V161.217C226.138 162.029 225.935 162.709 225.556 163.187C225.177 163.661 224.644 163.909 224.013 163.909H224.009ZM208.05 132.506C206.912 132.506 206.207 133.43 206.207 134.915V149.696C206.207 151.929 207.779 154.654 209.709 155.77L222.493 163.161C223.642 163.826 224.726 163.766 225.331 163.01C225.672 162.585 225.852 161.965 225.852 161.217V146.437C225.852 144.204 224.283 141.478 222.35 140.362L209.566 132.972C209.033 132.663 208.523 132.506 208.05 132.506Z" fill="#585896"/>
<path d="M219.543 114.921C219.145 114.921 218.721 114.793 218.282 114.537L208.68 108.985C207.16 108.106 205.925 105.963 205.925 104.208V93.1034C205.925 91.8554 206.567 91.0472 207.558 91.0472C207.956 91.0472 208.38 91.175 208.819 91.4306L218.421 96.9827C219.937 97.8623 221.172 100.005 221.172 101.76V112.865C221.172 113.481 221.018 114 220.725 114.364C220.432 114.729 220.023 114.921 219.539 114.921H219.543ZM207.558 91.3329C206.725 91.3329 206.207 92.0133 206.207 93.1071V104.211C206.207 105.877 207.378 107.91 208.819 108.745L218.421 114.297C219.261 114.785 220.068 114.74 220.507 114.192C220.759 113.88 220.89 113.421 220.89 112.868V101.764C220.89 100.099 219.719 98.0653 218.278 97.2308L208.676 91.6787C208.286 91.4532 207.896 91.3329 207.554 91.3329H207.558Z" fill="#585896"/>
<path d="M138.498 86.0552C137.983 86.0552 137.435 85.8898 136.865 85.559L124.264 78.274C122.283 77.1275 120.672 74.3345 120.672 72.0453V57.4752C120.672 55.8626 121.494 54.8214 122.77 54.8214C123.285 54.8214 123.836 54.9867 124.407 55.3175L137.007 62.6026C138.986 63.7491 140.596 66.542 140.596 68.8313V83.4013C140.596 84.202 140.397 84.8748 140.022 85.341C139.646 85.8071 139.121 86.0552 138.501 86.0552H138.498ZM122.767 55.1033C121.648 55.1033 120.95 56.013 120.95 57.4752V72.0453C120.95 74.2443 122.496 76.932 124.4 78.0296L137 85.3147C138.13 85.9687 139.199 85.9086 139.796 85.1643C140.13 84.747 140.311 84.1343 140.311 83.3975V68.8275C140.311 66.6285 138.764 63.9408 136.861 62.8431L124.261 55.5581C123.735 55.2536 123.232 55.0995 122.767 55.0995V55.1033Z" fill="#585896"/>
<path d="M213.552 99.0126C211.026 97.5503 208.977 98.1442 208.977 100.339C208.977 101.603 209.656 103.121 210.718 104.463C210.561 106.448 210.354 106.779 210.354 106.779C210.354 106.779 211.27 107.117 212.929 106.557C213.132 106.7 213.342 106.835 213.556 106.955C216.082 108.418 218.132 107.824 218.132 105.628C218.132 103.433 216.082 100.471 213.556 99.0088L213.552 99.0126Z" fill="url(#paint0_linear_5_1869)"/>
<path d="M218.529 151.011L216.168 152.376L213.811 148.282C212.456 148.433 211.552 149.613 211.552 151.568L220.793 156.909C220.793 154.955 219.884 152.722 218.533 151.008L218.529 151.011Z" fill="url(#paint1_linear_5_1869)"/>
<path d="M218.698 146.805C218.698 148.959 217.189 149.831 215.328 148.752C213.466 147.677 211.957 145.057 211.957 142.907C211.957 140.757 213.466 139.881 215.328 140.956C217.189 142.035 218.698 144.651 218.698 146.801V146.805Z" fill="url(#paint2_linear_5_1869)"/>
<path d="M135.288 75.6314C137.18 74.5375 137.18 70.9927 135.288 67.7149C133.397 64.437 130.334 62.6627 128.442 63.7566C126.652 64.7903 126.561 68.0231 128.16 71.1506L127.072 71.7821L126.434 70.677L123.379 72.4437L125.244 75.6803L128.299 73.9135L127.661 72.8084L128.75 72.1768C130.653 75.1277 133.494 76.6651 135.285 75.6276L135.288 75.6314ZM129.591 65.7451C130.848 65.0196 132.882 66.1962 134.14 68.3765C135.397 70.5567 135.397 72.9099 134.14 73.6353C132.882 74.3608 130.848 73.1843 129.591 71.004C128.333 68.8238 128.333 66.4706 129.591 65.7451Z" fill="url(#paint3_linear_5_1869)"/>
<path d="M143.554 48.7918C143.554 50.5924 142.292 51.3217 140.735 50.4195C139.177 49.5211 137.916 47.3333 137.916 45.5327C137.916 43.7322 139.177 43.0029 140.735 43.9051C142.292 44.8035 143.554 46.9912 143.554 48.7918Z" fill="url(#paint4_linear_5_1869)"/>
<path d="M208.883 169.228C208.883 171.028 207.622 171.757 206.064 170.855C204.506 169.957 203.245 167.769 203.245 165.969C203.245 164.168 204.506 163.439 206.064 164.341C207.622 165.239 208.883 167.427 208.883 169.228Z" fill="url(#paint5_linear_5_1869)"/>
<path d="M220.339 174.268C220.339 175.317 219.603 175.742 218.698 175.216C217.794 174.693 217.058 173.419 217.058 172.37C217.058 171.321 217.794 170.897 218.698 171.423C219.603 171.945 220.339 173.22 220.339 174.268Z" fill="url(#paint6_linear_5_1869)"/>
<path d="M132.271 48.1115C132.271 49.1602 131.535 49.585 130.63 49.0587C129.726 48.5362 128.99 47.2619 128.99 46.2131C128.99 45.1644 129.726 44.7396 130.63 45.2659C131.535 45.7884 132.271 47.0627 132.271 48.1115Z" fill="url(#paint7_linear_5_1869)"/>
<path d="M211.736 182.662C211.736 183.226 211.338 183.456 210.85 183.174C210.362 182.892 209.964 182.204 209.964 181.64C209.964 181.076 210.358 180.847 210.85 181.129C211.338 181.411 211.736 182.099 211.736 182.662Z" fill="url(#paint8_linear_5_1869)"/>
<path d="M141.62 35.1804C141.62 35.7442 141.223 35.9735 140.735 35.6916C140.247 35.4097 139.849 34.7217 139.849 34.1579C139.849 33.594 140.243 33.3647 140.735 33.6467C141.223 33.9286 141.62 34.6165 141.62 35.1804Z" fill="url(#paint9_linear_5_1869)"/>
<defs>
<linearGradient id="paint0_linear_5_1869" x1="214.993" y1="106.961" x2="217.129" y2="102.875" gradientUnits="userSpaceOnUse">
<stop stop-color="#9C4DFF"/>
<stop offset="1" stop-color="#31A2FF"/>
</linearGradient>
<linearGradient id="paint1_linear_5_1869" x1="217.624" y1="155.541" x2="222.068" y2="150.552" gradientUnits="userSpaceOnUse">
<stop stop-color="#9C4DFF"/>
<stop offset="1" stop-color="#31A2FF"/>
</linearGradient>
<linearGradient id="paint2_linear_5_1869" x1="217.624" y1="155.541" x2="222.068" y2="150.552" gradientUnits="userSpaceOnUse">
<stop stop-color="#9C4DFF"/>
<stop offset="1" stop-color="#31A2FF"/>
</linearGradient>
<linearGradient id="paint3_linear_5_1869" x1="132.137" y1="74.9078" x2="134.767" y2="69.3233" gradientUnits="userSpaceOnUse">
<stop stop-color="#9C4DFF"/>
<stop offset="1" stop-color="#31A2FF"/>
</linearGradient>
<linearGradient id="paint4_linear_5_1869" x1="141.62" y1="50.1989" x2="143.434" y2="47.4017" gradientUnits="userSpaceOnUse">
<stop stop-color="#9C4DFF"/>
<stop offset="1" stop-color="#31A2FF"/>
</linearGradient>
<linearGradient id="paint5_linear_5_1869" x1="206.95" y1="170.635" x2="208.763" y2="167.838" gradientUnits="userSpaceOnUse">
<stop stop-color="#9C4DFF"/>
<stop offset="1" stop-color="#31A2FF"/>
</linearGradient>
<linearGradient id="paint6_linear_5_1869" x1="219.214" y1="175.088" x2="220.27" y2="173.46" gradientUnits="userSpaceOnUse">
<stop stop-color="#9C4DFF"/>
<stop offset="1" stop-color="#31A2FF"/>
</linearGradient>
<linearGradient id="paint7_linear_5_1869" x1="131.146" y1="48.9308" x2="132.202" y2="47.3026" gradientUnits="userSpaceOnUse">
<stop stop-color="#9C4DFF"/>
<stop offset="1" stop-color="#31A2FF"/>
</linearGradient>
<linearGradient id="paint8_linear_5_1869" x1="211.128" y1="183.104" x2="211.696" y2="182.225" gradientUnits="userSpaceOnUse">
<stop stop-color="#9C4DFF"/>
<stop offset="1" stop-color="#31A2FF"/>
</linearGradient>
<linearGradient id="paint9_linear_5_1869" x1="141.013" y1="35.6216" x2="141.581" y2="34.7433" gradientUnits="userSpaceOnUse">
<stop stop-color="#9C4DFF"/>
<stop offset="1" stop-color="#31A2FF"/>
</linearGradient>
</defs>
</svg>
